<?xml version="1.0" encoding="UTF-8" standalone="no"?><svg xmlns="http://www.w3.org/2000/svg" xmlns:xlink="http://www.w3.org/1999/xlink" contentStyleType="text/css" height="1978px" preserveAspectRatio="none" style="width:2898px;height:1978px;background:#FFFFFF;" version="1.1" viewBox="0 0 2898 1978" width="2898px" zoomAndPan="magnify"><defs/><g><text fill="#000000" font-family="sans-serif" font-size="14" font-weight="bold" lengthAdjust="spacing" textLength="454" x="1220.5" y="32.9951">UCB diagram ; 2 + N_MBH &lt;= mpid &lt; 2 + N_MBH + N_UCB</text><rect fill="none" height="20.9531" style="stroke:none;stroke-width:1.0;" width="2865" x="15" y="50.042"/><rect fill="#FFFFFF" height="1916.3052" style="stroke:#FFFFFF;stroke-width:1.0;" width="538" x="15" y="50.042"/><ellipse cx="285" cy="85.9951" fill="#222222" rx="10" ry="10" style="stroke:#222222;stroke-width:1.0;"/><rect fill="#F1F1F1" height="33.9688" rx="12.5" ry="12.5" style="stroke:#181818;stroke-width:0.5;" width="163" x="203.5" y="115.9951"/><text fill="#000000" font-family="sans-serif" font-size="12" lengthAdjust="spacing" textLength="143" x="213.5" y="137.1338">// Forked from MPI_Init()</text><rect fill="#F1F1F1" height="47.9375" rx="12.5" ry="12.5" style="stroke:#181818;stroke-width:0.5;" width="250" x="160" y="387.7451"/><text fill="#000000" font-family="sans-serif" font-size="12" lengthAdjust="spacing" textLength="230" x="170" y="408.8838">// Allocates GlobalFit TDI AE structures</text><text fill="#000000" font-family="sans-serif" font-size="12" lengthAdjust="spacing" textLength="88" x="170" y="422.8525">alloc_gf_data()</text><rect fill="#F1F1F1" height="47.9375" rx="12.5" ry="12.5" style="stroke:#181818;stroke-width:0.5;" width="528" x="21" y="1607.1982"/><text fill="#000000" font-family="sans-serif" font-size="12" lengthAdjust="spacing" textLength="508" x="31" y="1628.3369">// Sends TDI AE from UCB to root process, then from root to all non-UCB processes.</text><text fill="#000000" font-family="sans-serif" font-size="12" lengthAdjust="spacing" textLength="146" x="31" y="1642.3057">share_gbmcmc_model()</text><rect fill="#F1F1F1" height="47.9375" rx="12.5" ry="12.5" style="stroke:#181818;stroke-width:0.5;" width="247" x="161.5" y="1675.1357"/><text fill="#000000" font-family="sans-serif" font-size="12" lengthAdjust="spacing" textLength="227" x="171.5" y="1696.2744">// Receives TDI AE from root process.</text><text fill="#000000" font-family="sans-serif" font-size="12" lengthAdjust="spacing" textLength="120" x="171.5" y="1710.2432">share_mbh_model()</text><rect fill="#F1F1F1" height="47.9375" rx="12.5" ry="12.5" style="stroke:#181818;stroke-width:0.5;" width="284" x="143" y="1743.0732"/><text fill="#000000" font-family="sans-serif" font-size="12" lengthAdjust="spacing" textLength="264" x="153" y="1764.2119">// Receives noise model from root process.</text><text fill="#000000" font-family="sans-serif" font-size="12" lengthAdjust="spacing" textLength="127" x="153" y="1778.1807">share_noise_model()</text><rect fill="#F1F1F1" height="47.9375" rx="12.5" ry="12.5" style="stroke:#181818;stroke-width:0.5;" width="247" x="161.5" y="1811.0107"/><text fill="#000000" font-family="sans-serif" font-size="12" lengthAdjust="spacing" textLength="227" x="171.5" y="1832.1494">// Receives TDI AE from root process.</text><text fill="#000000" font-family="sans-serif" font-size="12" lengthAdjust="spacing" textLength="145" x="171.5" y="1846.1182">share_vbmcmc_model()</text><polygon fill="#F1F1F1" points="214.5,1878.9482,355.5,1878.9482,367.5,1890.9482,355.5,1902.9482,214.5,1902.9482,202.5,1890.9482,214.5,1878.9482" style="stroke:#181818;stroke-width:0.5;"/><text fill="#000000" font-family="sans-serif" font-size="11" lengthAdjust="spacing" textLength="141" x="214.5" y="1894.7563">GBMCMC steps finished?</text><text fill="#000000" font-family="sans-serif" font-size="11" lengthAdjust="spacing" textLength="14" x="367.5" y="1888.354">no</text><ellipse cx="285" cy="1955.3472" fill="none" rx="11" ry="11" style="stroke:#222222;stroke-width:1.0;"/><ellipse cx="285" cy="1955.3472" fill="#222222" rx="6" ry="6" style="stroke:#111111;stroke-width:1.0;"/><line style="stroke:#000000;stroke-width:1.5;" x1="15" x2="15" y1="50.042" y2="1966.3472"/><rect fill="#FFFFFF" height="1916.3052" style="stroke:#FFFFFF;stroke-width:1.0;" width="201" x="553" y="50.042"/><rect fill="#F1F1F1" height="47.9375" rx="12.5" ry="12.5" style="stroke:#181818;stroke-width:0.5;" width="191" x="559" y="169.9639"/><text fill="#000000" font-family="sans-serif" font-size="12" lengthAdjust="spacing" textLength="171" x="569" y="191.1025">// Reads known-sources file.</text><text fill="#000000" font-family="sans-serif" font-size="12" lengthAdjust="spacing" textLength="89" x="569" y="205.0713">parse_vb_list()</text><rect fill="#F1F1F1" height="47.9375" rx="12.5" ry="12.5" style="stroke:#181818;stroke-width:0.5;" width="119" x="595" y="319.8076"/><text fill="#000000" font-family="sans-serif" font-size="12" lengthAdjust="spacing" textLength="99" x="605" y="340.9463">// Parse any UCB</text><text fill="#000000" font-family="sans-serif" font-size="12" lengthAdjust="spacing" textLength="45" x="605" y="354.915">parse()</text><line style="stroke:#000000;stroke-width:1.5;" x1="553" x2="553" y1="50.042" y2="1966.3472"/><rect fill="#FFFFFF" height="1916.3052" style="stroke:#FFFFFF;stroke-width:1.0;" width="323" x="754" y="50.042"/><rect fill="#F1F1F1" height="61.9063" rx="12.5" ry="12.5" style="stroke:#181818;stroke-width:0.5;" width="202" x="815.5" y="237.9014"/><text fill="#000000" font-family="sans-serif" font-size="12" lengthAdjust="spacing" textLength="168" x="825.5" y="259.04">// search_sources.dat found</text><text fill="#000000" font-family="sans-serif" font-size="12" lengthAdjust="spacing" textLength="182" x="825.5" y="273.0088">// get N_MBH = number of line</text><text fill="#000000" font-family="sans-serif" font-size="12" lengthAdjust="spacing" textLength="110" x="825.5" y="286.9775">parse_mbh_args()</text><rect fill="#F1F1F1" height="47.9375" rx="12.5" ry="12.5" style="stroke:#181818;stroke-width:0.5;" width="313" x="760" y="591.5576"/><text fill="#000000" font-family="sans-serif" font-size="12" lengthAdjust="spacing" textLength="293" x="770" y="612.6963">// Allocates MBH structures (data, het, flags, tdi).</text><text fill="#000000" font-family="sans-serif" font-size="12" lengthAdjust="spacing" textLength="102" x="770" y="626.665">alloc_mbh_data()</text><line style="stroke:#000000;stroke-width:1.5;" x1="754" x2="754" y1="50.042" y2="1966.3472"/><rect fill="#FFFFFF" height="1916.3052" style="stroke:#FFFFFF;stroke-width:1.0;" width="727" x="1077" y="50.042"/><rect fill="#F1F1F1" height="47.9375" rx="12.5" ry="12.5" style="stroke:#181818;stroke-width:0.5;" width="373" x="1255" y="455.6826"/><text fill="#000000" font-family="sans-serif" font-size="12" lengthAdjust="spacing" textLength="353" x="1265" y="476.8213">// Allocates UCB structures (flags, orbit, chain, data, prior).</text><text fill="#000000" font-family="sans-serif" font-size="12" lengthAdjust="spacing" textLength="128" x="1265" y="490.79">alloc_gbmcmc_data()</text><rect fill="none" height="202.1406" style="stroke:#000000;stroke-width:1.5;" width="448.5" x="1167" y="937.3076"/><path d="M1383,937.3076 L1383,946.6045 L1373,956.6045 L1167,956.6045 " fill="none" style="stroke:#000000;stroke-width:1.5;"/><text fill="#000000" font-family="sans-serif" font-size="14" lengthAdjust="spacing" textLength="206" x="1170" y="951.3027">setup_frequency_segment();</text><polygon fill="#F1F1F1" points="1343.5,973.6045,1539.5,973.6045,1551.5,985.6045,1539.5,997.6045,1343.5,997.6045,1331.5,985.6045,1343.5,973.6045" style="stroke:#181818;stroke-width:0.5;"/><text fill="#000000" font-family="sans-serif" font-size="11" lengthAdjust="spacing" textLength="196" x="1343.5" y="989.4126">ucb_frequency_spacing.dat found?</text><text fill="#000000" font-family="sans-serif" font-size="11" lengthAdjust="spacing" textLength="32" x="1299.5" y="983.0103">found</text><text fill="#000000" font-family="sans-serif" font-size="11" lengthAdjust="spacing" textLength="54" x="1551.5" y="983.0103">not found</text><rect fill="#F1F1F1" height="89.8438" rx="12.5" ry="12.5" style="stroke:#181818;stroke-width:0.5;" width="269" x="1187" y="1007.6045"/><text fill="#000000" font-family="sans-serif" font-size="12" lengthAdjust="spacing" textLength="149" x="1197" y="1028.7432">mpidUcb1 fmin_1 fmax_1</text><text fill="#000000" font-family="sans-serif" font-size="12" lengthAdjust="spacing" textLength="152" x="1197" y="1042.7119">mpidUcb2 fmin_2 fmax_2</text><text fill="#000000" font-family="sans-serif" font-size="12" lengthAdjust="spacing" textLength="152" x="1197" y="1056.6807">mpidUcb3 fmin_3 fmax_3</text><text fill="#000000" font-family="sans-serif" font-size="12" lengthAdjust="spacing" textLength="9" x="1197" y="1070.6494">...</text><text fill="#000000" font-family="sans-serif" font-size="12" lengthAdjust="spacing" textLength="245" x="1197" y="1084.6182">mpidUcbN_UCB fmin_N_UCB fmax_N_UCB</text><rect fill="#F1F1F1" height="33.9688" rx="12.5" ry="12.5" style="stroke:#181818;stroke-width:0.5;" width="26" x="1548.5" y="1007.6045"/><text fill="#000000" font-family="sans-serif" font-size="12" lengthAdjust="spacing" textLength="6" x="1558.5" y="1028.7432">?</text><polygon fill="#F1F1F1" points="1441.5,1103.4482,1453.5,1115.4482,1441.5,1127.4482,1429.5,1115.4482,1441.5,1103.4482" style="stroke:#181818;stroke-width:0.5;"/><rect fill="#F1F1F1" height="33.9688" rx="12.5" ry="12.5" style="stroke:#181818;stroke-width:0.5;" width="717" x="1083" y="1227.3857"/><text fill="#000000" font-family="sans-serif" font-size="12" lengthAdjust="spacing" textLength="697" x="1093" y="1248.5244">// cycle = round ( the max time of all VGB MBH UCB process time) / ( time of one update_gbmcmc_sampler() time )</text><rect fill="#F1F1F1" height="33.9688" rx="12.5" ry="12.5" style="stroke:#181818;stroke-width:0.5;" width="246" x="1318.5" y="1281.3545"/><text fill="#000000" font-family="sans-serif" font-size="12" lengthAdjust="spacing" textLength="226" x="1328.5" y="1302.4932">exchange_gbmcmc_source_params()</text><polygon fill="#F1F1F1" points="1424.5,1335.3232,1458.5,1335.3232,1470.5,1347.3232,1458.5,1359.3232,1424.5,1359.3232,1412.5,1347.3232,1424.5,1335.3232" style="stroke:#181818;stroke-width:0.5;"/><text fill="#000000" font-family="sans-serif" font-size="11" lengthAdjust="spacing" textLength="34" x="1424.5" y="1351.1313">mpid?</text><text fill="#000000" font-family="sans-serif" font-size="11" lengthAdjust="spacing" textLength="30" x="1382.5" y="1344.729">even</text><text fill="#000000" font-family="sans-serif" font-size="11" lengthAdjust="spacing" textLength="21" x="1470.5" y="1344.729">odd</text><rect fill="#F1F1F1" height="47.9375" rx="12.5" ry="12.5" style="stroke:#181818;stroke-width:0.5;" width="185" x="1216" y="1417.3232"/><text fill="#000000" font-family="sans-serif" font-size="12" lengthAdjust="spacing" textLength="48" x="1226" y="1438.4619">// MCMC</text><text fill="#000000" font-family="sans-serif" font-size="12" lengthAdjust="spacing" textLength="165" x="1226" y="1452.4307">update_gbmcmc_sampler()</text><polygon fill="#F1F1F1" points="1229.5,1369.3232,1387.5,1369.3232,1399.5,1381.3232,1387.5,1393.3232,1229.5,1393.3232,1217.5,1381.3232,1229.5,1369.3232" style="stroke:#181818;stroke-width:0.5;"/><text fill="#000000" font-family="sans-serif" font-size="11" lengthAdjust="spacing" textLength="158" x="1229.5" y="1385.1313">Loop until done 'cycle' time</text><rect fill="#F1F1F1" height="33.9688" rx="12.5" ry="12.5" style="stroke:#181818;stroke-width:0.5;" width="246" x="1185.5" y="1523.2295"/><text fill="#000000" font-family="sans-serif" font-size="12" lengthAdjust="spacing" textLength="226" x="1195.5" y="1544.3682">exchange_gbmcmc_source_params()</text><rect fill="#F1F1F1" height="33.9688" rx="12.5" ry="12.5" style="stroke:#181818;stroke-width:0.5;" width="246" x="1451.5" y="1369.3232"/><text fill="#000000" font-family="sans-serif" font-size="12" lengthAdjust="spacing" textLength="226" x="1461.5" y="1390.4619">exchange_gbmcmc_source_params()</text><rect fill="#F1F1F1" height="47.9375" rx="12.5" ry="12.5" style="stroke:#181818;stroke-width:0.5;" width="185" x="1482" y="1485.2607"/><text fill="#000000" font-family="sans-serif" font-size="12" lengthAdjust="spacing" textLength="48" x="1492" y="1506.3994">// MCMC</text><text fill="#000000" font-family="sans-serif" font-size="12" lengthAdjust="spacing" textLength="165" x="1492" y="1520.3682">update_gbmcmc_sampler()</text><polygon fill="#F1F1F1" points="1495.5,1438.292,1653.5,1438.292,1665.5,1450.292,1653.5,1462.292,1495.5,1462.292,1483.5,1450.292,1495.5,1438.292" style="stroke:#181818;stroke-width:0.5;"/><text fill="#000000" font-family="sans-serif" font-size="11" lengthAdjust="spacing" textLength="158" x="1495.5" y="1454.1001">Loop until done 'cycle' time</text><polygon fill="#F1F1F1" points="1441.5,1563.1982,1453.5,1575.1982,1441.5,1587.1982,1429.5,1575.1982,1441.5,1563.1982" style="stroke:#181818;stroke-width:0.5;"/><line style="stroke:#000000;stroke-width:1.5;" x1="1077" x2="1077" y1="50.042" y2="1966.3472"/><rect fill="#FFFFFF" height="1916.3052" style="stroke:#FFFFFF;stroke-width:1.0;" width="593" x="1804" y="50.042"/><rect fill="#F1F1F1" height="47.9375" rx="12.5" ry="12.5" style="stroke:#181818;stroke-width:0.5;" width="583" x="1810" y="523.6201"/><text fill="#000000" font-family="sans-serif" font-size="12" lengthAdjust="spacing" textLength="563" x="1820" y="544.7588">// Allocates VG structures (flags, orbit, chain_vec, data_vec,_prior_vec, trial_vec, model_vec).</text><text fill="#000000" font-family="sans-serif" font-size="12" lengthAdjust="spacing" textLength="127" x="1820" y="558.7275">alloc_vbmcmc_data()</text><line style="stroke:#000000;stroke-width:1.5;" x1="1804" x2="1804" y1="50.042" y2="1966.3472"/><rect fill="#FFFFFF" height="1916.3052" style="stroke:#FFFFFF;stroke-width:1.0;" width="481" x="2397" y="50.042"/><rect fill="#F1F1F1" height="33.9688" rx="12.5" ry="12.5" style="stroke:#181818;stroke-width:0.5;" width="129" x="2574" y="659.4951"/><text fill="#000000" font-family="sans-serif" font-size="12" lengthAdjust="spacing" textLength="109" x="2584" y="680.6338">alloc_noise_data()</text><rect fill="#F1F1F1" height="47.9375" rx="12.5" ry="12.5" style="stroke:#181818;stroke-width:0.5;" width="233" x="2522" y="713.4639"/><text fill="#000000" font-family="sans-serif" font-size="12" lengthAdjust="spacing" textLength="213" x="2532" y="734.6025">// Propagates input TDI to all mpids.</text><text fill="#000000" font-family="sans-serif" font-size="12" lengthAdjust="spacing" textLength="76" x="2532" y="748.5713">share_data()</text><rect fill="#F1F1F1" height="33.9688" rx="12.5" ry="12.5" style="stroke:#181818;stroke-width:0.5;" width="191" x="2543" y="781.4014"/><text fill="#000000" font-family="sans-serif" font-size="12" lengthAdjust="spacing" textLength="171" x="2553" y="802.54">initialize_gbmcmc_sampler()</text><rect fill="#F1F1F1" height="47.9375" rx="12.5" ry="12.5" style="stroke:#181818;stroke-width:0.5;" width="471" x="2403" y="879.3701"/><text fill="#000000" font-family="sans-serif" font-size="12" lengthAdjust="spacing" textLength="451" x="2413" y="900.5088">// Remove from TDI AE all found signals from last iteration of UCB VGB MBH</text><text fill="#000000" font-family="sans-serif" font-size="12" lengthAdjust="spacing" textLength="103" x="2413" y="914.4775">create_residual()</text><rect fill="#F1F1F1" height="47.9375" rx="12.5" ry="12.5" style="stroke:#181818;stroke-width:0.5;" width="319" x="2479" y="1159.4482"/><text fill="#000000" font-family="sans-serif" font-size="12" lengthAdjust="spacing" textLength="299" x="2489" y="1180.5869">// Keep only noise from related frequencies band</text><text fill="#000000" font-family="sans-serif" font-size="12" lengthAdjust="spacing" textLength="145" x="2489" y="1194.5557">select_noise_segment()</text><polygon fill="#F1F1F1" points="2638.5,835.3701,2650.5,847.3701,2638.5,859.3701,2626.5,847.3701,2638.5,835.3701" style="stroke:#181818;stroke-width:0.5;"/><line style="stroke:#000000;stroke-width:1.5;" x1="2397" x2="2397" y1="50.042" y2="1966.3472"/><line style="stroke:#000000;stroke-width:1.5;" x1="2878" x2="2878" y1="50.042" y2="1966.3472"/><line style="stroke:#181818;stroke-width:1.0;" x1="285" x2="285" y1="95.9951" y2="115.9951"/><polygon fill="#181818" points="281,105.9951,285,115.9951,289,105.9951,285,109.9951" style="stroke:#181818;stroke-width:1.0;"/><line style="stroke:#181818;stroke-width:1.0;" x1="285" x2="285" y1="1655.1357" y2="1675.1357"/><polygon fill="#181818" points="281,1665.1357,285,1675.1357,289,1665.1357,285,1669.1357" style="stroke:#181818;stroke-width:1.0;"/><line style="stroke:#181818;stroke-width:1.0;" x1="285" x2="285" y1="1723.0732" y2="1743.0732"/><polygon fill="#181818" points="281,1733.0732,285,1743.0732,289,1733.0732,285,1737.0732" style="stroke:#181818;stroke-width:1.0;"/><line style="stroke:#181818;stroke-width:1.0;" x1="285" x2="285" y1="1791.0107" y2="1811.0107"/><polygon fill="#181818" points="281,1801.0107,285,1811.0107,289,1801.0107,285,1805.0107" style="stroke:#181818;stroke-width:1.0;"/><line style="stroke:#181818;stroke-width:1.0;" x1="285" x2="285" y1="1858.9482" y2="1878.9482"/><polygon fill="#181818" points="281,1868.9482,285,1878.9482,289,1868.9482,285,1872.9482" style="stroke:#181818;stroke-width:1.0;"/><line style="stroke:#181818;stroke-width:1.0;" x1="285" x2="285" y1="1902.9482" y2="1944.3472"/><polygon fill="#181818" points="281,1934.3472,285,1944.3472,289,1934.3472,285,1938.3472" style="stroke:#181818;stroke-width:1.0;"/><text fill="#000000" font-family="sans-serif" font-size="11" lengthAdjust="spacing" textLength="21" x="289" y="1924.2529">yes</text><line style="stroke:#181818;stroke-width:1.0;" x1="1331.5" x2="1321.5" y1="985.6045" y2="985.6045"/><line style="stroke:#181818;stroke-width:1.0;" x1="1321.5" x2="1321.5" y1="985.6045" y2="1007.6045"/><polygon fill="#181818" points="1317.5,997.6045,1321.5,1007.6045,1325.5,997.6045,1321.5,1001.6045" style="stroke:#181818;stroke-width:1.0;"/><line style="stroke:#181818;stroke-width:1.0;" x1="1551.5" x2="1561.5" y1="985.6045" y2="985.6045"/><line style="stroke:#181818;stroke-width:1.0;" x1="1561.5" x2="1561.5" y1="985.6045" y2="1007.6045"/><polygon fill="#181818" points="1557.5,997.6045,1561.5,1007.6045,1565.5,997.6045,1561.5,1001.6045" style="stroke:#181818;stroke-width:1.0;"/><line style="stroke:#181818;stroke-width:1.0;" x1="1321.5" x2="1321.5" y1="1097.4482" y2="1115.4482"/><line style="stroke:#181818;stroke-width:1.0;" x1="1321.5" x2="1429.5" y1="1115.4482" y2="1115.4482"/><polygon fill="#181818" points="1419.5,1111.4482,1429.5,1115.4482,1419.5,1119.4482,1423.5,1115.4482" style="stroke:#181818;stroke-width:1.0;"/><line style="stroke:#181818;stroke-width:1.0;" x1="1561.5" x2="1561.5" y1="1041.5732" y2="1115.4482"/><line style="stroke:#181818;stroke-width:1.0;" x1="1561.5" x2="1453.5" y1="1115.4482" y2="1115.4482"/><polygon fill="#181818" points="1463.5,1111.4482,1453.5,1115.4482,1463.5,1119.4482,1459.5,1115.4482" style="stroke:#181818;stroke-width:1.0;"/><line style="stroke:#181818;stroke-width:1.0;" x1="1441.5" x2="1441.5" y1="1261.3545" y2="1281.3545"/><polygon fill="#181818" points="1437.5,1271.3545,1441.5,1281.3545,1445.5,1271.3545,1441.5,1275.3545" style="stroke:#181818;stroke-width:1.0;"/><line style="stroke:#181818;stroke-width:1.0;" x1="1308.5" x2="1308.5" y1="1393.3232" y2="1417.3232"/><polygon fill="#181818" points="1304.5,1407.3232,1308.5,1417.3232,1312.5,1407.3232,1308.5,1411.3232" style="stroke:#181818;stroke-width:1.0;"/><line style="stroke:#181818;stroke-width:1.0;" x1="1308.5" x2="1308.5" y1="1465.2607" y2="1476.2295"/><line style="stroke:#181818;stroke-width:1.0;" x1="1308.5" x2="1413" y1="1476.2295" y2="1476.2295"/><polygon fill="#181818" points="1409,1439.292,1413,1429.292,1417,1439.292,1413,1435.292" style="stroke:#181818;stroke-width:1.0;"/><line style="stroke:#181818;stroke-width:1.0;" x1="1413" x2="1413" y1="1381.3232" y2="1476.2295"/><line style="stroke:#181818;stroke-width:1.0;" x1="1413" x2="1399.5" y1="1381.3232" y2="1381.3232"/><polygon fill="#181818" points="1409.5,1377.3232,1399.5,1381.3232,1409.5,1385.3232,1405.5,1381.3232" style="stroke:#181818;stroke-width:1.0;"/><line style="stroke:#181818;stroke-width:1.0;" x1="1217.5" x2="1204" y1="1381.3232" y2="1381.3232"/><polygon fill="#181818" points="1200,1425.292,1204,1435.292,1208,1425.292,1204,1429.292" style="stroke:#181818;stroke-width:1.0;"/><line style="stroke:#181818;stroke-width:1.0;" x1="1204" x2="1204" y1="1381.3232" y2="1488.2295"/><line style="stroke:#181818;stroke-width:1.0;" x1="1204" x2="1308.5" y1="1488.2295" y2="1488.2295"/><line style="stroke:#181818;stroke-width:1.0;" x1="1308.5" x2="1308.5" y1="1488.2295" y2="1523.2295"/><polygon fill="#181818" points="1304.5,1513.2295,1308.5,1523.2295,1312.5,1513.2295,1308.5,1517.2295" style="stroke:#181818;stroke-width:1.0;"/><line style="stroke:#181818;stroke-width:1.0;" x1="1574.5" x2="1574.5" y1="1462.292" y2="1485.2607"/><polygon fill="#181818" points="1570.5,1475.2607,1574.5,1485.2607,1578.5,1475.2607,1574.5,1479.2607" style="stroke:#181818;stroke-width:1.0;"/><line style="stroke:#181818;stroke-width:1.0;" x1="1574.5" x2="1574.5" y1="1533.1982" y2="1545.1982"/><line style="stroke:#181818;stroke-width:1.0;" x1="1574.5" x2="1679" y1="1545.1982" y2="1545.1982"/><polygon fill="#181818" points="1675,1507.2295,1679,1497.2295,1683,1507.2295,1679,1503.2295" style="stroke:#181818;stroke-width:1.0;"/><line style="stroke:#181818;stroke-width:1.0;" x1="1679" x2="1679" y1="1450.292" y2="1545.1982"/><line style="stroke:#181818;stroke-width:1.0;" x1="1679" x2="1665.5" y1="1450.292" y2="1450.292"/><polygon fill="#181818" points="1675.5,1446.292,1665.5,1450.292,1675.5,1454.292,1671.5,1450.292" style="stroke:#181818;stroke-width:1.0;"/><line style="stroke:#181818;stroke-width:1.0;" x1="1483.5" x2="1470" y1="1450.292" y2="1450.292"/><polygon fill="#181818" points="1466,1502.2295,1470,1512.2295,1474,1502.2295,1470,1506.2295" style="stroke:#181818;stroke-width:1.0;"/><line style="stroke:#181818;stroke-width:1.0;" x1="1470" x2="1470" y1="1450.292" y2="1575.1982"/><line style="stroke:#181818;stroke-width:1.0;" x1="1470" x2="1453.5" y1="1575.1982" y2="1575.1982"/><polygon fill="#181818" points="1463.5,1571.1982,1453.5,1575.1982,1463.5,1579.1982,1459.5,1575.1982" style="stroke:#181818;stroke-width:1.0;"/><line style="stroke:#181818;stroke-width:1.0;" x1="1574.5" x2="1574.5" y1="1403.292" y2="1438.292"/><polygon fill="#181818" points="1570.5,1428.292,1574.5,1438.292,1578.5,1428.292,1574.5,1432.292" style="stroke:#181818;stroke-width:1.0;"/><line style="stroke:#181818;stroke-width:1.0;" x1="1412.5" x2="1308.5" y1="1347.3232" y2="1347.3232"/><line style="stroke:#181818;stroke-width:1.0;" x1="1308.5" x2="1308.5" y1="1347.3232" y2="1369.3232"/><polygon fill="#181818" points="1304.5,1359.3232,1308.5,1369.3232,1312.5,1359.3232,1308.5,1363.3232" style="stroke:#181818;stroke-width:1.0;"/><line style="stroke:#181818;stroke-width:1.0;" x1="1470.5" x2="1574.5" y1="1347.3232" y2="1347.3232"/><line style="stroke:#181818;stroke-width:1.0;" x1="1574.5" x2="1574.5" y1="1347.3232" y2="1369.3232"/><polygon fill="#181818" points="1570.5,1359.3232,1574.5,1369.3232,1578.5,1359.3232,1574.5,1363.3232" style="stroke:#181818;stroke-width:1.0;"/><line style="stroke:#181818;stroke-width:1.0;" x1="1308.5" x2="1308.5" y1="1557.1982" y2="1575.1982"/><line style="stroke:#181818;stroke-width:1.0;" x1="1308.5" x2="1429.5" y1="1575.1982" y2="1575.1982"/><polygon fill="#181818" points="1419.5,1571.1982,1429.5,1575.1982,1419.5,1579.1982,1423.5,1575.1982" style="stroke:#181818;stroke-width:1.0;"/><line style="stroke:#181818;stroke-width:1.0;" x1="1441.5" x2="1441.5" y1="1315.3232" y2="1335.3232"/><polygon fill="#181818" points="1437.5,1325.3232,1441.5,1335.3232,1445.5,1325.3232,1441.5,1329.3232" style="stroke:#181818;stroke-width:1.0;"/><line style="stroke:#181818;stroke-width:1.0;" x1="2638.5" x2="2638.5" y1="693.4639" y2="713.4639"/><polygon fill="#181818" points="2634.5,703.4639,2638.5,713.4639,2642.5,703.4639,2638.5,707.4639" style="stroke:#181818;stroke-width:1.0;"/><line style="stroke:#181818;stroke-width:1.0;" x1="2638.5" x2="2638.5" y1="761.4014" y2="781.4014"/><polygon fill="#181818" points="2634.5,771.4014,2638.5,781.4014,2642.5,771.4014,2638.5,775.4014" style="stroke:#181818;stroke-width:1.0;"/><line style="stroke:#181818;stroke-width:1.0;" x1="2638.5" x2="2638.5" y1="859.3701" y2="879.3701"/><polygon fill="#181818" points="2634.5,869.3701,2638.5,879.3701,2642.5,869.3701,2638.5,873.3701" style="stroke:#181818;stroke-width:1.0;"/><line style="stroke:#181818;stroke-width:1.0;" x1="2638.5" x2="2638.5" y1="815.3701" y2="835.3701"/><polygon fill="#181818" points="2634.5,825.3701,2638.5,835.3701,2642.5,825.3701,2638.5,829.3701" style="stroke:#181818;stroke-width:1.0;"/><line style="stroke:#181818;stroke-width:1.0;" x1="285" x2="285" y1="149.9639" y2="154.9639"/><line style="stroke:#181818;stroke-width:1.0;" x1="285" x2="654.5" y1="154.9639" y2="154.9639"/><line style="stroke:#181818;stroke-width:1.0;" x1="654.5" x2="654.5" y1="154.9639" y2="169.9639"/><polygon fill="#181818" points="650.5,159.9639,654.5,169.9639,658.5,159.9639,654.5,163.9639" style="stroke:#181818;stroke-width:1.0;"/><line style="stroke:#181818;stroke-width:1.0;" x1="654.5" x2="654.5" y1="217.9014" y2="222.9014"/><line style="stroke:#181818;stroke-width:1.0;" x1="654.5" x2="916.5" y1="222.9014" y2="222.9014"/><line style="stroke:#181818;stroke-width:1.0;" x1="916.5" x2="916.5" y1="222.9014" y2="237.9014"/><polygon fill="#181818" points="912.5,227.9014,916.5,237.9014,920.5,227.9014,916.5,231.9014" style="stroke:#181818;stroke-width:1.0;"/><line style="stroke:#181818;stroke-width:1.0;" x1="916.5" x2="916.5" y1="299.8076" y2="304.8076"/><line style="stroke:#181818;stroke-width:1.0;" x1="916.5" x2="654.5" y1="304.8076" y2="304.8076"/><line style="stroke:#181818;stroke-width:1.0;" x1="654.5" x2="654.5" y1="304.8076" y2="319.8076"/><polygon fill="#181818" points="650.5,309.8076,654.5,319.8076,658.5,309.8076,654.5,313.8076" style="stroke:#181818;stroke-width:1.0;"/><line style="stroke:#181818;stroke-width:1.0;" x1="654.5" x2="654.5" y1="367.7451" y2="372.7451"/><line style="stroke:#181818;stroke-width:1.0;" x1="654.5" x2="285" y1="372.7451" y2="372.7451"/><line style="stroke:#181818;stroke-width:1.0;" x1="285" x2="285" y1="372.7451" y2="387.7451"/><polygon fill="#181818" points="281,377.7451,285,387.7451,289,377.7451,285,381.7451" style="stroke:#181818;stroke-width:1.0;"/><line style="stroke:#181818;stroke-width:1.0;" x1="285" x2="285" y1="435.6826" y2="440.6826"/><line style="stroke:#181818;stroke-width:1.0;" x1="285" x2="1441.5" y1="440.6826" y2="440.6826"/><line style="stroke:#181818;stroke-width:1.0;" x1="1441.5" x2="1441.5" y1="440.6826" y2="455.6826"/><polygon fill="#181818" points="1437.5,445.6826,1441.5,455.6826,1445.5,445.6826,1441.5,449.6826" style="stroke:#181818;stroke-width:1.0;"/><line style="stroke:#181818;stroke-width:1.0;" x1="1441.5" x2="1441.5" y1="503.6201" y2="508.6201"/><line style="stroke:#181818;stroke-width:1.0;" x1="1441.5" x2="2101.5" y1="508.6201" y2="508.6201"/><line style="stroke:#181818;stroke-width:1.0;" x1="2101.5" x2="2101.5" y1="508.6201" y2="523.6201"/><polygon fill="#181818" points="2097.5,513.6201,2101.5,523.6201,2105.5,513.6201,2101.5,517.6201" style="stroke:#181818;stroke-width:1.0;"/><line style="stroke:#181818;stroke-width:1.0;" x1="2101.5" x2="2101.5" y1="571.5576" y2="576.5576"/><line style="stroke:#181818;stroke-width:1.0;" x1="2101.5" x2="916.5" y1="576.5576" y2="576.5576"/><line style="stroke:#181818;stroke-width:1.0;" x1="916.5" x2="916.5" y1="576.5576" y2="591.5576"/><polygon fill="#181818" points="912.5,581.5576,916.5,591.5576,920.5,581.5576,916.5,585.5576" style="stroke:#181818;stroke-width:1.0;"/><line style="stroke:#181818;stroke-width:1.0;" x1="916.5" x2="916.5" y1="639.4951" y2="644.4951"/><line style="stroke:#181818;stroke-width:1.0;" x1="916.5" x2="2638.5" y1="644.4951" y2="644.4951"/><line style="stroke:#181818;stroke-width:1.0;" x1="2638.5" x2="2638.5" y1="644.4951" y2="659.4951"/><polygon fill="#181818" points="2634.5,649.4951,2638.5,659.4951,2642.5,649.4951,2638.5,653.4951" style="stroke:#181818;stroke-width:1.0;"/><line style="stroke:#181818;stroke-width:1.0;" x1="2638.5" x2="2638.5" y1="927.3076" y2="937.9561"/><line style="stroke:#181818;stroke-width:1.0;" x1="2638.5" x2="1441.5" y1="937.9561" y2="937.9561"/><line style="stroke:#181818;stroke-width:1.0;" x1="1441.5" x2="1441.5" y1="937.9561" y2="973.6045"/><polygon fill="#181818" points="1437.5,963.6045,1441.5,973.6045,1445.5,963.6045,1441.5,967.6045" style="stroke:#181818;stroke-width:1.0;"/><line style="stroke:#181818;stroke-width:1.0;" x1="1441.5" x2="1441.5" y1="1127.4482" y2="1144.4482"/><line style="stroke:#181818;stroke-width:1.0;" x1="1441.5" x2="2638.5" y1="1144.4482" y2="1144.4482"/><line style="stroke:#181818;stroke-width:1.0;" x1="2638.5" x2="2638.5" y1="1144.4482" y2="1159.4482"/><polygon fill="#181818" points="2634.5,1149.4482,2638.5,1159.4482,2642.5,1149.4482,2638.5,1153.4482" style="stroke:#181818;stroke-width:1.0;"/><line style="stroke:#181818;stroke-width:1.0;" x1="2638.5" x2="2638.5" y1="1207.3857" y2="1212.3857"/><line style="stroke:#181818;stroke-width:1.0;" x1="2638.5" x2="1441.5" y1="1212.3857" y2="1212.3857"/><line style="stroke:#181818;stroke-width:1.0;" x1="1441.5" x2="1441.5" y1="1212.3857" y2="1227.3857"/><polygon fill="#181818" points="1437.5,1217.3857,1441.5,1227.3857,1445.5,1217.3857,1441.5,1221.3857" style="stroke:#181818;stroke-width:1.0;"/><line style="stroke:#181818;stroke-width:1.0;" x1="1441.5" x2="1441.5" y1="1587.1982" y2="1592.1982"/><line style="stroke:#181818;stroke-width:1.0;" x1="1441.5" x2="285" y1="1592.1982" y2="1592.1982"/><line style="stroke:#181818;stroke-width:1.0;" x1="285" x2="285" y1="1592.1982" y2="1607.1982"/><polygon fill="#181818" points="281,1597.1982,285,1607.1982,289,1597.1982,285,1601.1982" style="stroke:#181818;stroke-width:1.0;"/><line style="stroke:#181818;stroke-width:1.0;" x1="367.5" x2="2061.75" y1="1890.9482" y2="1890.9482"/><polygon fill="#181818" points="2057.75,1363.1748,2061.75,1353.1748,2065.75,1363.1748,2061.75,1359.1748" style="stroke:#181818;stroke-width:1.0;"/><line style="stroke:#181818;stroke-width:1.0;" x1="2061.75" x2="2061.75" y1="847.3701" y2="1890.9482"/><line style="stroke:#181818;stroke-width:1.0;" x1="2061.75" x2="2626.5" y1="847.3701" y2="847.3701"/><polygon fill="#181818" points="2616.5,843.3701,2626.5,847.3701,2616.5,851.3701,2620.5,847.3701" style="stroke:#181818;stroke-width:1.0;"/><text fill="#000000" font-family="sans-serif" font-size="18" lengthAdjust="spacing" textLength="98" x="235" y="66.75">GlobalFit.c</text><text fill="#000000" font-family="sans-serif" font-size="18" lengthAdjust="spacing" textLength="169" x="569" y="66.75">GalacticBinaryIO.c</text><text fill="#000000" font-family="sans-serif" font-size="18" lengthAdjust="spacing" textLength="140" x="845.5" y="66.75">MBHWrapper.c</text><text fill="#000000" font-family="sans-serif" font-size="18" lengthAdjust="spacing" textLength="232" x="1324.5" y="66.75">GalacticBinaryWrapper.c</text><text fill="#000000" font-family="sans-serif" font-size="18" lengthAdjust="spacing" textLength="266" x="1967.5" y="66.75">VerificationBinaryWrapper.h</text><text fill="#000000" font-family="sans-serif" font-size="18" lengthAdjust="spacing" textLength="149" x="2563" y="66.75">NoiseWrapper.c</text><!--SRC=[lLRVRzis47xtNt707cfZZeCcRtMpeaxRBDZI5TkQFWeKTPA8KYH7KcvTv8_VyOTiAKbJ0mFsP5ftlE-xk-zEyi9BX8-N6wW4QophO0rdy3EyBsuslyBB2-YCgE3bw5du9V_PxEwdBwtmU7SbTSdaE-5N_6xcFBD-1l3Yz1JUQViPAwYjxk3cmtLnhOIVBzOpCk_lCicu5tmZ5BExwpz2Y7JvJsILWyzAVr4dJlUMeuDQI5oHtJ3hiDYMXHJkVaIY-CaoOz0UOZbabhT53hEgc8TQzweYCraRz3cr2r1zLw85NOCK2lTGNTaMp3RkQFOVmZLWQXTBEyIvVtrSk7JljPIQCq-vxetmzvjhUFqMdBSzzxr5Hxui-1LDNL0kx4bM3ufnW0ZK3b5XNalMk2LeMmg_1DuoePOG09PWhD1siJeWbntl-6FejsX5BGX0Q3Lbq3vaS7lr8mB55daY4Kz5998UUYkOJCTELnYF8uhRxr9yJ287Ja48OrAf02qIeypFLsA44xJn2CXxBHnEOPA_2eRnZQWNgmrh8hvGfazDzpf0n0bq0S-rp4vl2feeAeBuXaD77EkCH9iTB1faOHo7cUhq5jD0PbK5W3WBu4IZc7J9AfdpG6dOsCSm3q4ijrURK9uOZrkAZ0MLI5GzandmA1K2D5RtXiRIzwQeBVxJe-Axmc7JeVBxKAA6US_BiOTXNAZcCC6l5k1RL2ITy6yHhr6keMGVUVaSweua57xOr-9vjcRZMJAU9UFPr7YUZEV9U9wDgzLgwXOtON8TZkIUZkleYfBsm5pfp7VFy5KsgqhKmocLPLh6Xp9AhVmDqO1MSWTHJwbh5YNr96pSL311SYfPt7Ea7fJ8VPRV_L8VrRM0otUStXSNOADcvg7wG3c35nq6cGGzPPb4oHYhQUMwQ5_0QRYHFRL2w4qLH7HVkybduFO2lz8gKCt1B-xnWbOgw-9A7iGIkh9N16vH3UMcv8Zr_7Uj3VJA2mbLW7yMitcMo6NNbERDvStb_i5tMAwp0tKknXzQUnJTf0jT7HHnrBN_CvL1crE1JDzP2U8lSdN3HebA3AsdzMKr2JzBO9dwaeGQdkVrfhGw6Ia5NPgnjEmoqRZVzs9DguoZsE8KTGmtZX9Mz1CXqWH5XwVZfDdvZsIs3rDAQtfexTKcj8pUGMZ29uyIhiKWQ-728WdDFVbbXsvDtrhQ_0i0]--></g></svg>