<?xml version="1.0" encoding="UTF-8" standalone="no"?><svg xmlns="http://www.w3.org/2000/svg" xmlns:xlink="http://www.w3.org/1999/xlink" contentStyleType="text/css" height="922px" preserveAspectRatio="none" style="width:1371px;height:922px;background:#FFFFFF;" version="1.1" viewBox="0 0 1371 922" width="1371px" zoomAndPan="magnify"><defs/><g><text fill="#000000" font-family="sans-serif" font-size="14" font-weight="bold" lengthAdjust="spacing" textLength="312" x="528" y="32.9951">MBH diagram ; 2 &lt;= mpid &lt; 2 + N_MBH</text><rect fill="none" height="20.9531" style="stroke:none;stroke-width:1.0;" width="1338" x="15" y="50.042"/><rect fill="#F5DEB3" height="860.8208" style="stroke:#F5DEB3;stroke-width:1.0;" width="609" x="15" y="50.042"/><ellipse cx="334" cy="85.9951" fill="#222222" rx="10" ry="10" style="stroke:#222222;stroke-width:1.0;"/><rect fill="#F1F1F1" height="33.9688" rx="12.5" ry="12.5" style="stroke:#181818;stroke-width:0.5;" width="163" x="252.5" y="115.9951"/><text fill="#000000" font-family="sans-serif" font-size="12" lengthAdjust="spacing" textLength="143" x="262.5" y="137.1338">// Forked from MPI_Init()</text><rect fill="#F1F1F1" height="61.9063" rx="12.5" ry="12.5" style="stroke:#181818;stroke-width:0.5;" width="147" x="260.5" y="251.8701"/><text fill="#000000" font-family="sans-serif" font-size="12" lengthAdjust="spacing" textLength="109" x="270.5" y="273.0088">alloc_noise_data()</text><text fill="#000000" font-family="sans-serif" font-size="12" lengthAdjust="spacing" textLength="127" x="270.5" y="286.9775">alloc_vbmcmc_data()</text><text fill="#000000" font-family="sans-serif" font-size="12" lengthAdjust="spacing" textLength="102" x="270.5" y="300.9463">alloc_mbh_data()</text><rect fill="#F1F1F1" height="47.9375" rx="12.5" ry="12.5" style="stroke:#181818;stroke-width:0.5;" width="478" x="95" y="377.7764"/><text fill="#000000" font-family="sans-serif" font-size="12" lengthAdjust="spacing" textLength="458" x="105" y="398.915">// Remove from TDI AET all found signals from last iteration of UCB VGB MBH</text><text fill="#000000" font-family="sans-serif" font-size="12" lengthAdjust="spacing" textLength="103" x="105" y="412.8838">create_residual()</text><rect fill="#F1F1F1" height="47.9375" rx="12.5" ry="12.5" style="stroke:#181818;stroke-width:0.5;" width="572" x="48" y="755.5264"/><text fill="#000000" font-family="sans-serif" font-size="12" lengthAdjust="spacing" textLength="552" x="58" y="776.665">// Sends TDI AE from MBH to root process, then from root to all processes (including MBH).</text><text fill="#000000" font-family="sans-serif" font-size="12" lengthAdjust="spacing" textLength="120" x="58" y="790.6338">share_mbh_model()</text><polygon fill="#F1F1F1" points="334,333.7764,346,345.7764,334,357.7764,322,345.7764,334,333.7764" style="stroke:#181818;stroke-width:0.5;"/><polygon fill="#F1F1F1" points="263.5,823.4639,404.5,823.4639,416.5,835.4639,404.5,847.4639,263.5,847.4639,251.5,835.4639,263.5,823.4639" style="stroke:#181818;stroke-width:0.5;"/><text fill="#000000" font-family="sans-serif" font-size="11" lengthAdjust="spacing" textLength="141" x="263.5" y="839.272">GBMCMC steps finished?</text><text fill="#000000" font-family="sans-serif" font-size="11" lengthAdjust="spacing" textLength="14" x="416.5" y="832.8696">no</text><ellipse cx="334" cy="899.8628" fill="none" rx="11" ry="11" style="stroke:#222222;stroke-width:1.0;"/><ellipse cx="334" cy="899.8628" fill="#222222" rx="6" ry="6" style="stroke:#111111;stroke-width:1.0;"/><line style="stroke:#000000;stroke-width:1.5;" x1="15" x2="15" y1="50.042" y2="910.8628"/><rect fill="#F0F8FF" height="860.8208" style="stroke:#F0F8FF;stroke-width:1.0;" width="727" x="624" y="50.042"/><rect fill="#F1F1F1" height="61.9063" rx="12.5" ry="12.5" style="stroke:#181818;stroke-width:0.5;" width="202" x="887.5" y="169.9639"/><text fill="#000000" font-family="sans-serif" font-size="12" lengthAdjust="spacing" textLength="168" x="897.5" y="191.1025">// search_sources.dat found</text><text fill="#000000" font-family="sans-serif" font-size="12" lengthAdjust="spacing" textLength="182" x="897.5" y="205.0713">// get N_MBH = number of line</text><text fill="#000000" font-family="sans-serif" font-size="12" lengthAdjust="spacing" textLength="110" x="897.5" y="219.04">parse_mbh_args()</text><rect fill="#F1F1F1" height="33.9688" rx="12.5" ry="12.5" style="stroke:#181818;stroke-width:0.5;" width="158" x="909.5" y="445.7139"/><text fill="#000000" font-family="sans-serif" font-size="12" lengthAdjust="spacing" textLength="138" x="919.5" y="466.8525">select_mbh_segment()</text><rect fill="#F1F1F1" height="47.9375" rx="12.5" ry="12.5" style="stroke:#181818;stroke-width:0.5;" width="319" x="829" y="499.6826"/><text fill="#000000" font-family="sans-serif" font-size="12" lengthAdjust="spacing" textLength="299" x="839" y="520.8213">// Keep only noise from related frequencies band</text><text fill="#000000" font-family="sans-serif" font-size="12" lengthAdjust="spacing" textLength="118" x="839" y="534.79">select_mbh_noise()</text><rect fill="#F1F1F1" height="33.9688" rx="12.5" ry="12.5" style="stroke:#181818;stroke-width:0.5;" width="717" x="630" y="567.6201"/><text fill="#000000" font-family="sans-serif" font-size="12" lengthAdjust="spacing" textLength="697" x="640" y="588.7588">// cycle = round ( the max time of all VGB MBH UCB process time) / ( time of one update_gbmcmc_sampler() time )</text><rect fill="#F1F1F1" height="47.9375" rx="12.5" ry="12.5" style="stroke:#181818;stroke-width:0.5;" width="159" x="909" y="665.5889"/><text fill="#000000" font-family="sans-serif" font-size="12" lengthAdjust="spacing" textLength="48" x="919" y="686.7275">// MCMC</text><text fill="#000000" font-family="sans-serif" font-size="12" lengthAdjust="spacing" textLength="139" x="919" y="700.6963">update_mbh_sampler()</text><polygon fill="#F1F1F1" points="909.5,621.5889,1067.5,621.5889,1079.5,633.5889,1067.5,645.5889,909.5,645.5889,897.5,633.5889,909.5,621.5889" style="stroke:#181818;stroke-width:0.5;"/><text fill="#000000" font-family="sans-serif" font-size="11" lengthAdjust="spacing" textLength="158" x="909.5" y="637.397">Loop until done 'cycle' time</text><line style="stroke:#000000;stroke-width:1.5;" x1="624" x2="624" y1="50.042" y2="910.8628"/><line style="stroke:#000000;stroke-width:1.5;" x1="1351" x2="1351" y1="50.042" y2="910.8628"/><line style="stroke:#181818;stroke-width:1.0;" x1="334" x2="334" y1="95.9951" y2="115.9951"/><polygon fill="#181818" points="330,105.9951,334,115.9951,338,105.9951,334,109.9951" style="stroke:#181818;stroke-width:1.0;"/><line style="stroke:#181818;stroke-width:1.0;" x1="334" x2="334" y1="357.7764" y2="377.7764"/><polygon fill="#181818" points="330,367.7764,334,377.7764,338,367.7764,334,371.7764" style="stroke:#181818;stroke-width:1.0;"/><line style="stroke:#181818;stroke-width:1.0;" x1="251.5" x2="34" y1="835.4639" y2="835.4639"/><polygon fill="#181818" points="30,596.1201,34,586.1201,38,596.1201,34,592.1201" style="stroke:#181818;stroke-width:1.0;"/><line style="stroke:#181818;stroke-width:1.0;" x1="34" x2="34" y1="345.7764" y2="835.4639"/><line style="stroke:#181818;stroke-width:1.0;" x1="34" x2="322" y1="345.7764" y2="345.7764"/><polygon fill="#181818" points="312,341.7764,322,345.7764,312,349.7764,316,345.7764" style="stroke:#181818;stroke-width:1.0;"/><line style="stroke:#181818;stroke-width:1.0;" x1="334" x2="334" y1="803.4639" y2="823.4639"/><polygon fill="#181818" points="330,813.4639,334,823.4639,338,813.4639,334,817.4639" style="stroke:#181818;stroke-width:1.0;"/><line style="stroke:#181818;stroke-width:1.0;" x1="334" x2="334" y1="313.7764" y2="333.7764"/><polygon fill="#181818" points="330,323.7764,334,333.7764,338,323.7764,334,327.7764" style="stroke:#181818;stroke-width:1.0;"/><line style="stroke:#181818;stroke-width:1.0;" x1="334" x2="334" y1="847.4639" y2="888.8628"/><polygon fill="#181818" points="330,878.8628,334,888.8628,338,878.8628,334,882.8628" style="stroke:#181818;stroke-width:1.0;"/><text fill="#000000" font-family="sans-serif" font-size="11" lengthAdjust="spacing" textLength="21" x="338" y="868.7686">yes</text><line style="stroke:#181818;stroke-width:1.0;" x1="988.5" x2="988.5" y1="479.6826" y2="499.6826"/><polygon fill="#181818" points="984.5,489.6826,988.5,499.6826,992.5,489.6826,988.5,493.6826" style="stroke:#181818;stroke-width:1.0;"/><line style="stroke:#181818;stroke-width:1.0;" x1="988.5" x2="988.5" y1="547.6201" y2="567.6201"/><polygon fill="#181818" points="984.5,557.6201,988.5,567.6201,992.5,557.6201,988.5,561.6201" style="stroke:#181818;stroke-width:1.0;"/><line style="stroke:#181818;stroke-width:1.0;" x1="988.5" x2="988.5" y1="645.5889" y2="665.5889"/><polygon fill="#181818" points="984.5,655.5889,988.5,665.5889,992.5,655.5889,988.5,659.5889" style="stroke:#181818;stroke-width:1.0;"/><line style="stroke:#181818;stroke-width:1.0;" x1="988.5" x2="988.5" y1="713.5264" y2="723.5264"/><line style="stroke:#181818;stroke-width:1.0;" x1="988.5" x2="1091.5" y1="723.5264" y2="723.5264"/><polygon fill="#181818" points="1087.5,687.5576,1091.5,677.5576,1095.5,687.5576,1091.5,683.5576" style="stroke:#181818;stroke-width:1.0;"/><line style="stroke:#181818;stroke-width:1.0;" x1="1091.5" x2="1091.5" y1="633.5889" y2="723.5264"/><line style="stroke:#181818;stroke-width:1.0;" x1="1091.5" x2="1079.5" y1="633.5889" y2="633.5889"/><polygon fill="#181818" points="1089.5,629.5889,1079.5,633.5889,1089.5,637.5889,1085.5,633.5889" style="stroke:#181818;stroke-width:1.0;"/><line style="stroke:#181818;stroke-width:1.0;" x1="897.5" x2="885.5" y1="633.5889" y2="633.5889"/><polygon fill="#181818" points="881.5,682.3076,885.5,692.3076,889.5,682.3076,885.5,686.3076" style="stroke:#181818;stroke-width:1.0;"/><line style="stroke:#181818;stroke-width:1.0;" x1="885.5" x2="885.5" y1="633.5889" y2="740.5264"/><line style="stroke:#181818;stroke-width:1.0;" x1="885.5" x2="334" y1="740.5264" y2="740.5264"/><line style="stroke:#181818;stroke-width:1.0;" x1="334" x2="334" y1="740.5264" y2="755.5264"/><polygon fill="#181818" points="330,745.5264,334,755.5264,338,745.5264,334,749.5264" style="stroke:#181818;stroke-width:1.0;"/><line style="stroke:#181818;stroke-width:1.0;" x1="988.5" x2="988.5" y1="601.5889" y2="621.5889"/><polygon fill="#181818" points="984.5,611.5889,988.5,621.5889,992.5,611.5889,988.5,615.5889" style="stroke:#181818;stroke-width:1.0;"/><line style="stroke:#181818;stroke-width:1.0;" x1="334" x2="334" y1="149.9639" y2="154.9639"/><line style="stroke:#181818;stroke-width:1.0;" x1="334" x2="988.5" y1="154.9639" y2="154.9639"/><line style="stroke:#181818;stroke-width:1.0;" x1="988.5" x2="988.5" y1="154.9639" y2="169.9639"/><polygon fill="#181818" points="984.5,159.9639,988.5,169.9639,992.5,159.9639,988.5,163.9639" style="stroke:#181818;stroke-width:1.0;"/><line style="stroke:#181818;stroke-width:1.0;" x1="988.5" x2="988.5" y1="231.8701" y2="236.8701"/><line style="stroke:#181818;stroke-width:1.0;" x1="988.5" x2="334" y1="236.8701" y2="236.8701"/><line style="stroke:#181818;stroke-width:1.0;" x1="334" x2="334" y1="236.8701" y2="251.8701"/><polygon fill="#181818" points="330,241.8701,334,251.8701,338,241.8701,334,245.8701" style="stroke:#181818;stroke-width:1.0;"/><line style="stroke:#181818;stroke-width:1.0;" x1="334" x2="334" y1="425.7139" y2="430.7139"/><line style="stroke:#181818;stroke-width:1.0;" x1="334" x2="988.5" y1="430.7139" y2="430.7139"/><line style="stroke:#181818;stroke-width:1.0;" x1="988.5" x2="988.5" y1="430.7139" y2="445.7139"/><polygon fill="#181818" points="984.5,435.7139,988.5,445.7139,992.5,435.7139,988.5,439.7139" style="stroke:#181818;stroke-width:1.0;"/><text fill="#000000" font-family="sans-serif" font-size="18" lengthAdjust="spacing" textLength="98" x="270.5" y="66.75">GlobalFit.c</text><text fill="#000000" font-family="sans-serif" font-size="18" lengthAdjust="spacing" textLength="140" x="917.5" y="66.75">MBHWrapper.c</text><!--SRC=[RL9DZzCm5BptLpo9moO2MeaZtO8sXIqL525Ou1WvzcjYuIziPvTA_V7xR2TeT-6MU3ppPiOlogWG3iq749BrdcbOmokut81sKi0bVJ-7potXYyNvsTs0B9vtodPCNSkuvET5YCp71S3hrGgkhV-50exUQZXysRTx8sDLhnS4prmI-kcPS-WJkT02Ci-7DjZHSmnBmI8SxMW4mOJs68i1s80PTOSUx16KD4YuOpvWgxkXPRuFUTP_NT8WffJbhR6I23I2LJMTbiFRJdFDdvucrNAK4tXq94iVnVHNrFOMIzQRTtkuUd-JUCKv1DaRfaA15GiHP4JFehGckV- -RU37hacrPq7kIHfRZq6AaQbfOchjIacEZHhnd-R8Ha25F6QZ0NkD9lvb9eiV4HrOeqwGKnSp7XMDIe-4lqSqN6A0ZkMo0Hu8PieZENxYj2aRy3bX1N50qEmFHAanXKhffr0veFEMdZDal8PLOamthK4OdKYH-r9zODefz5LTxinZxmP98wjFrZeOJPGAHE9UP2iNHJbVB0uFsyDs-ftaSpMpzZfZQ4IMVRYLJtU5jBxHlJ2zxBJHb2jQYc_ZdEr5Ai5CnQPpmbCD4qpLLj9mDGff-iIlbwGU1kQBCsq5gaVhDIVUDIaBX8YEbaWQ6GOKRskGf6XiolpopGa3CKEqxXu0]--></g></svg>