<?xml version="1.0" encoding="UTF-8" standalone="no"?><svg xmlns="http://www.w3.org/2000/svg" xmlns:xlink="http://www.w3.org/1999/xlink" contentStyleType="text/css" height="2006px" preserveAspectRatio="none" style="width:3513px;height:2006px;background:#FFFFFF;" version="1.1" viewBox="0 0 3513 2006" width="3513px" zoomAndPan="magnify"><defs/><g><text fill="#000000" font-family="sans-serif" font-size="14" font-weight="bold" lengthAdjust="spacing" textLength="454" x="1528.125" y="32.9951">UCB diagram ; 2 + N_MBH &lt;= mpid &lt; 2 + N_MBH + N_UCB</text><rect fill="none" height="20.9531" style="stroke:none;stroke-width:1.0;" width="3480.25" x="15" y="50.042"/><rect fill="#FFFFFF" height="1944.2427" style="stroke:#FFFFFF;stroke-width:1.0;" width="538" x="15" y="50.042"/><ellipse cx="285" cy="85.9951" fill="#222222" rx="10" ry="10" style="stroke:#222222;stroke-width:1.0;"/><rect fill="#F1F1F1" height="33.9688" rx="12.5" ry="12.5" style="stroke:#181818;stroke-width:0.5;" width="163" x="203.5" y="115.9951"/><text fill="#000000" font-family="sans-serif" font-size="12" lengthAdjust="spacing" textLength="143" x="213.5" y="137.1338">// Forked from MPI_Init()</text><rect fill="#F1F1F1" height="47.9375" rx="12.5" ry="12.5" style="stroke:#181818;stroke-width:0.5;" width="250" x="160" y="387.7451"/><text fill="#000000" font-family="sans-serif" font-size="12" lengthAdjust="spacing" textLength="230" x="170" y="408.8838">// Allocates GlobalFit TDI AE structures</text><text fill="#000000" font-family="sans-serif" font-size="12" lengthAdjust="spacing" textLength="88" x="170" y="422.8525">alloc_gf_data()</text><rect fill="#F1F1F1" height="47.9375" rx="12.5" ry="12.5" style="stroke:#181818;stroke-width:0.5;" width="528" x="21" y="1635.1357"/><text fill="#000000" font-family="sans-serif" font-size="12" lengthAdjust="spacing" textLength="508" x="31" y="1656.2744">// Sends TDI AE from UCB to root process, then from root to all non-UCB processes.</text><text fill="#000000" font-family="sans-serif" font-size="12" lengthAdjust="spacing" textLength="146" x="31" y="1670.2432">share_gbmcmc_model()</text><rect fill="#F1F1F1" height="47.9375" rx="12.5" ry="12.5" style="stroke:#181818;stroke-width:0.5;" width="247" x="161.5" y="1703.0732"/><text fill="#000000" font-family="sans-serif" font-size="12" lengthAdjust="spacing" textLength="227" x="171.5" y="1724.2119">// Receives TDI AE from root process.</text><text fill="#000000" font-family="sans-serif" font-size="12" lengthAdjust="spacing" textLength="120" x="171.5" y="1738.1807">share_mbh_model()</text><rect fill="#F1F1F1" height="47.9375" rx="12.5" ry="12.5" style="stroke:#181818;stroke-width:0.5;" width="284" x="143" y="1771.0107"/><text fill="#000000" font-family="sans-serif" font-size="12" lengthAdjust="spacing" textLength="264" x="153" y="1792.1494">// Receives noise model from root process.</text><text fill="#000000" font-family="sans-serif" font-size="12" lengthAdjust="spacing" textLength="127" x="153" y="1806.1182">share_noise_model()</text><rect fill="#F1F1F1" height="47.9375" rx="12.5" ry="12.5" style="stroke:#181818;stroke-width:0.5;" width="247" x="161.5" y="1838.9482"/><text fill="#000000" font-family="sans-serif" font-size="12" lengthAdjust="spacing" textLength="227" x="171.5" y="1860.0869">// Receives TDI AE from root process.</text><text fill="#000000" font-family="sans-serif" font-size="12" lengthAdjust="spacing" textLength="145" x="171.5" y="1874.0557">share_vbmcmc_model()</text><polygon fill="#F1F1F1" points="214.5,1906.8857,355.5,1906.8857,367.5,1918.8857,355.5,1930.8857,214.5,1930.8857,202.5,1918.8857,214.5,1906.8857" style="stroke:#181818;stroke-width:0.5;"/><text fill="#000000" font-family="sans-serif" font-size="11" lengthAdjust="spacing" textLength="141" x="214.5" y="1922.6938">GBMCMC steps finished?</text><text fill="#000000" font-family="sans-serif" font-size="11" lengthAdjust="spacing" textLength="14" x="367.5" y="1916.2915">no</text><ellipse cx="285" cy="1983.2847" fill="none" rx="11" ry="11" style="stroke:#222222;stroke-width:1.0;"/><ellipse cx="285" cy="1983.2847" fill="#222222" rx="6" ry="6" style="stroke:#111111;stroke-width:1.0;"/><line style="stroke:#000000;stroke-width:1.5;" x1="15" x2="15" y1="50.042" y2="1994.2847"/><rect fill="#FFFFFF" height="1944.2427" style="stroke:#FFFFFF;stroke-width:1.0;" width="201" x="553" y="50.042"/><rect fill="#F1F1F1" height="47.9375" rx="12.5" ry="12.5" style="stroke:#181818;stroke-width:0.5;" width="191" x="559" y="169.9639"/><text fill="#000000" font-family="sans-serif" font-size="12" lengthAdjust="spacing" textLength="171" x="569" y="191.1025">// Reads known-sources file.</text><text fill="#000000" font-family="sans-serif" font-size="12" lengthAdjust="spacing" textLength="89" x="569" y="205.0713">parse_vb_list()</text><rect fill="#F1F1F1" height="47.9375" rx="12.5" ry="12.5" style="stroke:#181818;stroke-width:0.5;" width="119" x="595" y="319.8076"/><text fill="#000000" font-family="sans-serif" font-size="12" lengthAdjust="spacing" textLength="99" x="605" y="340.9463">// Parse any UCB</text><text fill="#000000" font-family="sans-serif" font-size="12" lengthAdjust="spacing" textLength="45" x="605" y="354.915">parse()</text><line style="stroke:#000000;stroke-width:1.5;" x1="553" x2="553" y1="50.042" y2="1994.2847"/><rect fill="#FFFFFF" height="1944.2427" style="stroke:#FFFFFF;stroke-width:1.0;" width="323" x="754" y="50.042"/><rect fill="#F1F1F1" height="61.9063" rx="12.5" ry="12.5" style="stroke:#181818;stroke-width:0.5;" width="202" x="815.5" y="237.9014"/><text fill="#000000" font-family="sans-serif" font-size="12" lengthAdjust="spacing" textLength="168" x="825.5" y="259.04">// search_sources.dat found</text><text fill="#000000" font-family="sans-serif" font-size="12" lengthAdjust="spacing" textLength="182" x="825.5" y="273.0088">// get N_MBH = number of line</text><text fill="#000000" font-family="sans-serif" font-size="12" lengthAdjust="spacing" textLength="110" x="825.5" y="286.9775">parse_mbh_args()</text><rect fill="#F1F1F1" height="47.9375" rx="12.5" ry="12.5" style="stroke:#181818;stroke-width:0.5;" width="313" x="760" y="591.5576"/><text fill="#000000" font-family="sans-serif" font-size="12" lengthAdjust="spacing" textLength="293" x="770" y="612.6963">// Allocates MBH structures (data, het, flags, tdi).</text><text fill="#000000" font-family="sans-serif" font-size="12" lengthAdjust="spacing" textLength="102" x="770" y="626.665">alloc_mbh_data()</text><line style="stroke:#000000;stroke-width:1.5;" x1="754" x2="754" y1="50.042" y2="1994.2847"/><rect fill="#FFFFFF" height="1944.2427" style="stroke:#FFFFFF;stroke-width:1.0;" width="1342.25" x="1077" y="50.042"/><rect fill="#F1F1F1" height="47.9375" rx="12.5" ry="12.5" style="stroke:#181818;stroke-width:0.5;" width="373" x="1616.75" y="455.6826"/><text fill="#000000" font-family="sans-serif" font-size="12" lengthAdjust="spacing" textLength="353" x="1626.75" y="476.8213">// Allocates UCB structures (flags, orbit, chain, data, prior).</text><text fill="#000000" font-family="sans-serif" font-size="12" lengthAdjust="spacing" textLength="128" x="1626.75" y="490.79">alloc_gbmcmc_data()</text><rect fill="none" height="202.1406" style="stroke:#000000;stroke-width:1.5;" width="1018" x="1397.25" y="937.3076"/><path d="M1613.25,937.3076 L1613.25,946.6045 L1603.25,956.6045 L1397.25,956.6045 " fill="none" style="stroke:#000000;stroke-width:1.5;"/><text fill="#000000" font-family="sans-serif" font-size="14" lengthAdjust="spacing" textLength="206" x="1400.25" y="951.3027">setup_frequency_segment();</text><polygon fill="#F1F1F1" points="1705.25,973.6045,1901.25,973.6045,1913.25,985.6045,1901.25,997.6045,1705.25,997.6045,1693.25,985.6045,1705.25,973.6045" style="stroke:#181818;stroke-width:0.5;"/><text fill="#000000" font-family="sans-serif" font-size="11" lengthAdjust="spacing" textLength="196" x="1705.25" y="989.4126">ucb_frequency_spacing.dat found?</text><text fill="#000000" font-family="sans-serif" font-size="11" lengthAdjust="spacing" textLength="32" x="1661.25" y="983.0103">found</text><text fill="#000000" font-family="sans-serif" font-size="11" lengthAdjust="spacing" textLength="54" x="1913.25" y="983.0103">not found</text><rect fill="#F1F1F1" height="89.8438" rx="12.5" ry="12.5" style="stroke:#181818;stroke-width:0.5;" width="269" x="1417.25" y="1007.6045"/><text fill="#000000" font-family="sans-serif" font-size="12" lengthAdjust="spacing" textLength="149" x="1427.25" y="1028.7432">mpidUcb1 fmin_1 fmax_1</text><text fill="#000000" font-family="sans-serif" font-size="12" lengthAdjust="spacing" textLength="152" x="1427.25" y="1042.7119">mpidUcb2 fmin_2 fmax_2</text><text fill="#000000" font-family="sans-serif" font-size="12" lengthAdjust="spacing" textLength="152" x="1427.25" y="1056.6807">mpidUcb3 fmin_3 fmax_3</text><text fill="#000000" font-family="sans-serif" font-size="12" lengthAdjust="spacing" textLength="9" x="1427.25" y="1070.6494">...</text><text fill="#000000" font-family="sans-serif" font-size="12" lengthAdjust="spacing" textLength="245" x="1427.25" y="1084.6182">mpidUcbN_UCB fmin_N_UCB fmax_N_UCB</text><rect fill="#F1F1F1" height="33.9688" rx="12.5" ry="12.5" style="stroke:#181818;stroke-width:0.5;" width="697" x="1706.25" y="1007.6045"/><text fill="#000000" font-family="sans-serif" font-size="12" lengthAdjust="spacing" textLength="677" x="1716.25" y="1028.7432">// With given global fmin as input and some magical formulas, we determine the fmin and fmax for each process</text><polygon fill="#F1F1F1" points="1803.25,1103.4482,1815.25,1115.4482,1803.25,1127.4482,1791.25,1115.4482,1803.25,1103.4482" style="stroke:#181818;stroke-width:0.5;"/><rect fill="#F1F1F1" height="33.9688" rx="12.5" ry="12.5" style="stroke:#181818;stroke-width:0.5;" width="717" x="1444.75" y="1227.3857"/><text fill="#000000" font-family="sans-serif" font-size="12" lengthAdjust="spacing" textLength="697" x="1454.75" y="1248.5244">// cycle = round ( the max time of all VGB MBH UCB process time) / ( time of one update_gbmcmc_sampler() time )</text><rect fill="#F1F1F1" height="47.9375" rx="12.5" ry="12.5" style="stroke:#181818;stroke-width:0.5;" width="865" x="1370.75" y="1281.3545"/><text fill="#000000" font-family="sans-serif" font-size="12" lengthAdjust="spacing" textLength="845" x="1380.75" y="1302.4932">// This exchange is almost like a synchronization point of all UCB processes. Each one of them waits for left and right neighbor to send data.</text><text fill="#000000" font-family="sans-serif" font-size="12" lengthAdjust="spacing" textLength="226" x="1380.75" y="1316.4619">exchange_gbmcmc_source_params()</text><polygon fill="#F1F1F1" points="1786.25,1349.292,1820.25,1349.292,1832.25,1361.292,1820.25,1373.292,1786.25,1373.292,1774.25,1361.292,1786.25,1349.292" style="stroke:#181818;stroke-width:0.5;"/><text fill="#000000" font-family="sans-serif" font-size="11" lengthAdjust="spacing" textLength="34" x="1786.25" y="1365.1001">mpid?</text><text fill="#000000" font-family="sans-serif" font-size="11" lengthAdjust="spacing" textLength="30" x="1744.25" y="1358.6978">even</text><text fill="#000000" font-family="sans-serif" font-size="11" lengthAdjust="spacing" textLength="21" x="1832.25" y="1358.6978">odd</text><rect fill="#F1F1F1" height="47.9375" rx="12.5" ry="12.5" style="stroke:#181818;stroke-width:0.5;" width="185" x="1423" y="1431.292"/><text fill="#000000" font-family="sans-serif" font-size="12" lengthAdjust="spacing" textLength="48" x="1433" y="1452.4307">// MCMC</text><text fill="#000000" font-family="sans-serif" font-size="12" lengthAdjust="spacing" textLength="165" x="1433" y="1466.3994">update_gbmcmc_sampler()</text><polygon fill="#F1F1F1" points="1436.5,1383.292,1594.5,1383.292,1606.5,1395.292,1594.5,1407.292,1436.5,1407.292,1424.5,1395.292,1436.5,1383.292" style="stroke:#181818;stroke-width:0.5;"/><text fill="#000000" font-family="sans-serif" font-size="11" lengthAdjust="spacing" textLength="158" x="1436.5" y="1399.1001">Loop until done 'cycle' time</text><rect fill="#F1F1F1" height="47.9375" rx="12.5" ry="12.5" style="stroke:#181818;stroke-width:0.5;" width="865" x="1083" y="1537.1982"/><text fill="#000000" font-family="sans-serif" font-size="12" lengthAdjust="spacing" textLength="845" x="1093" y="1558.3369">// This exchange is almost like a synchronization point of all UCB processes. Each one of them waits for left and right neighbor to send data.</text><text fill="#000000" font-family="sans-serif" font-size="12" lengthAdjust="spacing" textLength="226" x="1093" y="1572.3057">exchange_gbmcmc_source_params()</text><rect fill="#F1F1F1" height="33.9688" rx="12.5" ry="12.5" style="stroke:#181818;stroke-width:0.5;" width="246" x="1968" y="1383.292"/><text fill="#000000" font-family="sans-serif" font-size="12" lengthAdjust="spacing" textLength="226" x="1978" y="1404.4307">exchange_gbmcmc_source_params()</text><rect fill="#F1F1F1" height="47.9375" rx="12.5" ry="12.5" style="stroke:#181818;stroke-width:0.5;" width="185" x="1998.5" y="1499.2295"/><text fill="#000000" font-family="sans-serif" font-size="12" lengthAdjust="spacing" textLength="48" x="2008.5" y="1520.3682">// MCMC</text><text fill="#000000" font-family="sans-serif" font-size="12" lengthAdjust="spacing" textLength="165" x="2008.5" y="1534.3369">update_gbmcmc_sampler()</text><polygon fill="#F1F1F1" points="2012,1452.2607,2170,1452.2607,2182,1464.2607,2170,1476.2607,2012,1476.2607,2000,1464.2607,2012,1452.2607" style="stroke:#181818;stroke-width:0.5;"/><text fill="#000000" font-family="sans-serif" font-size="11" lengthAdjust="spacing" textLength="158" x="2012" y="1468.0688">Loop until done 'cycle' time</text><polygon fill="#F1F1F1" points="1803.25,1591.1357,1815.25,1603.1357,1803.25,1615.1357,1791.25,1603.1357,1803.25,1591.1357" style="stroke:#181818;stroke-width:0.5;"/><line style="stroke:#000000;stroke-width:1.5;" x1="1077" x2="1077" y1="50.042" y2="1994.2847"/><rect fill="#FFFFFF" height="1944.2427" style="stroke:#FFFFFF;stroke-width:1.0;" width="593" x="2419.25" y="50.042"/><rect fill="#F1F1F1" height="47.9375" rx="12.5" ry="12.5" style="stroke:#181818;stroke-width:0.5;" width="583" x="2425.25" y="523.6201"/><text fill="#000000" font-family="sans-serif" font-size="12" lengthAdjust="spacing" textLength="563" x="2435.25" y="544.7588">// Allocates VG structures (flags, orbit, chain_vec, data_vec,_prior_vec, trial_vec, model_vec).</text><text fill="#000000" font-family="sans-serif" font-size="12" lengthAdjust="spacing" textLength="127" x="2435.25" y="558.7275">alloc_vbmcmc_data()</text><line style="stroke:#000000;stroke-width:1.5;" x1="2419.25" x2="2419.25" y1="50.042" y2="1994.2847"/><rect fill="#FFFFFF" height="1944.2427" style="stroke:#FFFFFF;stroke-width:1.0;" width="481" x="3012.25" y="50.042"/><rect fill="#F1F1F1" height="33.9688" rx="12.5" ry="12.5" style="stroke:#181818;stroke-width:0.5;" width="129" x="3189.25" y="659.4951"/><text fill="#000000" font-family="sans-serif" font-size="12" lengthAdjust="spacing" textLength="109" x="3199.25" y="680.6338">alloc_noise_data()</text><rect fill="#F1F1F1" height="47.9375" rx="12.5" ry="12.5" style="stroke:#181818;stroke-width:0.5;" width="233" x="3137.25" y="713.4639"/><text fill="#000000" font-family="sans-serif" font-size="12" lengthAdjust="spacing" textLength="213" x="3147.25" y="734.6025">// Propagates input TDI to all mpids.</text><text fill="#000000" font-family="sans-serif" font-size="12" lengthAdjust="spacing" textLength="76" x="3147.25" y="748.5713">share_data()</text><rect fill="#F1F1F1" height="33.9688" rx="12.5" ry="12.5" style="stroke:#181818;stroke-width:0.5;" width="191" x="3158.25" y="781.4014"/><text fill="#000000" font-family="sans-serif" font-size="12" lengthAdjust="spacing" textLength="171" x="3168.25" y="802.54">initialize_gbmcmc_sampler()</text><rect fill="#F1F1F1" height="47.9375" rx="12.5" ry="12.5" style="stroke:#181818;stroke-width:0.5;" width="471" x="3018.25" y="879.3701"/><text fill="#000000" font-family="sans-serif" font-size="12" lengthAdjust="spacing" textLength="451" x="3028.25" y="900.5088">// Remove from TDI AE all found signals from last iteration of UCB VGB MBH</text><text fill="#000000" font-family="sans-serif" font-size="12" lengthAdjust="spacing" textLength="103" x="3028.25" y="914.4775">create_residual()</text><rect fill="#F1F1F1" height="47.9375" rx="12.5" ry="12.5" style="stroke:#181818;stroke-width:0.5;" width="319" x="3094.25" y="1159.4482"/><text fill="#000000" font-family="sans-serif" font-size="12" lengthAdjust="spacing" textLength="299" x="3104.25" y="1180.5869">// Keep only noise from related frequencies band</text><text fill="#000000" font-family="sans-serif" font-size="12" lengthAdjust="spacing" textLength="145" x="3104.25" y="1194.5557">select_noise_segment()</text><polygon fill="#F1F1F1" points="3253.75,835.3701,3265.75,847.3701,3253.75,859.3701,3241.75,847.3701,3253.75,835.3701" style="stroke:#181818;stroke-width:0.5;"/><line style="stroke:#000000;stroke-width:1.5;" x1="3012.25" x2="3012.25" y1="50.042" y2="1994.2847"/><line style="stroke:#000000;stroke-width:1.5;" x1="3493.25" x2="3493.25" y1="50.042" y2="1994.2847"/><line style="stroke:#181818;stroke-width:1.0;" x1="285" x2="285" y1="95.9951" y2="115.9951"/><polygon fill="#181818" points="281,105.9951,285,115.9951,289,105.9951,285,109.9951" style="stroke:#181818;stroke-width:1.0;"/><line style="stroke:#181818;stroke-width:1.0;" x1="285" x2="285" y1="1683.0732" y2="1703.0732"/><polygon fill="#181818" points="281,1693.0732,285,1703.0732,289,1693.0732,285,1697.0732" style="stroke:#181818;stroke-width:1.0;"/><line style="stroke:#181818;stroke-width:1.0;" x1="285" x2="285" y1="1751.0107" y2="1771.0107"/><polygon fill="#181818" points="281,1761.0107,285,1771.0107,289,1761.0107,285,1765.0107" style="stroke:#181818;stroke-width:1.0;"/><line style="stroke:#181818;stroke-width:1.0;" x1="285" x2="285" y1="1818.9482" y2="1838.9482"/><polygon fill="#181818" points="281,1828.9482,285,1838.9482,289,1828.9482,285,1832.9482" style="stroke:#181818;stroke-width:1.0;"/><line style="stroke:#181818;stroke-width:1.0;" x1="285" x2="285" y1="1886.8857" y2="1906.8857"/><polygon fill="#181818" points="281,1896.8857,285,1906.8857,289,1896.8857,285,1900.8857" style="stroke:#181818;stroke-width:1.0;"/><line style="stroke:#181818;stroke-width:1.0;" x1="285" x2="285" y1="1930.8857" y2="1972.2847"/><polygon fill="#181818" points="281,1962.2847,285,1972.2847,289,1962.2847,285,1966.2847" style="stroke:#181818;stroke-width:1.0;"/><text fill="#000000" font-family="sans-serif" font-size="11" lengthAdjust="spacing" textLength="21" x="289" y="1952.1904">yes</text><line style="stroke:#181818;stroke-width:1.0;" x1="1693.25" x2="1551.75" y1="985.6045" y2="985.6045"/><line style="stroke:#181818;stroke-width:1.0;" x1="1551.75" x2="1551.75" y1="985.6045" y2="1007.6045"/><polygon fill="#181818" points="1547.75,997.6045,1551.75,1007.6045,1555.75,997.6045,1551.75,1001.6045" style="stroke:#181818;stroke-width:1.0;"/><line style="stroke:#181818;stroke-width:1.0;" x1="1913.25" x2="2054.75" y1="985.6045" y2="985.6045"/><line style="stroke:#181818;stroke-width:1.0;" x1="2054.75" x2="2054.75" y1="985.6045" y2="1007.6045"/><polygon fill="#181818" points="2050.75,997.6045,2054.75,1007.6045,2058.75,997.6045,2054.75,1001.6045" style="stroke:#181818;stroke-width:1.0;"/><line style="stroke:#181818;stroke-width:1.0;" x1="1551.75" x2="1551.75" y1="1097.4482" y2="1115.4482"/><line style="stroke:#181818;stroke-width:1.0;" x1="1551.75" x2="1791.25" y1="1115.4482" y2="1115.4482"/><polygon fill="#181818" points="1781.25,1111.4482,1791.25,1115.4482,1781.25,1119.4482,1785.25,1115.4482" style="stroke:#181818;stroke-width:1.0;"/><line style="stroke:#181818;stroke-width:1.0;" x1="2054.75" x2="2054.75" y1="1041.5732" y2="1115.4482"/><line style="stroke:#181818;stroke-width:1.0;" x1="2054.75" x2="1815.25" y1="1115.4482" y2="1115.4482"/><polygon fill="#181818" points="1825.25,1111.4482,1815.25,1115.4482,1825.25,1119.4482,1821.25,1115.4482" style="stroke:#181818;stroke-width:1.0;"/><line style="stroke:#181818;stroke-width:1.0;" x1="1803.25" x2="1803.25" y1="1261.3545" y2="1281.3545"/><polygon fill="#181818" points="1799.25,1271.3545,1803.25,1281.3545,1807.25,1271.3545,1803.25,1275.3545" style="stroke:#181818;stroke-width:1.0;"/><line style="stroke:#181818;stroke-width:1.0;" x1="1515.5" x2="1515.5" y1="1407.292" y2="1431.292"/><polygon fill="#181818" points="1511.5,1421.292,1515.5,1431.292,1519.5,1421.292,1515.5,1425.292" style="stroke:#181818;stroke-width:1.0;"/><line style="stroke:#181818;stroke-width:1.0;" x1="1515.5" x2="1515.5" y1="1479.2295" y2="1490.1982"/><line style="stroke:#181818;stroke-width:1.0;" x1="1515.5" x2="1620" y1="1490.1982" y2="1490.1982"/><polygon fill="#181818" points="1616,1453.2607,1620,1443.2607,1624,1453.2607,1620,1449.2607" style="stroke:#181818;stroke-width:1.0;"/><line style="stroke:#181818;stroke-width:1.0;" x1="1620" x2="1620" y1="1395.292" y2="1490.1982"/><line style="stroke:#181818;stroke-width:1.0;" x1="1620" x2="1606.5" y1="1395.292" y2="1395.292"/><polygon fill="#181818" points="1616.5,1391.292,1606.5,1395.292,1616.5,1399.292,1612.5,1395.292" style="stroke:#181818;stroke-width:1.0;"/><line style="stroke:#181818;stroke-width:1.0;" x1="1424.5" x2="1411" y1="1395.292" y2="1395.292"/><polygon fill="#181818" points="1407,1439.2607,1411,1449.2607,1415,1439.2607,1411,1443.2607" style="stroke:#181818;stroke-width:1.0;"/><line style="stroke:#181818;stroke-width:1.0;" x1="1411" x2="1411" y1="1395.292" y2="1502.1982"/><line style="stroke:#181818;stroke-width:1.0;" x1="1411" x2="1515.5" y1="1502.1982" y2="1502.1982"/><line style="stroke:#181818;stroke-width:1.0;" x1="1515.5" x2="1515.5" y1="1502.1982" y2="1537.1982"/><polygon fill="#181818" points="1511.5,1527.1982,1515.5,1537.1982,1519.5,1527.1982,1515.5,1531.1982" style="stroke:#181818;stroke-width:1.0;"/><line style="stroke:#181818;stroke-width:1.0;" x1="2091" x2="2091" y1="1476.2607" y2="1499.2295"/><polygon fill="#181818" points="2087,1489.2295,2091,1499.2295,2095,1489.2295,2091,1493.2295" style="stroke:#181818;stroke-width:1.0;"/><line style="stroke:#181818;stroke-width:1.0;" x1="2091" x2="2091" y1="1547.167" y2="1559.167"/><line style="stroke:#181818;stroke-width:1.0;" x1="2091" x2="2195.5" y1="1559.167" y2="1559.167"/><polygon fill="#181818" points="2191.5,1521.1982,2195.5,1511.1982,2199.5,1521.1982,2195.5,1517.1982" style="stroke:#181818;stroke-width:1.0;"/><line style="stroke:#181818;stroke-width:1.0;" x1="2195.5" x2="2195.5" y1="1464.2607" y2="1559.167"/><line style="stroke:#181818;stroke-width:1.0;" x1="2195.5" x2="2182" y1="1464.2607" y2="1464.2607"/><polygon fill="#181818" points="2192,1460.2607,2182,1464.2607,2192,1468.2607,2188,1464.2607" style="stroke:#181818;stroke-width:1.0;"/><line style="stroke:#181818;stroke-width:1.0;" x1="2000" x2="1986.5" y1="1464.2607" y2="1464.2607"/><polygon fill="#181818" points="1982.5,1523.1826,1986.5,1533.1826,1990.5,1523.1826,1986.5,1527.1826" style="stroke:#181818;stroke-width:1.0;"/><line style="stroke:#181818;stroke-width:1.0;" x1="1986.5" x2="1986.5" y1="1464.2607" y2="1603.1357"/><line style="stroke:#181818;stroke-width:1.0;" x1="1986.5" x2="1815.25" y1="1603.1357" y2="1603.1357"/><polygon fill="#181818" points="1825.25,1599.1357,1815.25,1603.1357,1825.25,1607.1357,1821.25,1603.1357" style="stroke:#181818;stroke-width:1.0;"/><line style="stroke:#181818;stroke-width:1.0;" x1="2091" x2="2091" y1="1417.2607" y2="1452.2607"/><polygon fill="#181818" points="2087,1442.2607,2091,1452.2607,2095,1442.2607,2091,1446.2607" style="stroke:#181818;stroke-width:1.0;"/><line style="stroke:#181818;stroke-width:1.0;" x1="1774.25" x2="1515.5" y1="1361.292" y2="1361.292"/><line style="stroke:#181818;stroke-width:1.0;" x1="1515.5" x2="1515.5" y1="1361.292" y2="1383.292"/><polygon fill="#181818" points="1511.5,1373.292,1515.5,1383.292,1519.5,1373.292,1515.5,1377.292" style="stroke:#181818;stroke-width:1.0;"/><line style="stroke:#181818;stroke-width:1.0;" x1="1832.25" x2="2091" y1="1361.292" y2="1361.292"/><line style="stroke:#181818;stroke-width:1.0;" x1="2091" x2="2091" y1="1361.292" y2="1383.292"/><polygon fill="#181818" points="2087,1373.292,2091,1383.292,2095,1373.292,2091,1377.292" style="stroke:#181818;stroke-width:1.0;"/><line style="stroke:#181818;stroke-width:1.0;" x1="1515.5" x2="1515.5" y1="1585.1357" y2="1603.1357"/><line style="stroke:#181818;stroke-width:1.0;" x1="1515.5" x2="1791.25" y1="1603.1357" y2="1603.1357"/><polygon fill="#181818" points="1781.25,1599.1357,1791.25,1603.1357,1781.25,1607.1357,1785.25,1603.1357" style="stroke:#181818;stroke-width:1.0;"/><line style="stroke:#181818;stroke-width:1.0;" x1="1803.25" x2="1803.25" y1="1329.292" y2="1349.292"/><polygon fill="#181818" points="1799.25,1339.292,1803.25,1349.292,1807.25,1339.292,1803.25,1343.292" style="stroke:#181818;stroke-width:1.0;"/><line style="stroke:#181818;stroke-width:1.0;" x1="3253.75" x2="3253.75" y1="693.4639" y2="713.4639"/><polygon fill="#181818" points="3249.75,703.4639,3253.75,713.4639,3257.75,703.4639,3253.75,707.4639" style="stroke:#181818;stroke-width:1.0;"/><line style="stroke:#181818;stroke-width:1.0;" x1="3253.75" x2="3253.75" y1="761.4014" y2="781.4014"/><polygon fill="#181818" points="3249.75,771.4014,3253.75,781.4014,3257.75,771.4014,3253.75,775.4014" style="stroke:#181818;stroke-width:1.0;"/><line style="stroke:#181818;stroke-width:1.0;" x1="3253.75" x2="3253.75" y1="859.3701" y2="879.3701"/><polygon fill="#181818" points="3249.75,869.3701,3253.75,879.3701,3257.75,869.3701,3253.75,873.3701" style="stroke:#181818;stroke-width:1.0;"/><line style="stroke:#181818;stroke-width:1.0;" x1="3253.75" x2="3253.75" y1="815.3701" y2="835.3701"/><polygon fill="#181818" points="3249.75,825.3701,3253.75,835.3701,3257.75,825.3701,3253.75,829.3701" style="stroke:#181818;stroke-width:1.0;"/><line style="stroke:#181818;stroke-width:1.0;" x1="285" x2="285" y1="149.9639" y2="154.9639"/><line style="stroke:#181818;stroke-width:1.0;" x1="285" x2="654.5" y1="154.9639" y2="154.9639"/><line style="stroke:#181818;stroke-width:1.0;" x1="654.5" x2="654.5" y1="154.9639" y2="169.9639"/><polygon fill="#181818" points="650.5,159.9639,654.5,169.9639,658.5,159.9639,654.5,163.9639" style="stroke:#181818;stroke-width:1.0;"/><line style="stroke:#181818;stroke-width:1.0;" x1="654.5" x2="654.5" y1="217.9014" y2="222.9014"/><line style="stroke:#181818;stroke-width:1.0;" x1="654.5" x2="916.5" y1="222.9014" y2="222.9014"/><line style="stroke:#181818;stroke-width:1.0;" x1="916.5" x2="916.5" y1="222.9014" y2="237.9014"/><polygon fill="#181818" points="912.5,227.9014,916.5,237.9014,920.5,227.9014,916.5,231.9014" style="stroke:#181818;stroke-width:1.0;"/><line style="stroke:#181818;stroke-width:1.0;" x1="916.5" x2="916.5" y1="299.8076" y2="304.8076"/><line style="stroke:#181818;stroke-width:1.0;" x1="916.5" x2="654.5" y1="304.8076" y2="304.8076"/><line style="stroke:#181818;stroke-width:1.0;" x1="654.5" x2="654.5" y1="304.8076" y2="319.8076"/><polygon fill="#181818" points="650.5,309.8076,654.5,319.8076,658.5,309.8076,654.5,313.8076" style="stroke:#181818;stroke-width:1.0;"/><line style="stroke:#181818;stroke-width:1.0;" x1="654.5" x2="654.5" y1="367.7451" y2="372.7451"/><line style="stroke:#181818;stroke-width:1.0;" x1="654.5" x2="285" y1="372.7451" y2="372.7451"/><line style="stroke:#181818;stroke-width:1.0;" x1="285" x2="285" y1="372.7451" y2="387.7451"/><polygon fill="#181818" points="281,377.7451,285,387.7451,289,377.7451,285,381.7451" style="stroke:#181818;stroke-width:1.0;"/><line style="stroke:#181818;stroke-width:1.0;" x1="285" x2="285" y1="435.6826" y2="440.6826"/><line style="stroke:#181818;stroke-width:1.0;" x1="285" x2="1803.25" y1="440.6826" y2="440.6826"/><line style="stroke:#181818;stroke-width:1.0;" x1="1803.25" x2="1803.25" y1="440.6826" y2="455.6826"/><polygon fill="#181818" points="1799.25,445.6826,1803.25,455.6826,1807.25,445.6826,1803.25,449.6826" style="stroke:#181818;stroke-width:1.0;"/><line style="stroke:#181818;stroke-width:1.0;" x1="1803.25" x2="1803.25" y1="503.6201" y2="508.6201"/><line style="stroke:#181818;stroke-width:1.0;" x1="1803.25" x2="2716.75" y1="508.6201" y2="508.6201"/><line style="stroke:#181818;stroke-width:1.0;" x1="2716.75" x2="2716.75" y1="508.6201" y2="523.6201"/><polygon fill="#181818" points="2712.75,513.6201,2716.75,523.6201,2720.75,513.6201,2716.75,517.6201" style="stroke:#181818;stroke-width:1.0;"/><line style="stroke:#181818;stroke-width:1.0;" x1="2716.75" x2="2716.75" y1="571.5576" y2="576.5576"/><line style="stroke:#181818;stroke-width:1.0;" x1="2716.75" x2="916.5" y1="576.5576" y2="576.5576"/><line style="stroke:#181818;stroke-width:1.0;" x1="916.5" x2="916.5" y1="576.5576" y2="591.5576"/><polygon fill="#181818" points="912.5,581.5576,916.5,591.5576,920.5,581.5576,916.5,585.5576" style="stroke:#181818;stroke-width:1.0;"/><line style="stroke:#181818;stroke-width:1.0;" x1="916.5" x2="916.5" y1="639.4951" y2="644.4951"/><line style="stroke:#181818;stroke-width:1.0;" x1="916.5" x2="3253.75" y1="644.4951" y2="644.4951"/><line style="stroke:#181818;stroke-width:1.0;" x1="3253.75" x2="3253.75" y1="644.4951" y2="659.4951"/><polygon fill="#181818" points="3249.75,649.4951,3253.75,659.4951,3257.75,649.4951,3253.75,653.4951" style="stroke:#181818;stroke-width:1.0;"/><line style="stroke:#181818;stroke-width:1.0;" x1="3253.75" x2="3253.75" y1="927.3076" y2="937.9561"/><line style="stroke:#181818;stroke-width:1.0;" x1="3253.75" x2="1803.25" y1="937.9561" y2="937.9561"/><line style="stroke:#181818;stroke-width:1.0;" x1="1803.25" x2="1803.25" y1="937.9561" y2="973.6045"/><polygon fill="#181818" points="1799.25,963.6045,1803.25,973.6045,1807.25,963.6045,1803.25,967.6045" style="stroke:#181818;stroke-width:1.0;"/><line style="stroke:#181818;stroke-width:1.0;" x1="1803.25" x2="1803.25" y1="1127.4482" y2="1144.4482"/><line style="stroke:#181818;stroke-width:1.0;" x1="1803.25" x2="3253.75" y1="1144.4482" y2="1144.4482"/><line style="stroke:#181818;stroke-width:1.0;" x1="3253.75" x2="3253.75" y1="1144.4482" y2="1159.4482"/><polygon fill="#181818" points="3249.75,1149.4482,3253.75,1159.4482,3257.75,1149.4482,3253.75,1153.4482" style="stroke:#181818;stroke-width:1.0;"/><line style="stroke:#181818;stroke-width:1.0;" x1="3253.75" x2="3253.75" y1="1207.3857" y2="1212.3857"/><line style="stroke:#181818;stroke-width:1.0;" x1="3253.75" x2="1803.25" y1="1212.3857" y2="1212.3857"/><line style="stroke:#181818;stroke-width:1.0;" x1="1803.25" x2="1803.25" y1="1212.3857" y2="1227.3857"/><polygon fill="#181818" points="1799.25,1217.3857,1803.25,1227.3857,1807.25,1217.3857,1803.25,1221.3857" style="stroke:#181818;stroke-width:1.0;"/><line style="stroke:#181818;stroke-width:1.0;" x1="1803.25" x2="1803.25" y1="1615.1357" y2="1620.1357"/><line style="stroke:#181818;stroke-width:1.0;" x1="1803.25" x2="285" y1="1620.1357" y2="1620.1357"/><line style="stroke:#181818;stroke-width:1.0;" x1="285" x2="285" y1="1620.1357" y2="1635.1357"/><polygon fill="#181818" points="281,1625.1357,285,1635.1357,289,1625.1357,285,1629.1357" style="stroke:#181818;stroke-width:1.0;"/><line style="stroke:#181818;stroke-width:1.0;" x1="367.5" x2="2521.1875" y1="1918.8857" y2="1918.8857"/><polygon fill="#181818" points="2517.1875,1377.1436,2521.1875,1367.1436,2525.1875,1377.1436,2521.1875,1373.1436" style="stroke:#181818;stroke-width:1.0;"/><line style="stroke:#181818;stroke-width:1.0;" x1="2521.1875" x2="2521.1875" y1="847.3701" y2="1918.8857"/><line style="stroke:#181818;stroke-width:1.0;" x1="2521.1875" x2="3241.75" y1="847.3701" y2="847.3701"/><polygon fill="#181818" points="3231.75,843.3701,3241.75,847.3701,3231.75,851.3701,3235.75,847.3701" style="stroke:#181818;stroke-width:1.0;"/><text fill="#000000" font-family="sans-serif" font-size="18" lengthAdjust="spacing" textLength="98" x="235" y="66.75">GlobalFit.c</text><text fill="#000000" font-family="sans-serif" font-size="18" lengthAdjust="spacing" textLength="169" x="569" y="66.75">GalacticBinaryIO.c</text><text fill="#000000" font-family="sans-serif" font-size="18" lengthAdjust="spacing" textLength="140" x="845.5" y="66.75">MBHWrapper.c</text><text fill="#000000" font-family="sans-serif" font-size="18" lengthAdjust="spacing" textLength="232" x="1632.125" y="66.75">GalacticBinaryWrapper.c</text><text fill="#000000" font-family="sans-serif" font-size="18" lengthAdjust="spacing" textLength="264" x="2583.75" y="66.75">VerificationBinaryWrapper.c</text><text fill="#000000" font-family="sans-serif" font-size="18" lengthAdjust="spacing" textLength="149" x="3178.25" y="66.75">NoiseWrapper.c</text><!--SRC=[pLPHRzis47xthpXW3xKnnq6JjwNPK6Tj5cpfYgvD7mMQEab4A58ZAQSkykDtHrAsdAIfWG73dappZdSVxxxlgA22HlXqiOHIYTg95ixW17w4TyNryZTuTGvjfqfuDThZN_AVJEv_k6jKmFjBRLT2lrLX8UydFWWN9W0_7H_3M-jkiOJAsHQktryLLqQ5wUniGkRjMQ6534ekbH5kS_KdXqY7Fw0eFTmQUsUElEsTH0-LqhWWUoUSnsAzAhJo3oCInCzET1swNIoFmicco64MfGXGsTwKP2PhZI5VxHnCtwxGWQr0AuFRLEsgAOIh_S7et_Cn46OJIpl4UNXyNBXqxhNMLef0TzqQuUElL_3w3VZWUXbwXvvy1ViLTLNGNSIpg1uLOvU2eUsYmhJIelPpi6wbmXna8vIP0oUOG-UKTRF5BlEgbQryAliDEbKfIg2i-Iw2cyll0IZMA1E8k2eYaBGPd18wBLjROboE8Aw_2V4fYkmmCH76e5816YH46LyerIWFS-E99E-iyhYV9laRDenFHBuusuawvbUcwrFJW-KKKO6Uy_b6kFsJYXH5HL1VSUY85ssdqMK7XnqAbkEWgTQkCGaoiueJH2s0LxKHsYUh5Zu0NSF5Fh8Uc2mtbqikJumd7KN6WagaobxedF0W5WBKplOToJBqNL4v_Bj78pU5nxf54xQXL0NJNgx67fsGojGx1VyoWz2W8UhmlrayHdVbadsIgvTGjKGX_X5VYfVPceqdoNYIZ2VxnjDaF4t6qsnSB1RxRd4I9jTXIUvfUHPTKTCSc1gRyMuHKZS-gz10hTO4luvYZu5031GGt1JR8hIY9a5ndrpRKsVcS8TG8dM7_94Ba4_I0GR0Ze12DYHRImFFPoYcLDMmIYtORzbZoYQWloDsO8tUGEHkOeX3JVtdwPwQeuYwAn5dAZ4LDSgGgVwmhGSnXFFAZQItwHnSvESqNfIl5nGLXIZ9tCsKZFJCjuts6HppYUnfgKnzLp9X7-ea-GpOEEt7Hdd0BpH-J8r0Qw5RItBGwfP6ElYDaOspHdrDskYiCc60Cu913msyuIPmSZ8J-XRkX0e-zaTZbLhiLDq4C4W_AzedqNlk3yiyiMs0ieKUdx62NXJHnXTfq0gJSYi895uDRADwKo6dVrZRGM-2qb0og1Unm2zIlR9hAi7rnVN5TkCRXJlB3WGsnXyn-_zMmGDhcBHgovrA3phsNzPtqF2-aFQ_8rAAlyZL3rC-AfOhIxLnbePHhl0yaIK9clVpasEiETflH99rV80oqFZcJiV2-O0IQPpjPnsd6qVXP_EP46dIH8VduwGPyo_1h1zVAJsTGsilbzmo-Yx0ZZz3ZV8DijQ8spJSkRb7Fs-G1gqFjli7]--></g></svg>