<?xml version="1.0" encoding="UTF-8" standalone="no"?><svg xmlns="http://www.w3.org/2000/svg" xmlns:xlink="http://www.w3.org/1999/xlink" contentStyleType="text/css" height="1628px" preserveAspectRatio="none" style="width:2983px;height:1628px;background:#FFFFFF;" version="1.1" viewBox="0 0 2983 1628" width="2983px" zoomAndPan="magnify"><defs/><g><text fill="#000000" font-family="sans-serif" font-size="14" font-weight="bold" lengthAdjust="spacing" textLength="312" x="1334" y="32.9951">MBH diagram ; 2 &lt;= mpid &lt; 2 + N_MBH</text><rect fill="none" height="20.9531" style="stroke:none;stroke-width:1.0;" width="2950" x="15" y="50.042"/><rect fill="#FFFFFF" height="1566.2271" style="stroke:#FFFFFF;stroke-width:1.0;" width="582" x="15" y="50.042"/><ellipse cx="307" cy="85.9951" fill="#222222" rx="10" ry="10" style="stroke:#222222;stroke-width:1.0;"/><rect fill="#F1F1F1" height="33.9688" rx="12.5" ry="12.5" style="stroke:#181818;stroke-width:0.5;" width="163" x="225.5" y="115.9951"/><text fill="#000000" font-family="sans-serif" font-size="12" lengthAdjust="spacing" textLength="143" x="235.5" y="137.1338">// Forked from MPI_Init()</text><rect fill="#F1F1F1" height="47.9375" rx="12.5" ry="12.5" style="stroke:#181818;stroke-width:0.5;" width="250" x="182" y="387.7451"/><text fill="#000000" font-family="sans-serif" font-size="12" lengthAdjust="spacing" textLength="230" x="192" y="408.8838">// Allocates GlobalFit TDI AE structures</text><text fill="#000000" font-family="sans-serif" font-size="12" lengthAdjust="spacing" textLength="88" x="192" y="422.8525">alloc_gf_data()</text><rect fill="#F1F1F1" height="47.9375" rx="12.5" ry="12.5" style="stroke:#181818;stroke-width:0.5;" width="247" x="183.5" y="1257.1201"/><text fill="#000000" font-family="sans-serif" font-size="12" lengthAdjust="spacing" textLength="227" x="193.5" y="1278.2588">// Receives TDI AE from root process.</text><text fill="#000000" font-family="sans-serif" font-size="12" lengthAdjust="spacing" textLength="146" x="193.5" y="1292.2275">share_gbmcmc_model()</text><rect fill="#F1F1F1" height="47.9375" rx="12.5" ry="12.5" style="stroke:#181818;stroke-width:0.5;" width="572" x="21" y="1325.0576"/><text fill="#000000" font-family="sans-serif" font-size="12" lengthAdjust="spacing" textLength="552" x="31" y="1346.1963">// Sends TDI AE from MBH to root process, then from root to all processes (including MBH).</text><text fill="#000000" font-family="sans-serif" font-size="12" lengthAdjust="spacing" textLength="120" x="31" y="1360.165">share_mbh_model()</text><rect fill="#F1F1F1" height="47.9375" rx="12.5" ry="12.5" style="stroke:#181818;stroke-width:0.5;" width="284" x="165" y="1392.9951"/><text fill="#000000" font-family="sans-serif" font-size="12" lengthAdjust="spacing" textLength="264" x="175" y="1414.1338">// Receives noise model from root process.</text><text fill="#000000" font-family="sans-serif" font-size="12" lengthAdjust="spacing" textLength="127" x="175" y="1428.1025">share_noise_model()</text><rect fill="#F1F1F1" height="47.9375" rx="12.5" ry="12.5" style="stroke:#181818;stroke-width:0.5;" width="247" x="183.5" y="1460.9326"/><text fill="#000000" font-family="sans-serif" font-size="12" lengthAdjust="spacing" textLength="227" x="193.5" y="1482.0713">// Receives TDI AE from root process.</text><text fill="#000000" font-family="sans-serif" font-size="12" lengthAdjust="spacing" textLength="145" x="193.5" y="1496.04">share_vbmcmc_model()</text><polygon fill="#F1F1F1" points="236.5,1528.8701,377.5,1528.8701,389.5,1540.8701,377.5,1552.8701,236.5,1552.8701,224.5,1540.8701,236.5,1528.8701" style="stroke:#181818;stroke-width:0.5;"/><text fill="#000000" font-family="sans-serif" font-size="11" lengthAdjust="spacing" textLength="141" x="236.5" y="1544.6782">GBMCMC steps finished?</text><text fill="#000000" font-family="sans-serif" font-size="11" lengthAdjust="spacing" textLength="14" x="389.5" y="1538.2759">no</text><ellipse cx="307" cy="1605.269" fill="none" rx="11" ry="11" style="stroke:#222222;stroke-width:1.0;"/><ellipse cx="307" cy="1605.269" fill="#222222" rx="6" ry="6" style="stroke:#111111;stroke-width:1.0;"/><line style="stroke:#000000;stroke-width:1.5;" x1="15" x2="15" y1="50.042" y2="1616.269"/><rect fill="#FFFFFF" height="1566.2271" style="stroke:#FFFFFF;stroke-width:1.0;" width="201" x="597" y="50.042"/><rect fill="#F1F1F1" height="47.9375" rx="12.5" ry="12.5" style="stroke:#181818;stroke-width:0.5;" width="191" x="603" y="169.9639"/><text fill="#000000" font-family="sans-serif" font-size="12" lengthAdjust="spacing" textLength="171" x="613" y="191.1025">// Reads known-sources file.</text><text fill="#000000" font-family="sans-serif" font-size="12" lengthAdjust="spacing" textLength="89" x="613" y="205.0713">parse_vb_list()</text><rect fill="#F1F1F1" height="47.9375" rx="12.5" ry="12.5" style="stroke:#181818;stroke-width:0.5;" width="119" x="639" y="319.8076"/><text fill="#000000" font-family="sans-serif" font-size="12" lengthAdjust="spacing" textLength="99" x="649" y="340.9463">// Parse any UCB</text><text fill="#000000" font-family="sans-serif" font-size="12" lengthAdjust="spacing" textLength="45" x="649" y="354.915">parse()</text><line style="stroke:#000000;stroke-width:1.5;" x1="597" x2="597" y1="50.042" y2="1616.269"/><rect fill="#FFFFFF" height="1566.2271" style="stroke:#FFFFFF;stroke-width:1.0;" width="701" x="798" y="50.042"/><rect fill="#F1F1F1" height="61.9063" rx="12.5" ry="12.5" style="stroke:#181818;stroke-width:0.5;" width="202" x="1048.5" y="237.9014"/><text fill="#000000" font-family="sans-serif" font-size="12" lengthAdjust="spacing" textLength="168" x="1058.5" y="259.04">// search_sources.dat found</text><text fill="#000000" font-family="sans-serif" font-size="12" lengthAdjust="spacing" textLength="182" x="1058.5" y="273.0088">// get N_MBH = number of line</text><text fill="#000000" font-family="sans-serif" font-size="12" lengthAdjust="spacing" textLength="110" x="1058.5" y="286.9775">parse_mbh_args()</text><rect fill="#F1F1F1" height="47.9375" rx="12.5" ry="12.5" style="stroke:#181818;stroke-width:0.5;" width="313" x="993" y="591.5576"/><text fill="#000000" font-family="sans-serif" font-size="12" lengthAdjust="spacing" textLength="293" x="1003" y="612.6963">// Allocates MBH structures (data, het, flags, tdi).</text><text fill="#000000" font-family="sans-serif" font-size="12" lengthAdjust="spacing" textLength="102" x="1003" y="626.665">alloc_mbh_data()</text><rect fill="#F1F1F1" height="47.9375" rx="12.5" ry="12.5" style="stroke:#181818;stroke-width:0.5;" width="233" x="1033" y="659.4951"/><text fill="#000000" font-family="sans-serif" font-size="12" lengthAdjust="spacing" textLength="213" x="1043" y="680.6338">// Propagates input TDI to all mpids.</text><text fill="#000000" font-family="sans-serif" font-size="12" lengthAdjust="spacing" textLength="76" x="1043" y="694.6025">share_data()</text><rect fill="#F1F1F1" height="33.9688" rx="12.5" ry="12.5" style="stroke:#181818;stroke-width:0.5;" width="165" x="1067" y="727.4326"/><text fill="#000000" font-family="sans-serif" font-size="12" lengthAdjust="spacing" textLength="145" x="1077" y="748.5713">initialize_mbh_sampler()</text><rect fill="#F1F1F1" height="33.9688" rx="12.5" ry="12.5" style="stroke:#181818;stroke-width:0.5;" width="158" x="1070.5" y="947.3076"/><text fill="#000000" font-family="sans-serif" font-size="12" lengthAdjust="spacing" textLength="138" x="1080.5" y="968.4463">select_mbh_segment()</text><rect fill="#F1F1F1" height="47.9375" rx="12.5" ry="12.5" style="stroke:#181818;stroke-width:0.5;" width="319" x="990" y="1001.2764"/><text fill="#000000" font-family="sans-serif" font-size="12" lengthAdjust="spacing" textLength="299" x="1000" y="1022.415">// Keep only noise from related frequencies band</text><text fill="#000000" font-family="sans-serif" font-size="12" lengthAdjust="spacing" textLength="118" x="1000" y="1036.3838">select_mbh_noise()</text><rect fill="#F1F1F1" height="33.9688" rx="12.5" ry="12.5" style="stroke:#181818;stroke-width:0.5;" width="691" x="804" y="1069.2139"/><text fill="#000000" font-family="sans-serif" font-size="12" lengthAdjust="spacing" textLength="671" x="814" y="1090.3525">// cycle = round ( the max time of all VGB MBH UCB process time) / ( time of one update_mbh_sampler() time )</text><rect fill="#F1F1F1" height="47.9375" rx="12.5" ry="12.5" style="stroke:#181818;stroke-width:0.5;" width="159" x="1070" y="1167.1826"/><text fill="#000000" font-family="sans-serif" font-size="12" lengthAdjust="spacing" textLength="48" x="1080" y="1188.3213">// MCMC</text><text fill="#000000" font-family="sans-serif" font-size="12" lengthAdjust="spacing" textLength="139" x="1080" y="1202.29">update_mbh_sampler()</text><polygon fill="#F1F1F1" points="1070.5,1123.1826,1228.5,1123.1826,1240.5,1135.1826,1228.5,1147.1826,1070.5,1147.1826,1058.5,1135.1826,1070.5,1123.1826" style="stroke:#181818;stroke-width:0.5;"/><text fill="#000000" font-family="sans-serif" font-size="11" lengthAdjust="spacing" textLength="158" x="1070.5" y="1138.9907">Loop until done 'cycle' time</text><line style="stroke:#000000;stroke-width:1.5;" x1="798" x2="798" y1="50.042" y2="1616.269"/><rect fill="#FFFFFF" height="1566.2271" style="stroke:#FFFFFF;stroke-width:1.0;" width="383" x="1499" y="50.042"/><rect fill="#F1F1F1" height="47.9375" rx="12.5" ry="12.5" style="stroke:#181818;stroke-width:0.5;" width="373" x="1505" y="455.6826"/><text fill="#000000" font-family="sans-serif" font-size="12" lengthAdjust="spacing" textLength="353" x="1515" y="476.8213">// Allocates UCB structures (flags, orbit, chain, data, prior).</text><text fill="#000000" font-family="sans-serif" font-size="12" lengthAdjust="spacing" textLength="128" x="1515" y="490.79">alloc_gbmcmc_data()</text><line style="stroke:#000000;stroke-width:1.5;" x1="1499" x2="1499" y1="50.042" y2="1616.269"/><rect fill="#FFFFFF" height="1566.2271" style="stroke:#FFFFFF;stroke-width:1.0;" width="593" x="1882" y="50.042"/><rect fill="#F1F1F1" height="47.9375" rx="12.5" ry="12.5" style="stroke:#181818;stroke-width:0.5;" width="583" x="1888" y="523.6201"/><text fill="#000000" font-family="sans-serif" font-size="12" lengthAdjust="spacing" textLength="563" x="1898" y="544.7588">// Allocates VG structures (flags, orbit, chain_vec, data_vec,_prior_vec, trial_vec, model_vec).</text><text fill="#000000" font-family="sans-serif" font-size="12" lengthAdjust="spacing" textLength="127" x="1898" y="558.7275">alloc_vbmcmc_data()</text><line style="stroke:#000000;stroke-width:1.5;" x1="1882" x2="1882" y1="50.042" y2="1616.269"/><rect fill="#FFFFFF" height="1566.2271" style="stroke:#FFFFFF;stroke-width:1.0;" width="488" x="2475" y="50.042"/><rect fill="#F1F1F1" height="33.9688" rx="12.5" ry="12.5" style="stroke:#181818;stroke-width:0.5;" width="129" x="2655.5" y="781.4014"/><text fill="#000000" font-family="sans-serif" font-size="12" lengthAdjust="spacing" textLength="109" x="2665.5" y="802.54">alloc_noise_data()</text><rect fill="#F1F1F1" height="47.9375" rx="12.5" ry="12.5" style="stroke:#181818;stroke-width:0.5;" width="478" x="2481" y="879.3701"/><text fill="#000000" font-family="sans-serif" font-size="12" lengthAdjust="spacing" textLength="458" x="2491" y="900.5088">// Remove from TDI AET all found signals from last iteration of UCB VGB MBH</text><text fill="#000000" font-family="sans-serif" font-size="12" lengthAdjust="spacing" textLength="103" x="2491" y="914.4775">create_residual()</text><polygon fill="#F1F1F1" points="2720,835.3701,2732,847.3701,2720,859.3701,2708,847.3701,2720,835.3701" style="stroke:#181818;stroke-width:0.5;"/><line style="stroke:#000000;stroke-width:1.5;" x1="2475" x2="2475" y1="50.042" y2="1616.269"/><line style="stroke:#000000;stroke-width:1.5;" x1="2963" x2="2963" y1="50.042" y2="1616.269"/><line style="stroke:#181818;stroke-width:1.0;" x1="307" x2="307" y1="95.9951" y2="115.9951"/><polygon fill="#181818" points="303,105.9951,307,115.9951,311,105.9951,307,109.9951" style="stroke:#181818;stroke-width:1.0;"/><line style="stroke:#181818;stroke-width:1.0;" x1="307" x2="307" y1="1305.0576" y2="1325.0576"/><polygon fill="#181818" points="303,1315.0576,307,1325.0576,311,1315.0576,307,1319.0576" style="stroke:#181818;stroke-width:1.0;"/><line style="stroke:#181818;stroke-width:1.0;" x1="307" x2="307" y1="1372.9951" y2="1392.9951"/><polygon fill="#181818" points="303,1382.9951,307,1392.9951,311,1382.9951,307,1386.9951" style="stroke:#181818;stroke-width:1.0;"/><line style="stroke:#181818;stroke-width:1.0;" x1="307" x2="307" y1="1440.9326" y2="1460.9326"/><polygon fill="#181818" points="303,1450.9326,307,1460.9326,311,1450.9326,307,1454.9326" style="stroke:#181818;stroke-width:1.0;"/><line style="stroke:#181818;stroke-width:1.0;" x1="307" x2="307" y1="1508.8701" y2="1528.8701"/><polygon fill="#181818" points="303,1518.8701,307,1528.8701,311,1518.8701,307,1522.8701" style="stroke:#181818;stroke-width:1.0;"/><line style="stroke:#181818;stroke-width:1.0;" x1="307" x2="307" y1="1552.8701" y2="1594.269"/><polygon fill="#181818" points="303,1584.269,307,1594.269,311,1584.269,307,1588.269" style="stroke:#181818;stroke-width:1.0;"/><text fill="#000000" font-family="sans-serif" font-size="11" lengthAdjust="spacing" textLength="21" x="311" y="1574.1748">yes</text><line style="stroke:#181818;stroke-width:1.0;" x1="1149.5" x2="1149.5" y1="639.4951" y2="659.4951"/><polygon fill="#181818" points="1145.5,649.4951,1149.5,659.4951,1153.5,649.4951,1149.5,653.4951" style="stroke:#181818;stroke-width:1.0;"/><line style="stroke:#181818;stroke-width:1.0;" x1="1149.5" x2="1149.5" y1="707.4326" y2="727.4326"/><polygon fill="#181818" points="1145.5,717.4326,1149.5,727.4326,1153.5,717.4326,1149.5,721.4326" style="stroke:#181818;stroke-width:1.0;"/><line style="stroke:#181818;stroke-width:1.0;" x1="1149.5" x2="1149.5" y1="981.2764" y2="1001.2764"/><polygon fill="#181818" points="1145.5,991.2764,1149.5,1001.2764,1153.5,991.2764,1149.5,995.2764" style="stroke:#181818;stroke-width:1.0;"/><line style="stroke:#181818;stroke-width:1.0;" x1="1149.5" x2="1149.5" y1="1049.2139" y2="1069.2139"/><polygon fill="#181818" points="1145.5,1059.2139,1149.5,1069.2139,1153.5,1059.2139,1149.5,1063.2139" style="stroke:#181818;stroke-width:1.0;"/><line style="stroke:#181818;stroke-width:1.0;" x1="1149.5" x2="1149.5" y1="1147.1826" y2="1167.1826"/><polygon fill="#181818" points="1145.5,1157.1826,1149.5,1167.1826,1153.5,1157.1826,1149.5,1161.1826" style="stroke:#181818;stroke-width:1.0;"/><line style="stroke:#181818;stroke-width:1.0;" x1="1149.5" x2="1149.5" y1="1215.1201" y2="1225.1201"/><line style="stroke:#181818;stroke-width:1.0;" x1="1149.5" x2="1252.5" y1="1225.1201" y2="1225.1201"/><polygon fill="#181818" points="1248.5,1189.1514,1252.5,1179.1514,1256.5,1189.1514,1252.5,1185.1514" style="stroke:#181818;stroke-width:1.0;"/><line style="stroke:#181818;stroke-width:1.0;" x1="1252.5" x2="1252.5" y1="1135.1826" y2="1225.1201"/><line style="stroke:#181818;stroke-width:1.0;" x1="1252.5" x2="1240.5" y1="1135.1826" y2="1135.1826"/><polygon fill="#181818" points="1250.5,1131.1826,1240.5,1135.1826,1250.5,1139.1826,1246.5,1135.1826" style="stroke:#181818;stroke-width:1.0;"/><line style="stroke:#181818;stroke-width:1.0;" x1="1058.5" x2="1046.5" y1="1135.1826" y2="1135.1826"/><polygon fill="#181818" points="1042.5,1183.9014,1046.5,1193.9014,1050.5,1183.9014,1046.5,1187.9014" style="stroke:#181818;stroke-width:1.0;"/><line style="stroke:#181818;stroke-width:1.0;" x1="1046.5" x2="1046.5" y1="1135.1826" y2="1242.1201"/><line style="stroke:#181818;stroke-width:1.0;" x1="1046.5" x2="307" y1="1242.1201" y2="1242.1201"/><line style="stroke:#181818;stroke-width:1.0;" x1="307" x2="307" y1="1242.1201" y2="1257.1201"/><polygon fill="#181818" points="303,1247.1201,307,1257.1201,311,1247.1201,307,1251.1201" style="stroke:#181818;stroke-width:1.0;"/><line style="stroke:#181818;stroke-width:1.0;" x1="1149.5" x2="1149.5" y1="1103.1826" y2="1123.1826"/><polygon fill="#181818" points="1145.5,1113.1826,1149.5,1123.1826,1153.5,1113.1826,1149.5,1117.1826" style="stroke:#181818;stroke-width:1.0;"/><line style="stroke:#181818;stroke-width:1.0;" x1="2720" x2="2720" y1="859.3701" y2="879.3701"/><polygon fill="#181818" points="2716,869.3701,2720,879.3701,2724,869.3701,2720,873.3701" style="stroke:#181818;stroke-width:1.0;"/><line style="stroke:#181818;stroke-width:1.0;" x1="2720" x2="2720" y1="815.3701" y2="835.3701"/><polygon fill="#181818" points="2716,825.3701,2720,835.3701,2724,825.3701,2720,829.3701" style="stroke:#181818;stroke-width:1.0;"/><line style="stroke:#181818;stroke-width:1.0;" x1="307" x2="307" y1="149.9639" y2="154.9639"/><line style="stroke:#181818;stroke-width:1.0;" x1="307" x2="698.5" y1="154.9639" y2="154.9639"/><line style="stroke:#181818;stroke-width:1.0;" x1="698.5" x2="698.5" y1="154.9639" y2="169.9639"/><polygon fill="#181818" points="694.5,159.9639,698.5,169.9639,702.5,159.9639,698.5,163.9639" style="stroke:#181818;stroke-width:1.0;"/><line style="stroke:#181818;stroke-width:1.0;" x1="698.5" x2="698.5" y1="217.9014" y2="222.9014"/><line style="stroke:#181818;stroke-width:1.0;" x1="698.5" x2="1149.5" y1="222.9014" y2="222.9014"/><line style="stroke:#181818;stroke-width:1.0;" x1="1149.5" x2="1149.5" y1="222.9014" y2="237.9014"/><polygon fill="#181818" points="1145.5,227.9014,1149.5,237.9014,1153.5,227.9014,1149.5,231.9014" style="stroke:#181818;stroke-width:1.0;"/><line style="stroke:#181818;stroke-width:1.0;" x1="1149.5" x2="1149.5" y1="299.8076" y2="304.8076"/><line style="stroke:#181818;stroke-width:1.0;" x1="1149.5" x2="698.5" y1="304.8076" y2="304.8076"/><line style="stroke:#181818;stroke-width:1.0;" x1="698.5" x2="698.5" y1="304.8076" y2="319.8076"/><polygon fill="#181818" points="694.5,309.8076,698.5,319.8076,702.5,309.8076,698.5,313.8076" style="stroke:#181818;stroke-width:1.0;"/><line style="stroke:#181818;stroke-width:1.0;" x1="698.5" x2="698.5" y1="367.7451" y2="372.7451"/><line style="stroke:#181818;stroke-width:1.0;" x1="698.5" x2="307" y1="372.7451" y2="372.7451"/><line style="stroke:#181818;stroke-width:1.0;" x1="307" x2="307" y1="372.7451" y2="387.7451"/><polygon fill="#181818" points="303,377.7451,307,387.7451,311,377.7451,307,381.7451" style="stroke:#181818;stroke-width:1.0;"/><line style="stroke:#181818;stroke-width:1.0;" x1="307" x2="307" y1="435.6826" y2="440.6826"/><line style="stroke:#181818;stroke-width:1.0;" x1="307" x2="1691.5" y1="440.6826" y2="440.6826"/><line style="stroke:#181818;stroke-width:1.0;" x1="1691.5" x2="1691.5" y1="440.6826" y2="455.6826"/><polygon fill="#181818" points="1687.5,445.6826,1691.5,455.6826,1695.5,445.6826,1691.5,449.6826" style="stroke:#181818;stroke-width:1.0;"/><line style="stroke:#181818;stroke-width:1.0;" x1="1691.5" x2="1691.5" y1="503.6201" y2="508.6201"/><line style="stroke:#181818;stroke-width:1.0;" x1="1691.5" x2="2179.5" y1="508.6201" y2="508.6201"/><line style="stroke:#181818;stroke-width:1.0;" x1="2179.5" x2="2179.5" y1="508.6201" y2="523.6201"/><polygon fill="#181818" points="2175.5,513.6201,2179.5,523.6201,2183.5,513.6201,2179.5,517.6201" style="stroke:#181818;stroke-width:1.0;"/><line style="stroke:#181818;stroke-width:1.0;" x1="2179.5" x2="2179.5" y1="571.5576" y2="576.5576"/><line style="stroke:#181818;stroke-width:1.0;" x1="2179.5" x2="1149.5" y1="576.5576" y2="576.5576"/><line style="stroke:#181818;stroke-width:1.0;" x1="1149.5" x2="1149.5" y1="576.5576" y2="591.5576"/><polygon fill="#181818" points="1145.5,581.5576,1149.5,591.5576,1153.5,581.5576,1149.5,585.5576" style="stroke:#181818;stroke-width:1.0;"/><line style="stroke:#181818;stroke-width:1.0;" x1="1149.5" x2="1149.5" y1="761.4014" y2="766.4014"/><line style="stroke:#181818;stroke-width:1.0;" x1="1149.5" x2="2720" y1="766.4014" y2="766.4014"/><line style="stroke:#181818;stroke-width:1.0;" x1="2720" x2="2720" y1="766.4014" y2="781.4014"/><polygon fill="#181818" points="2716,771.4014,2720,781.4014,2724,771.4014,2720,775.4014" style="stroke:#181818;stroke-width:1.0;"/><line style="stroke:#181818;stroke-width:1.0;" x1="2720" x2="2720" y1="927.3076" y2="932.3076"/><line style="stroke:#181818;stroke-width:1.0;" x1="2720" x2="1149.5" y1="932.3076" y2="932.3076"/><line style="stroke:#181818;stroke-width:1.0;" x1="1149.5" x2="1149.5" y1="932.3076" y2="947.3076"/><polygon fill="#181818" points="1145.5,937.3076,1149.5,947.3076,1153.5,937.3076,1149.5,941.3076" style="stroke:#181818;stroke-width:1.0;"/><line style="stroke:#181818;stroke-width:1.0;" x1="389.5" x2="2128.375" y1="1540.8701" y2="1540.8701"/><polygon fill="#181818" points="2124.375,1203.1201,2128.375,1193.1201,2132.375,1203.1201,2128.375,1199.1201" style="stroke:#181818;stroke-width:1.0;"/><line style="stroke:#181818;stroke-width:1.0;" x1="2128.375" x2="2128.375" y1="847.3701" y2="1540.8701"/><line style="stroke:#181818;stroke-width:1.0;" x1="2128.375" x2="2708" y1="847.3701" y2="847.3701"/><polygon fill="#181818" points="2698,843.3701,2708,847.3701,2698,851.3701,2702,847.3701" style="stroke:#181818;stroke-width:1.0;"/><text fill="#000000" font-family="sans-serif" font-size="18" lengthAdjust="spacing" textLength="98" x="257" y="66.75">GlobalFit.c</text><text fill="#000000" font-family="sans-serif" font-size="18" lengthAdjust="spacing" textLength="169" x="613" y="66.75">GalacticBinaryIO.c</text><text fill="#000000" font-family="sans-serif" font-size="18" lengthAdjust="spacing" textLength="140" x="1078.5" y="66.75">MBHWrapper.c</text><text fill="#000000" font-family="sans-serif" font-size="18" lengthAdjust="spacing" textLength="232" x="1574.5" y="66.75">GalacticBinaryWrapper.c</text><text fill="#000000" font-family="sans-serif" font-size="18" lengthAdjust="spacing" textLength="266" x="2045.5" y="66.75">VerificationBinaryWrapper.h</text><text fill="#000000" font-family="sans-serif" font-size="18" lengthAdjust="spacing" textLength="149" x="2644.5" y="66.75">NoiseWrapper.c</text><!--SRC=[ZLLVRzCm47_lfpY9XxMYwoGU6GEjWvKAEYOOup5odMjoccC7s-aeseVdRATjscvZRzdEz_ldEzUJLmYpyMV8IHHML70AR-3T6LGrvV2Elr_3LSRrNk_XrNr97Xycoio5kYG_aWyzvuNrFO2t9oTmQUmTvh2mfeBPzJIRQlBzmMcFovjUeOJq9CUaXLrDlmM8rFmTHUxWJfjxVUnCOoKwM9324TThOHrcotccoEqZihHVLjGrsYsMGs5bcRKmernuM9X6vrpcQe4-MO8pq4qrHmjc0OeqRgYgUPa9MxWNgxyERI3q2dvUZ66Diz_U3IxrdIjbfF3iTLE4cuzJEFy4pjj6-iQYuxCYdCkAHSPUnBEg3iBOKWHfMrJeBvGet12CdPCVWYm5wI44WY7KbemTZBRCyqfMyZ7sMxIq82OWetSLb8SARYV_4v0jKIOHyIkBGj8_lIMXqcTbSeoV7OdB9oK-DY9RJM4Gkg9I02MoebQVpwd34sQZGn9ltvfQ516DTDsaA_GcDCGzSg7RbSBYJYVnVh0b-fi6pecgLcZtn5yPShWhF-dGeT35irYZ2BkuNgZAB35jOngfcoWeRW8uAhHGBfMLS1wOpCPR3DiGHkLsCWxXH41f6Hep3eZoHgYMyUc8MO93XT8dPrXKgFscAyZxWbY3qMe5qKWIOb4nJNX2y7U3MX8dEXTnSJd0BM1isO6JAydls1dOwAuFlaIen1_mL64m59otXgAvsXf-6boi3-0aTBGdZKPewZpOtRcLT63DoRQPh__Lc1eQxKb17XgFeewZ11iF9dcpYzb5- -TZsAUnXZgFiBlHxhqQwykLI4jEftqiKdh6-BMnKOeipboxl75fTaBxmOox424U7jmkqZ1agJiCxM2tvR0ofALgSj95w1zqgOFBGzwD-dJryS3p5jAmFuFqaXoMXpcadLdVvcGSxebV0wp3ZuycLsB-OG347hK9ztdyVeMEEvqtzJy0]--></g></svg>