<?xml version="1.0" encoding="UTF-8" standalone="no"?><svg xmlns="http://www.w3.org/2000/svg" xmlns:xlink="http://www.w3.org/1999/xlink" contentStyleType="text/css" height="858px" preserveAspectRatio="none" style="width:1623px;height:858px;background:#FFFFFF;" version="1.1" viewBox="0 0 1623 858" width="1623px" zoomAndPan="magnify"><defs/><g><text fill="#000000" font-family="sans-serif" font-size="14" font-weight="bold" lengthAdjust="spacing" textLength="454" x="583" y="32.9951">UCB diagram ; 2 + N_MBH &lt;= mpid &lt; 2 + N_MBH + N_UCB</text><rect fill="none" height="20.9531" style="stroke:none;stroke-width:1.0;" width="1590" x="15" y="50.042"/><rect fill="#F5DEB3" height="796.8833" style="stroke:#F5DEB3;stroke-width:1.0;" width="563" x="15" y="50.042"/><ellipse cx="310" cy="85.9951" fill="#222222" rx="10" ry="10" style="stroke:#222222;stroke-width:1.0;"/><rect fill="#F1F1F1" height="33.9688" rx="12.5" ry="12.5" style="stroke:#181818;stroke-width:0.5;" width="163" x="228.5" y="115.9951"/><text fill="#000000" font-family="sans-serif" font-size="12" lengthAdjust="spacing" textLength="143" x="238.5" y="137.1338">// Forked from MPI_Init()</text><rect fill="#F1F1F1" height="61.9063" rx="12.5" ry="12.5" style="stroke:#181818;stroke-width:0.5;" width="147" x="236.5" y="169.9639"/><text fill="#000000" font-family="sans-serif" font-size="12" lengthAdjust="spacing" textLength="109" x="246.5" y="191.1025">alloc_noise_data()</text><text fill="#000000" font-family="sans-serif" font-size="12" lengthAdjust="spacing" textLength="127" x="246.5" y="205.0713">alloc_vbmcmc_data()</text><text fill="#000000" font-family="sans-serif" font-size="12" lengthAdjust="spacing" textLength="102" x="246.5" y="219.04">alloc_mbh_data()</text><rect fill="#F1F1F1" height="47.9375" rx="12.5" ry="12.5" style="stroke:#181818;stroke-width:0.5;" width="471" x="74.5" y="295.8701"/><text fill="#000000" font-family="sans-serif" font-size="12" lengthAdjust="spacing" textLength="451" x="84.5" y="317.0088">// Remove from TDI AE all found signals from last iteration of UCB VGB MBH</text><text fill="#000000" font-family="sans-serif" font-size="12" lengthAdjust="spacing" textLength="103" x="84.5" y="330.9775">create_residual()</text><rect fill="#F1F1F1" height="47.9375" rx="12.5" ry="12.5" style="stroke:#181818;stroke-width:0.5;" width="528" x="46" y="691.5889"/><text fill="#000000" font-family="sans-serif" font-size="12" lengthAdjust="spacing" textLength="508" x="56" y="712.7275">// Sends TDI AE from UCB to root process, then from root to all non-UCB processes.</text><text fill="#000000" font-family="sans-serif" font-size="12" lengthAdjust="spacing" textLength="145" x="56" y="726.6963">share_vbmcmc_model()</text><polygon fill="#F1F1F1" points="310,251.8701,322,263.8701,310,275.8701,298,263.8701,310,251.8701" style="stroke:#181818;stroke-width:0.5;"/><polygon fill="#F1F1F1" points="239.5,759.5264,380.5,759.5264,392.5,771.5264,380.5,783.5264,239.5,783.5264,227.5,771.5264,239.5,759.5264" style="stroke:#181818;stroke-width:0.5;"/><text fill="#000000" font-family="sans-serif" font-size="11" lengthAdjust="spacing" textLength="141" x="239.5" y="775.3345">GBMCMC steps finished?</text><text fill="#000000" font-family="sans-serif" font-size="11" lengthAdjust="spacing" textLength="14" x="392.5" y="768.9321">no</text><ellipse cx="310" cy="835.9253" fill="none" rx="11" ry="11" style="stroke:#222222;stroke-width:1.0;"/><ellipse cx="310" cy="835.9253" fill="#222222" rx="6" ry="6" style="stroke:#111111;stroke-width:1.0;"/><line style="stroke:#000000;stroke-width:1.5;" x1="15" x2="15" y1="50.042" y2="846.9253"/><rect fill="#F0F8FF" height="796.8833" style="stroke:#F0F8FF;stroke-width:1.0;" width="274" x="578" y="50.042"/><rect fill="#F1F1F1" height="33.9688" rx="12.5" ry="12.5" style="stroke:#181818;stroke-width:0.5;" width="190" x="621" y="363.8076"/><text fill="#000000" font-family="sans-serif" font-size="12" lengthAdjust="spacing" textLength="170" x="631" y="384.9463">select_vbmcmc_segments()</text><rect fill="#F1F1F1" height="47.9375" rx="12.5" ry="12.5" style="stroke:#181818;stroke-width:0.5;" width="184" x="624" y="623.6514"/><text fill="#000000" font-family="sans-serif" font-size="12" lengthAdjust="spacing" textLength="48" x="634" y="644.79">// MCMC</text><text fill="#000000" font-family="sans-serif" font-size="12" lengthAdjust="spacing" textLength="164" x="634" y="658.7588">update_vbmcmc_sampler()</text><line style="stroke:#000000;stroke-width:1.5;" x1="578" x2="578" y1="50.042" y2="846.9253"/><rect fill="#F0F8FF" height="796.8833" style="stroke:#F0F8FF;stroke-width:1.0;" width="370" x="852" y="50.042"/><rect fill="#F1F1F1" height="47.9375" rx="12.5" ry="12.5" style="stroke:#181818;stroke-width:0.5;" width="360" x="858" y="417.7764"/><text fill="#000000" font-family="sans-serif" font-size="12" lengthAdjust="spacing" textLength="340" x="868" y="438.915">// This is not the same function as for UCB. For VGB only.</text><text fill="#000000" font-family="sans-serif" font-size="12" lengthAdjust="spacing" textLength="170" x="868" y="452.8838">setup_frequency_segment()</text><line style="stroke:#000000;stroke-width:1.5;" x1="852" x2="852" y1="50.042" y2="846.9253"/><rect fill="#F5DEB3" height="796.8833" style="stroke:#F5DEB3;stroke-width:1.0;" width="381" x="1222" y="50.042"/><rect fill="#F1F1F1" height="47.9375" rx="12.5" ry="12.5" style="stroke:#181818;stroke-width:0.5;" width="319" x="1253" y="533.7139"/><text fill="#000000" font-family="sans-serif" font-size="12" lengthAdjust="spacing" textLength="299" x="1263" y="554.8525">// Keep only noise from related frequencies band</text><text fill="#000000" font-family="sans-serif" font-size="12" lengthAdjust="spacing" textLength="145" x="1263" y="568.8213">select_noise_segment()</text><polygon fill="#F1F1F1" points="1318,485.7139,1507,485.7139,1519,497.7139,1507,509.7139,1318,509.7139,1306,497.7139,1318,485.7139" style="stroke:#181818;stroke-width:0.5;"/><text fill="#000000" font-family="sans-serif" font-size="11" lengthAdjust="spacing" textLength="189" x="1318" y="501.522">Loop over number of known VGB</text><line style="stroke:#000000;stroke-width:1.5;" x1="1222" x2="1222" y1="50.042" y2="846.9253"/><line style="stroke:#000000;stroke-width:1.5;" x1="1603" x2="1603" y1="50.042" y2="846.9253"/><line style="stroke:#181818;stroke-width:1.0;" x1="310" x2="310" y1="95.9951" y2="115.9951"/><polygon fill="#181818" points="306,105.9951,310,115.9951,314,105.9951,310,109.9951" style="stroke:#181818;stroke-width:1.0;"/><line style="stroke:#181818;stroke-width:1.0;" x1="310" x2="310" y1="149.9639" y2="169.9639"/><polygon fill="#181818" points="306,159.9639,310,169.9639,314,159.9639,310,163.9639" style="stroke:#181818;stroke-width:1.0;"/><line style="stroke:#181818;stroke-width:1.0;" x1="310" x2="310" y1="275.8701" y2="295.8701"/><polygon fill="#181818" points="306,285.8701,310,295.8701,314,285.8701,310,289.8701" style="stroke:#181818;stroke-width:1.0;"/><line style="stroke:#181818;stroke-width:1.0;" x1="227.5" x2="34" y1="771.5264" y2="771.5264"/><polygon fill="#181818" points="30,521.1982,34,511.1982,38,521.1982,34,517.1982" style="stroke:#181818;stroke-width:1.0;"/><line style="stroke:#181818;stroke-width:1.0;" x1="34" x2="34" y1="263.8701" y2="771.5264"/><line style="stroke:#181818;stroke-width:1.0;" x1="34" x2="298" y1="263.8701" y2="263.8701"/><polygon fill="#181818" points="288,259.8701,298,263.8701,288,267.8701,292,263.8701" style="stroke:#181818;stroke-width:1.0;"/><line style="stroke:#181818;stroke-width:1.0;" x1="310" x2="310" y1="739.5264" y2="759.5264"/><polygon fill="#181818" points="306,749.5264,310,759.5264,314,749.5264,310,753.5264" style="stroke:#181818;stroke-width:1.0;"/><line style="stroke:#181818;stroke-width:1.0;" x1="310" x2="310" y1="231.8701" y2="251.8701"/><polygon fill="#181818" points="306,241.8701,310,251.8701,314,241.8701,310,245.8701" style="stroke:#181818;stroke-width:1.0;"/><line style="stroke:#181818;stroke-width:1.0;" x1="310" x2="310" y1="783.5264" y2="824.9253"/><polygon fill="#181818" points="306,814.9253,310,824.9253,314,814.9253,310,818.9253" style="stroke:#181818;stroke-width:1.0;"/><text fill="#000000" font-family="sans-serif" font-size="11" lengthAdjust="spacing" textLength="21" x="314" y="804.8311">yes</text><line style="stroke:#181818;stroke-width:1.0;" x1="1412.5" x2="1412.5" y1="509.7139" y2="533.7139"/><polygon fill="#181818" points="1408.5,523.7139,1412.5,533.7139,1416.5,523.7139,1412.5,527.7139" style="stroke:#181818;stroke-width:1.0;"/><line style="stroke:#181818;stroke-width:1.0;" x1="1412.5" x2="1412.5" y1="581.6514" y2="591.6514"/><line style="stroke:#181818;stroke-width:1.0;" x1="1412.5" x2="1584" y1="591.6514" y2="591.6514"/><polygon fill="#181818" points="1580,555.6826,1584,545.6826,1588,555.6826,1584,551.6826" style="stroke:#181818;stroke-width:1.0;"/><line style="stroke:#181818;stroke-width:1.0;" x1="1584" x2="1584" y1="497.7139" y2="591.6514"/><line style="stroke:#181818;stroke-width:1.0;" x1="1584" x2="1519" y1="497.7139" y2="497.7139"/><polygon fill="#181818" points="1529,493.7139,1519,497.7139,1529,501.7139,1525,497.7139" style="stroke:#181818;stroke-width:1.0;"/><line style="stroke:#181818;stroke-width:1.0;" x1="1306" x2="1241" y1="497.7139" y2="497.7139"/><polygon fill="#181818" points="1237,550.4326,1241,560.4326,1245,550.4326,1241,554.4326" style="stroke:#181818;stroke-width:1.0;"/><line style="stroke:#181818;stroke-width:1.0;" x1="1241" x2="1241" y1="497.7139" y2="608.6514"/><line style="stroke:#181818;stroke-width:1.0;" x1="1241" x2="716" y1="608.6514" y2="608.6514"/><line style="stroke:#181818;stroke-width:1.0;" x1="716" x2="716" y1="608.6514" y2="623.6514"/><polygon fill="#181818" points="712,613.6514,716,623.6514,720,613.6514,716,617.6514" style="stroke:#181818;stroke-width:1.0;"/><line style="stroke:#181818;stroke-width:1.0;" x1="310" x2="310" y1="343.8076" y2="348.8076"/><line style="stroke:#181818;stroke-width:1.0;" x1="310" x2="716" y1="348.8076" y2="348.8076"/><line style="stroke:#181818;stroke-width:1.0;" x1="716" x2="716" y1="348.8076" y2="363.8076"/><polygon fill="#181818" points="712,353.8076,716,363.8076,720,353.8076,716,357.8076" style="stroke:#181818;stroke-width:1.0;"/><line style="stroke:#181818;stroke-width:1.0;" x1="716" x2="716" y1="397.7764" y2="402.7764"/><line style="stroke:#181818;stroke-width:1.0;" x1="716" x2="1038" y1="402.7764" y2="402.7764"/><line style="stroke:#181818;stroke-width:1.0;" x1="1038" x2="1038" y1="402.7764" y2="417.7764"/><polygon fill="#181818" points="1034,407.7764,1038,417.7764,1042,407.7764,1038,411.7764" style="stroke:#181818;stroke-width:1.0;"/><line style="stroke:#181818;stroke-width:1.0;" x1="1038" x2="1038" y1="465.7139" y2="470.7139"/><line style="stroke:#181818;stroke-width:1.0;" x1="1038" x2="1412.5" y1="470.7139" y2="470.7139"/><line style="stroke:#181818;stroke-width:1.0;" x1="1412.5" x2="1412.5" y1="470.7139" y2="485.7139"/><polygon fill="#181818" points="1408.5,475.7139,1412.5,485.7139,1416.5,475.7139,1412.5,479.7139" style="stroke:#181818;stroke-width:1.0;"/><line style="stroke:#181818;stroke-width:1.0;" x1="716" x2="716" y1="671.5889" y2="676.5889"/><line style="stroke:#181818;stroke-width:1.0;" x1="716" x2="310" y1="676.5889" y2="676.5889"/><line style="stroke:#181818;stroke-width:1.0;" x1="310" x2="310" y1="676.5889" y2="691.5889"/><polygon fill="#181818" points="306,681.5889,310,691.5889,314,681.5889,310,685.5889" style="stroke:#181818;stroke-width:1.0;"/><text fill="#000000" font-family="sans-serif" font-size="18" lengthAdjust="spacing" textLength="98" x="247.5" y="66.75">GlobalFit.c</text><text fill="#000000" font-family="sans-serif" font-size="18" lengthAdjust="spacing" textLength="264" x="583" y="66.75">VerificationBinaryWrapper.c</text><text fill="#000000" font-family="sans-serif" font-size="18" lengthAdjust="spacing" textLength="232" x="921" y="66.75">GalacticBinaryWrapper.c</text><text fill="#000000" font-family="sans-serif" font-size="18" lengthAdjust="spacing" textLength="149" x="1338" y="66.75">NoiseWrapper.c</text><!--SRC=[dLDVQzim47_tfpZeIyBM5FQuT1jrjcPXInbRrpsQYtIEHIMT9iaDWNpuIR8pqfAdWa7sIRhx_NDKKHFyNjGW5Muz6fZ3EtW3Tysw_WhN7y0u9U7wf9RNTBwg3XUxZZ0Ubfetg6zLd8b35IBwM06ylxg2M_QF9A7rR63zOzMih8gJwRpAswWrYyQo2jH8Z3YPfkfGVDeOOSJBgjbqOwaqyEJIxFGoZFf9Xfze67N_UGKtN_8rQBct4eBQMjHXsDKO8gX87gDY2zmMyW_B6XAvqa_ur9aQJq797lKu4E1mSQELe5htT7WWhrebIezQMVJxFnwT8vyrAA02QHBnI2RGrf2DuMop9MeKKOdpZHAx-qu5I8_b2B4Z26WIrzwAGW4JC_QPnYnBNhYmrVjPkHyezgvfFVtjoOhz4Sa9aC75ksp5YzcxJgLmJBupEqZoUh2zsQGbYVPeUMVpg6avEU3yHkJAQ2Z63e9xqadE78C1Wg806xHol3VgD2JX15pU8oiBXDVed-2i5-j5-UYTp8uUlK3ZDFbHWRCf7kx_IlF3CKw5IuvAPF2SZ72U1ONmDZjYHwgvdlPpz2pRotnyF4OXsn4wzFzn69QadyNvAFYopj0XH7B9MsLLw4X-ckO8J2ndnIy_xYdCqz_6xXy0]--></g></svg>