<?xml version="1.0" encoding="us-ascii" standalone="no"?><svg xmlns="http://www.w3.org/2000/svg" xmlns:xlink="http://www.w3.org/1999/xlink" contentStyleType="text/css" height="2006px" preserveAspectRatio="none" style="width:3415px;height:2006px;background:#FFFFFF;" version="1.1" viewBox="0 0 3415 2006" width="3415px" zoomAndPan="magnify"><defs/><g><text fill="#000000" font-family="sans-serif" font-size="14" font-weight="bold" lengthAdjust="spacing" textLength="454" x="1479.125" y="32.9951">UCB diagram ; 2 + N_MBH &lt;= mpid &lt; 2 + N_MBH + N_UCB</text><rect fill="none" height="20.9531" style="stroke:none;stroke-width:1.0;" width="3382.25" x="15" y="50.042"/><rect fill="#FFFFFF" height="1944.2427" style="stroke:#FFFFFF;stroke-width:1.0;" width="592" x="15" y="50.042"/><ellipse cx="325.5" cy="85.9951" fill="#222222" rx="10" ry="10" style="stroke:#222222;stroke-width:1.0;"/><rect fill="#F1F1F1" height="33.9688" rx="12.5" ry="12.5" style="stroke:#181818;stroke-width:0.5;" width="163" x="244" y="115.9951"/><text fill="#000000" font-family="sans-serif" font-size="12" lengthAdjust="spacing" textLength="143" x="254" y="137.1338">// Forked from MPI_Init()</text><rect fill="#F1F1F1" height="47.9375" rx="12.5" ry="12.5" style="stroke:#181818;stroke-width:0.5;" width="250" x="200.5" y="387.7451"/><text fill="#000000" font-family="sans-serif" font-size="12" lengthAdjust="spacing" textLength="230" x="210.5" y="408.8838">// Allocates GlobalFit TDI AE structures</text><text fill="#000000" font-family="sans-serif" font-size="12" lengthAdjust="spacing" textLength="88" x="210.5" y="422.8525">alloc_gf_data()</text><rect fill="#F1F1F1" height="47.9375" rx="12.5" ry="12.5" style="stroke:#181818;stroke-width:0.5;" width="233" x="209" y="713.4639"/><text fill="#000000" font-family="sans-serif" font-size="12" lengthAdjust="spacing" textLength="213" x="219" y="734.6025">// Propagates input TDI to all mpids.</text><text fill="#000000" font-family="sans-serif" font-size="12" lengthAdjust="spacing" textLength="76" x="219" y="748.5713">share_data()</text><rect fill="#F1F1F1" height="47.9375" rx="12.5" ry="12.5" style="stroke:#181818;stroke-width:0.5;" width="555" x="48" y="879.3701"/><text fill="#000000" font-family="sans-serif" font-size="12" lengthAdjust="spacing" textLength="535" x="58" y="900.5088">// Remove from TDI AE all found signals from last iteration of VGB MBH generated signals</text><text fill="#000000" font-family="sans-serif" font-size="12" lengthAdjust="spacing" textLength="103" x="58" y="914.4775">create_residual()</text><rect fill="#F1F1F1" height="47.9375" rx="12.5" ry="12.5" style="stroke:#181818;stroke-width:0.5;" width="528" x="61.5" y="1635.1357"/><text fill="#000000" font-family="sans-serif" font-size="12" lengthAdjust="spacing" textLength="508" x="71.5" y="1656.2744">// Sends TDI AE from UCB to root process, then from root to all non-UCB processes.</text><text fill="#000000" font-family="sans-serif" font-size="12" lengthAdjust="spacing" textLength="146" x="71.5" y="1670.2432">share_gbmcmc_model()</text><rect fill="#F1F1F1" height="47.9375" rx="12.5" ry="12.5" style="stroke:#181818;stroke-width:0.5;" width="247" x="202" y="1703.0732"/><text fill="#000000" font-family="sans-serif" font-size="12" lengthAdjust="spacing" textLength="227" x="212" y="1724.2119">// Receives TDI AE from root process.</text><text fill="#000000" font-family="sans-serif" font-size="12" lengthAdjust="spacing" textLength="120" x="212" y="1738.1807">share_mbh_model()</text><rect fill="#F1F1F1" height="47.9375" rx="12.5" ry="12.5" style="stroke:#181818;stroke-width:0.5;" width="284" x="183.5" y="1771.0107"/><text fill="#000000" font-family="sans-serif" font-size="12" lengthAdjust="spacing" textLength="264" x="193.5" y="1792.1494">// Receives noise model from root process.</text><text fill="#000000" font-family="sans-serif" font-size="12" lengthAdjust="spacing" textLength="127" x="193.5" y="1806.1182">share_noise_model()</text><rect fill="#F1F1F1" height="47.9375" rx="12.5" ry="12.5" style="stroke:#181818;stroke-width:0.5;" width="247" x="202" y="1838.9482"/><text fill="#000000" font-family="sans-serif" font-size="12" lengthAdjust="spacing" textLength="227" x="212" y="1860.0869">// Receives TDI AE from root process.</text><text fill="#000000" font-family="sans-serif" font-size="12" lengthAdjust="spacing" textLength="145" x="212" y="1874.0557">share_vbmcmc_model()</text><polygon fill="#F1F1F1" points="325.5,835.3701,337.5,847.3701,325.5,859.3701,313.5,847.3701,325.5,835.3701" style="stroke:#181818;stroke-width:0.5;"/><polygon fill="#F1F1F1" points="255,1906.8857,396,1906.8857,408,1918.8857,396,1930.8857,255,1930.8857,243,1918.8857,255,1906.8857" style="stroke:#181818;stroke-width:0.5;"/><text fill="#000000" font-family="sans-serif" font-size="11" lengthAdjust="spacing" textLength="141" x="255" y="1922.6938">GBMCMC steps finished?</text><text fill="#000000" font-family="sans-serif" font-size="11" lengthAdjust="spacing" textLength="14" x="408" y="1916.2915">no</text><ellipse cx="325.5" cy="1983.2847" fill="none" rx="11" ry="11" style="stroke:#222222;stroke-width:1.0;"/><ellipse cx="325.5" cy="1983.2847" fill="#222222" rx="6" ry="6" style="stroke:#222222;stroke-width:1.0;"/><line style="stroke:#000000;stroke-width:1.5;" x1="15" x2="15" y1="50.042" y2="1994.2847"/><rect fill="#FFFFFF" height="1944.2427" style="stroke:#FFFFFF;stroke-width:1.0;" width="201" x="607" y="50.042"/><rect fill="#F1F1F1" height="47.9375" rx="12.5" ry="12.5" style="stroke:#181818;stroke-width:0.5;" width="191" x="613" y="169.9639"/><text fill="#000000" font-family="sans-serif" font-size="12" lengthAdjust="spacing" textLength="171" x="623" y="191.1025">// Reads known-sources file.</text><text fill="#000000" font-family="sans-serif" font-size="12" lengthAdjust="spacing" textLength="89" x="623" y="205.0713">parse_vb_list()</text><rect fill="#F1F1F1" height="47.9375" rx="12.5" ry="12.5" style="stroke:#181818;stroke-width:0.5;" width="119" x="649" y="319.8076"/><text fill="#000000" font-family="sans-serif" font-size="12" lengthAdjust="spacing" textLength="99" x="659" y="340.9463">// Parse any UCB</text><text fill="#000000" font-family="sans-serif" font-size="12" lengthAdjust="spacing" textLength="45" x="659" y="354.915">parse()</text><line style="stroke:#000000;stroke-width:1.5;" x1="607" x2="607" y1="50.042" y2="1994.2847"/><rect fill="#FFFFFF" height="1944.2427" style="stroke:#FFFFFF;stroke-width:1.0;" width="323" x="808" y="50.042"/><rect fill="#F1F1F1" height="61.9063" rx="12.5" ry="12.5" style="stroke:#181818;stroke-width:0.5;" width="202" x="869.5" y="237.9014"/><text fill="#000000" font-family="sans-serif" font-size="12" lengthAdjust="spacing" textLength="168" x="879.5" y="259.04">// search_sources.dat found</text><text fill="#000000" font-family="sans-serif" font-size="12" lengthAdjust="spacing" textLength="182" x="879.5" y="273.0088">// get N_MBH = number of line</text><text fill="#000000" font-family="sans-serif" font-size="12" lengthAdjust="spacing" textLength="110" x="879.5" y="286.9775">parse_mbh_args()</text><rect fill="#F1F1F1" height="47.9375" rx="12.5" ry="12.5" style="stroke:#181818;stroke-width:0.5;" width="313" x="814" y="591.5576"/><text fill="#000000" font-family="sans-serif" font-size="12" lengthAdjust="spacing" textLength="293" x="824" y="612.6963">// Allocates MBH structures (data, het, flags, tdi).</text><text fill="#000000" font-family="sans-serif" font-size="12" lengthAdjust="spacing" textLength="102" x="824" y="626.665">alloc_mbh_data()</text><line style="stroke:#000000;stroke-width:1.5;" x1="808" x2="808" y1="50.042" y2="1994.2847"/><rect fill="#FFFFFF" height="1944.2427" style="stroke:#FFFFFF;stroke-width:1.0;" width="1342.25" x="1131" y="50.042"/><rect fill="#F1F1F1" height="47.9375" rx="12.5" ry="12.5" style="stroke:#181818;stroke-width:0.5;" width="373" x="1670.75" y="455.6826"/><text fill="#000000" font-family="sans-serif" font-size="12" lengthAdjust="spacing" textLength="353" x="1680.75" y="476.8213">// Allocates UCB structures (flags, orbit, chain, data, prior).</text><text fill="#000000" font-family="sans-serif" font-size="12" lengthAdjust="spacing" textLength="128" x="1680.75" y="490.79">alloc_gbmcmc_data()</text><rect fill="#F1F1F1" height="33.9688" rx="12.5" ry="12.5" style="stroke:#181818;stroke-width:0.5;" width="191" x="1761.75" y="781.4014"/><text fill="#000000" font-family="sans-serif" font-size="12" lengthAdjust="spacing" textLength="171" x="1771.75" y="802.54">initialize_gbmcmc_sampler()</text><rect fill="none" height="202.1406" style="stroke:#000000;stroke-width:1.5;" width="1018" x="1451.25" y="937.3076"/><path d="M1667.25,937.3076 L1667.25,946.6045 L1657.25,956.6045 L1451.25,956.6045 " fill="none" style="stroke:#000000;stroke-width:1.5;"/><text fill="#000000" font-family="sans-serif" font-size="14" lengthAdjust="spacing" textLength="206" x="1454.25" y="951.3027">setup_frequency_segment();</text><polygon fill="#F1F1F1" points="1759.25,973.6045,1955.25,973.6045,1967.25,985.6045,1955.25,997.6045,1759.25,997.6045,1747.25,985.6045,1759.25,973.6045" style="stroke:#181818;stroke-width:0.5;"/><text fill="#000000" font-family="sans-serif" font-size="11" lengthAdjust="spacing" textLength="196" x="1759.25" y="989.4126">ucb_frequency_spacing.dat found?</text><text fill="#000000" font-family="sans-serif" font-size="11" lengthAdjust="spacing" textLength="32" x="1715.25" y="983.0103">found</text><text fill="#000000" font-family="sans-serif" font-size="11" lengthAdjust="spacing" textLength="54" x="1967.25" y="983.0103">not found</text><rect fill="#F1F1F1" height="89.8438" rx="12.5" ry="12.5" style="stroke:#181818;stroke-width:0.5;" width="269" x="1471.25" y="1007.6045"/><text fill="#000000" font-family="sans-serif" font-size="12" lengthAdjust="spacing" textLength="149" x="1481.25" y="1028.7432">mpidUcb1 fmin_1 fmax_1</text><text fill="#000000" font-family="sans-serif" font-size="12" lengthAdjust="spacing" textLength="152" x="1481.25" y="1042.7119">mpidUcb2 fmin_2 fmax_2</text><text fill="#000000" font-family="sans-serif" font-size="12" lengthAdjust="spacing" textLength="152" x="1481.25" y="1056.6807">mpidUcb3 fmin_3 fmax_3</text><text fill="#000000" font-family="sans-serif" font-size="12" lengthAdjust="spacing" textLength="9" x="1481.25" y="1070.6494">...</text><text fill="#000000" font-family="sans-serif" font-size="12" lengthAdjust="spacing" textLength="245" x="1481.25" y="1084.6182">mpidUcbN_UCB fmin_N_UCB fmax_N_UCB</text><rect fill="#F1F1F1" height="33.9688" rx="12.5" ry="12.5" style="stroke:#181818;stroke-width:0.5;" width="697" x="1760.25" y="1007.6045"/><text fill="#000000" font-family="sans-serif" font-size="12" lengthAdjust="spacing" textLength="677" x="1770.25" y="1028.7432">// With given global fmin as input and some magical formulas, we determine the fmin and fmax for each process</text><polygon fill="#F1F1F1" points="1857.25,1103.4482,1869.25,1115.4482,1857.25,1127.4482,1845.25,1115.4482,1857.25,1103.4482" style="stroke:#181818;stroke-width:0.5;"/><rect fill="#F1F1F1" height="33.9688" rx="12.5" ry="12.5" style="stroke:#181818;stroke-width:0.5;" width="717" x="1498.75" y="1227.3857"/><text fill="#000000" font-family="sans-serif" font-size="12" lengthAdjust="spacing" textLength="697" x="1508.75" y="1248.5244">// cycle = round ( the max time of all VGB MBH UCB process time) / ( time of one update_gbmcmc_sampler() time )</text><rect fill="#F1F1F1" height="47.9375" rx="12.5" ry="12.5" style="stroke:#181818;stroke-width:0.5;" width="865" x="1424.75" y="1281.3545"/><text fill="#000000" font-family="sans-serif" font-size="12" lengthAdjust="spacing" textLength="845" x="1434.75" y="1302.4932">// This exchange is almost like a synchronization point of all UCB processes. Each one of them waits for left and right neighbor to send data.</text><text fill="#000000" font-family="sans-serif" font-size="12" lengthAdjust="spacing" textLength="226" x="1434.75" y="1316.4619">exchange_gbmcmc_source_params()</text><polygon fill="#F1F1F1" points="1840.25,1349.292,1874.25,1349.292,1886.25,1361.292,1874.25,1373.292,1840.25,1373.292,1828.25,1361.292,1840.25,1349.292" style="stroke:#181818;stroke-width:0.5;"/><text fill="#000000" font-family="sans-serif" font-size="11" lengthAdjust="spacing" textLength="34" x="1840.25" y="1365.1001">mpid?</text><text fill="#000000" font-family="sans-serif" font-size="11" lengthAdjust="spacing" textLength="30" x="1798.25" y="1358.6978">even</text><text fill="#000000" font-family="sans-serif" font-size="11" lengthAdjust="spacing" textLength="21" x="1886.25" y="1358.6978">odd</text><rect fill="#F1F1F1" height="47.9375" rx="12.5" ry="12.5" style="stroke:#181818;stroke-width:0.5;" width="185" x="1477" y="1431.292"/><text fill="#000000" font-family="sans-serif" font-size="12" lengthAdjust="spacing" textLength="48" x="1487" y="1452.4307">// MCMC</text><text fill="#000000" font-family="sans-serif" font-size="12" lengthAdjust="spacing" textLength="165" x="1487" y="1466.3994">update_gbmcmc_sampler()</text><polygon fill="#F1F1F1" points="1490.5,1383.292,1648.5,1383.292,1660.5,1395.292,1648.5,1407.292,1490.5,1407.292,1478.5,1395.292,1490.5,1383.292" style="stroke:#181818;stroke-width:0.5;"/><text fill="#000000" font-family="sans-serif" font-size="11" lengthAdjust="spacing" textLength="158" x="1490.5" y="1399.1001">Loop until done 'cycle' time</text><rect fill="#F1F1F1" height="47.9375" rx="12.5" ry="12.5" style="stroke:#181818;stroke-width:0.5;" width="865" x="1137" y="1537.1982"/><text fill="#000000" font-family="sans-serif" font-size="12" lengthAdjust="spacing" textLength="845" x="1147" y="1558.3369">// This exchange is almost like a synchronization point of all UCB processes. Each one of them waits for left and right neighbor to send data.</text><text fill="#000000" font-family="sans-serif" font-size="12" lengthAdjust="spacing" textLength="226" x="1147" y="1572.3057">exchange_gbmcmc_source_params()</text><rect fill="#F1F1F1" height="33.9688" rx="12.5" ry="12.5" style="stroke:#181818;stroke-width:0.5;" width="246" x="2022" y="1383.292"/><text fill="#000000" font-family="sans-serif" font-size="12" lengthAdjust="spacing" textLength="226" x="2032" y="1404.4307">exchange_gbmcmc_source_params()</text><rect fill="#F1F1F1" height="47.9375" rx="12.5" ry="12.5" style="stroke:#181818;stroke-width:0.5;" width="185" x="2052.5" y="1499.2295"/><text fill="#000000" font-family="sans-serif" font-size="12" lengthAdjust="spacing" textLength="48" x="2062.5" y="1520.3682">// MCMC</text><text fill="#000000" font-family="sans-serif" font-size="12" lengthAdjust="spacing" textLength="165" x="2062.5" y="1534.3369">update_gbmcmc_sampler()</text><polygon fill="#F1F1F1" points="2066,1452.2607,2224,1452.2607,2236,1464.2607,2224,1476.2607,2066,1476.2607,2054,1464.2607,2066,1452.2607" style="stroke:#181818;stroke-width:0.5;"/><text fill="#000000" font-family="sans-serif" font-size="11" lengthAdjust="spacing" textLength="158" x="2066" y="1468.0688">Loop until done 'cycle' time</text><polygon fill="#F1F1F1" points="1857.25,1591.1357,1869.25,1603.1357,1857.25,1615.1357,1845.25,1603.1357,1857.25,1591.1357" style="stroke:#181818;stroke-width:0.5;"/><line style="stroke:#000000;stroke-width:1.5;" x1="1131" x2="1131" y1="50.042" y2="1994.2847"/><rect fill="#FFFFFF" height="1944.2427" style="stroke:#FFFFFF;stroke-width:1.0;" width="593" x="2473.25" y="50.042"/><rect fill="#F1F1F1" height="47.9375" rx="12.5" ry="12.5" style="stroke:#181818;stroke-width:0.5;" width="583" x="2479.25" y="523.6201"/><text fill="#000000" font-family="sans-serif" font-size="12" lengthAdjust="spacing" textLength="563" x="2489.25" y="544.7588">// Allocates VG structures (flags, orbit, chain_vec, data_vec,_prior_vec, trial_vec, model_vec).</text><text fill="#000000" font-family="sans-serif" font-size="12" lengthAdjust="spacing" textLength="127" x="2489.25" y="558.7275">alloc_vbmcmc_data()</text><line style="stroke:#000000;stroke-width:1.5;" x1="2473.25" x2="2473.25" y1="50.042" y2="1994.2847"/><rect fill="#FFFFFF" height="1944.2427" style="stroke:#FFFFFF;stroke-width:1.0;" width="329" x="3066.25" y="50.042"/><rect fill="#F1F1F1" height="33.9688" rx="12.5" ry="12.5" style="stroke:#181818;stroke-width:0.5;" width="129" x="3167.25" y="659.4951"/><text fill="#000000" font-family="sans-serif" font-size="12" lengthAdjust="spacing" textLength="109" x="3177.25" y="680.6338">alloc_noise_data()</text><rect fill="#F1F1F1" height="47.9375" rx="12.5" ry="12.5" style="stroke:#181818;stroke-width:0.5;" width="319" x="3072.25" y="1159.4482"/><text fill="#000000" font-family="sans-serif" font-size="12" lengthAdjust="spacing" textLength="299" x="3082.25" y="1180.5869">// Keep only noise from related frequencies band</text><text fill="#000000" font-family="sans-serif" font-size="12" lengthAdjust="spacing" textLength="145" x="3082.25" y="1194.5557">select_noise_segment()</text><line style="stroke:#000000;stroke-width:1.5;" x1="3066.25" x2="3066.25" y1="50.042" y2="1994.2847"/><line style="stroke:#000000;stroke-width:1.5;" x1="3395.25" x2="3395.25" y1="50.042" y2="1994.2847"/><line style="stroke:#181818;stroke-width:1.0;" x1="325.5" x2="325.5" y1="95.9951" y2="115.9951"/><polygon fill="#181818" points="321.5,105.9951,325.5,115.9951,329.5,105.9951,325.5,109.9951" style="stroke:#181818;stroke-width:1.0;"/><line style="stroke:#181818;stroke-width:1.0;" x1="325.5" x2="325.5" y1="1683.0732" y2="1703.0732"/><polygon fill="#181818" points="321.5,1693.0732,325.5,1703.0732,329.5,1693.0732,325.5,1697.0732" style="stroke:#181818;stroke-width:1.0;"/><line style="stroke:#181818;stroke-width:1.0;" x1="325.5" x2="325.5" y1="1751.0107" y2="1771.0107"/><polygon fill="#181818" points="321.5,1761.0107,325.5,1771.0107,329.5,1761.0107,325.5,1765.0107" style="stroke:#181818;stroke-width:1.0;"/><line style="stroke:#181818;stroke-width:1.0;" x1="325.5" x2="325.5" y1="1818.9482" y2="1838.9482"/><polygon fill="#181818" points="321.5,1828.9482,325.5,1838.9482,329.5,1828.9482,325.5,1832.9482" style="stroke:#181818;stroke-width:1.0;"/><line style="stroke:#181818;stroke-width:1.0;" x1="325.5" x2="325.5" y1="859.3701" y2="879.3701"/><polygon fill="#181818" points="321.5,869.3701,325.5,879.3701,329.5,869.3701,325.5,873.3701" style="stroke:#181818;stroke-width:1.0;"/><line style="stroke:#181818;stroke-width:1.0;" x1="243" x2="34" y1="1918.8857" y2="1918.8857"/><polygon fill="#181818" points="30,1377.1436,34,1367.1436,38,1377.1436,34,1373.1436" style="stroke:#181818;stroke-width:1.0;"/><line style="stroke:#181818;stroke-width:1.0;" x1="34" x2="34" y1="847.3701" y2="1918.8857"/><line style="stroke:#181818;stroke-width:1.0;" x1="34" x2="313.5" y1="847.3701" y2="847.3701"/><polygon fill="#181818" points="303.5,843.3701,313.5,847.3701,303.5,851.3701,307.5,847.3701" style="stroke:#181818;stroke-width:1.0;"/><line style="stroke:#181818;stroke-width:1.0;" x1="325.5" x2="325.5" y1="1886.8857" y2="1906.8857"/><polygon fill="#181818" points="321.5,1896.8857,325.5,1906.8857,329.5,1896.8857,325.5,1900.8857" style="stroke:#181818;stroke-width:1.0;"/><line style="stroke:#181818;stroke-width:1.0;" x1="325.5" x2="325.5" y1="1930.8857" y2="1972.2847"/><polygon fill="#181818" points="321.5,1962.2847,325.5,1972.2847,329.5,1962.2847,325.5,1966.2847" style="stroke:#181818;stroke-width:1.0;"/><text fill="#000000" font-family="sans-serif" font-size="11" lengthAdjust="spacing" textLength="21" x="329.5" y="1952.1904">yes</text><line style="stroke:#181818;stroke-width:1.0;" x1="1747.25" x2="1605.75" y1="985.6045" y2="985.6045"/><line style="stroke:#181818;stroke-width:1.0;" x1="1605.75" x2="1605.75" y1="985.6045" y2="1007.6045"/><polygon fill="#181818" points="1601.75,997.6045,1605.75,1007.6045,1609.75,997.6045,1605.75,1001.6045" style="stroke:#181818;stroke-width:1.0;"/><line style="stroke:#181818;stroke-width:1.0;" x1="1967.25" x2="2108.75" y1="985.6045" y2="985.6045"/><line style="stroke:#181818;stroke-width:1.0;" x1="2108.75" x2="2108.75" y1="985.6045" y2="1007.6045"/><polygon fill="#181818" points="2104.75,997.6045,2108.75,1007.6045,2112.75,997.6045,2108.75,1001.6045" style="stroke:#181818;stroke-width:1.0;"/><line style="stroke:#181818;stroke-width:1.0;" x1="1605.75" x2="1605.75" y1="1097.4482" y2="1115.4482"/><line style="stroke:#181818;stroke-width:1.0;" x1="1605.75" x2="1845.25" y1="1115.4482" y2="1115.4482"/><polygon fill="#181818" points="1835.25,1111.4482,1845.25,1115.4482,1835.25,1119.4482,1839.25,1115.4482" style="stroke:#181818;stroke-width:1.0;"/><line style="stroke:#181818;stroke-width:1.0;" x1="2108.75" x2="2108.75" y1="1041.5732" y2="1115.4482"/><line style="stroke:#181818;stroke-width:1.0;" x1="2108.75" x2="1869.25" y1="1115.4482" y2="1115.4482"/><polygon fill="#181818" points="1879.25,1111.4482,1869.25,1115.4482,1879.25,1119.4482,1875.25,1115.4482" style="stroke:#181818;stroke-width:1.0;"/><line style="stroke:#181818;stroke-width:1.0;" x1="1857.25" x2="1857.25" y1="1261.3545" y2="1281.3545"/><polygon fill="#181818" points="1853.25,1271.3545,1857.25,1281.3545,1861.25,1271.3545,1857.25,1275.3545" style="stroke:#181818;stroke-width:1.0;"/><line style="stroke:#181818;stroke-width:1.0;" x1="1569.5" x2="1569.5" y1="1407.292" y2="1431.292"/><polygon fill="#181818" points="1565.5,1421.292,1569.5,1431.292,1573.5,1421.292,1569.5,1425.292" style="stroke:#181818;stroke-width:1.0;"/><line style="stroke:#181818;stroke-width:1.0;" x1="1569.5" x2="1569.5" y1="1479.2295" y2="1490.1982"/><line style="stroke:#181818;stroke-width:1.0;" x1="1569.5" x2="1674" y1="1490.1982" y2="1490.1982"/><polygon fill="#181818" points="1670,1453.2607,1674,1443.2607,1678,1453.2607,1674,1449.2607" style="stroke:#181818;stroke-width:1.0;"/><line style="stroke:#181818;stroke-width:1.0;" x1="1674" x2="1674" y1="1395.292" y2="1490.1982"/><line style="stroke:#181818;stroke-width:1.0;" x1="1674" x2="1660.5" y1="1395.292" y2="1395.292"/><polygon fill="#181818" points="1670.5,1391.292,1660.5,1395.292,1670.5,1399.292,1666.5,1395.292" style="stroke:#181818;stroke-width:1.0;"/><line style="stroke:#181818;stroke-width:1.0;" x1="1478.5" x2="1465" y1="1395.292" y2="1395.292"/><polygon fill="#181818" points="1461,1439.2607,1465,1449.2607,1469,1439.2607,1465,1443.2607" style="stroke:#181818;stroke-width:1.0;"/><line style="stroke:#181818;stroke-width:1.0;" x1="1465" x2="1465" y1="1395.292" y2="1502.1982"/><line style="stroke:#181818;stroke-width:1.0;" x1="1465" x2="1569.5" y1="1502.1982" y2="1502.1982"/><line style="stroke:#181818;stroke-width:1.0;" x1="1569.5" x2="1569.5" y1="1502.1982" y2="1537.1982"/><polygon fill="#181818" points="1565.5,1527.1982,1569.5,1537.1982,1573.5,1527.1982,1569.5,1531.1982" style="stroke:#181818;stroke-width:1.0;"/><line style="stroke:#181818;stroke-width:1.0;" x1="2145" x2="2145" y1="1476.2607" y2="1499.2295"/><polygon fill="#181818" points="2141,1489.2295,2145,1499.2295,2149,1489.2295,2145,1493.2295" style="stroke:#181818;stroke-width:1.0;"/><line style="stroke:#181818;stroke-width:1.0;" x1="2145" x2="2145" y1="1547.167" y2="1559.167"/><line style="stroke:#181818;stroke-width:1.0;" x1="2145" x2="2249.5" y1="1559.167" y2="1559.167"/><polygon fill="#181818" points="2245.5,1521.1982,2249.5,1511.1982,2253.5,1521.1982,2249.5,1517.1982" style="stroke:#181818;stroke-width:1.0;"/><line style="stroke:#181818;stroke-width:1.0;" x1="2249.5" x2="2249.5" y1="1464.2607" y2="1559.167"/><line style="stroke:#181818;stroke-width:1.0;" x1="2249.5" x2="2236" y1="1464.2607" y2="1464.2607"/><polygon fill="#181818" points="2246,1460.2607,2236,1464.2607,2246,1468.2607,2242,1464.2607" style="stroke:#181818;stroke-width:1.0;"/><line style="stroke:#181818;stroke-width:1.0;" x1="2054" x2="2040.5" y1="1464.2607" y2="1464.2607"/><polygon fill="#181818" points="2036.5,1523.1826,2040.5,1533.1826,2044.5,1523.1826,2040.5,1527.1826" style="stroke:#181818;stroke-width:1.0;"/><line style="stroke:#181818;stroke-width:1.0;" x1="2040.5" x2="2040.5" y1="1464.2607" y2="1603.1357"/><line style="stroke:#181818;stroke-width:1.0;" x1="2040.5" x2="1869.25" y1="1603.1357" y2="1603.1357"/><polygon fill="#181818" points="1879.25,1599.1357,1869.25,1603.1357,1879.25,1607.1357,1875.25,1603.1357" style="stroke:#181818;stroke-width:1.0;"/><line style="stroke:#181818;stroke-width:1.0;" x1="2145" x2="2145" y1="1417.2607" y2="1452.2607"/><polygon fill="#181818" points="2141,1442.2607,2145,1452.2607,2149,1442.2607,2145,1446.2607" style="stroke:#181818;stroke-width:1.0;"/><line style="stroke:#181818;stroke-width:1.0;" x1="1828.25" x2="1569.5" y1="1361.292" y2="1361.292"/><line style="stroke:#181818;stroke-width:1.0;" x1="1569.5" x2="1569.5" y1="1361.292" y2="1383.292"/><polygon fill="#181818" points="1565.5,1373.292,1569.5,1383.292,1573.5,1373.292,1569.5,1377.292" style="stroke:#181818;stroke-width:1.0;"/><line style="stroke:#181818;stroke-width:1.0;" x1="1886.25" x2="2145" y1="1361.292" y2="1361.292"/><line style="stroke:#181818;stroke-width:1.0;" x1="2145" x2="2145" y1="1361.292" y2="1383.292"/><polygon fill="#181818" points="2141,1373.292,2145,1383.292,2149,1373.292,2145,1377.292" style="stroke:#181818;stroke-width:1.0;"/><line style="stroke:#181818;stroke-width:1.0;" x1="1569.5" x2="1569.5" y1="1585.1357" y2="1603.1357"/><line style="stroke:#181818;stroke-width:1.0;" x1="1569.5" x2="1845.25" y1="1603.1357" y2="1603.1357"/><polygon fill="#181818" points="1835.25,1599.1357,1845.25,1603.1357,1835.25,1607.1357,1839.25,1603.1357" style="stroke:#181818;stroke-width:1.0;"/><line style="stroke:#181818;stroke-width:1.0;" x1="1857.25" x2="1857.25" y1="1329.292" y2="1349.292"/><polygon fill="#181818" points="1853.25,1339.292,1857.25,1349.292,1861.25,1339.292,1857.25,1343.292" style="stroke:#181818;stroke-width:1.0;"/><line style="stroke:#181818;stroke-width:1.0;" x1="325.5" x2="325.5" y1="149.9639" y2="154.9639"/><line style="stroke:#181818;stroke-width:1.0;" x1="325.5" x2="708.5" y1="154.9639" y2="154.9639"/><line style="stroke:#181818;stroke-width:1.0;" x1="708.5" x2="708.5" y1="154.9639" y2="169.9639"/><polygon fill="#181818" points="704.5,159.9639,708.5,169.9639,712.5,159.9639,708.5,163.9639" style="stroke:#181818;stroke-width:1.0;"/><line style="stroke:#181818;stroke-width:1.0;" x1="708.5" x2="708.5" y1="217.9014" y2="222.9014"/><line style="stroke:#181818;stroke-width:1.0;" x1="708.5" x2="970.5" y1="222.9014" y2="222.9014"/><line style="stroke:#181818;stroke-width:1.0;" x1="970.5" x2="970.5" y1="222.9014" y2="237.9014"/><polygon fill="#181818" points="966.5,227.9014,970.5,237.9014,974.5,227.9014,970.5,231.9014" style="stroke:#181818;stroke-width:1.0;"/><line style="stroke:#181818;stroke-width:1.0;" x1="970.5" x2="970.5" y1="299.8076" y2="304.8076"/><line style="stroke:#181818;stroke-width:1.0;" x1="970.5" x2="708.5" y1="304.8076" y2="304.8076"/><line style="stroke:#181818;stroke-width:1.0;" x1="708.5" x2="708.5" y1="304.8076" y2="319.8076"/><polygon fill="#181818" points="704.5,309.8076,708.5,319.8076,712.5,309.8076,708.5,313.8076" style="stroke:#181818;stroke-width:1.0;"/><line style="stroke:#181818;stroke-width:1.0;" x1="708.5" x2="708.5" y1="367.7451" y2="372.7451"/><line style="stroke:#181818;stroke-width:1.0;" x1="708.5" x2="325.5" y1="372.7451" y2="372.7451"/><line style="stroke:#181818;stroke-width:1.0;" x1="325.5" x2="325.5" y1="372.7451" y2="387.7451"/><polygon fill="#181818" points="321.5,377.7451,325.5,387.7451,329.5,377.7451,325.5,381.7451" style="stroke:#181818;stroke-width:1.0;"/><line style="stroke:#181818;stroke-width:1.0;" x1="325.5" x2="325.5" y1="435.6826" y2="440.6826"/><line style="stroke:#181818;stroke-width:1.0;" x1="325.5" x2="1857.25" y1="440.6826" y2="440.6826"/><line style="stroke:#181818;stroke-width:1.0;" x1="1857.25" x2="1857.25" y1="440.6826" y2="455.6826"/><polygon fill="#181818" points="1853.25,445.6826,1857.25,455.6826,1861.25,445.6826,1857.25,449.6826" style="stroke:#181818;stroke-width:1.0;"/><line style="stroke:#181818;stroke-width:1.0;" x1="1857.25" x2="1857.25" y1="503.6201" y2="508.6201"/><line style="stroke:#181818;stroke-width:1.0;" x1="1857.25" x2="2770.75" y1="508.6201" y2="508.6201"/><line style="stroke:#181818;stroke-width:1.0;" x1="2770.75" x2="2770.75" y1="508.6201" y2="523.6201"/><polygon fill="#181818" points="2766.75,513.6201,2770.75,523.6201,2774.75,513.6201,2770.75,517.6201" style="stroke:#181818;stroke-width:1.0;"/><line style="stroke:#181818;stroke-width:1.0;" x1="2770.75" x2="2770.75" y1="571.5576" y2="576.5576"/><line style="stroke:#181818;stroke-width:1.0;" x1="2770.75" x2="970.5" y1="576.5576" y2="576.5576"/><line style="stroke:#181818;stroke-width:1.0;" x1="970.5" x2="970.5" y1="576.5576" y2="591.5576"/><polygon fill="#181818" points="966.5,581.5576,970.5,591.5576,974.5,581.5576,970.5,585.5576" style="stroke:#181818;stroke-width:1.0;"/><line style="stroke:#181818;stroke-width:1.0;" x1="970.5" x2="970.5" y1="639.4951" y2="644.4951"/><line style="stroke:#181818;stroke-width:1.0;" x1="970.5" x2="3231.75" y1="644.4951" y2="644.4951"/><line style="stroke:#181818;stroke-width:1.0;" x1="3231.75" x2="3231.75" y1="644.4951" y2="659.4951"/><polygon fill="#181818" points="3227.75,649.4951,3231.75,659.4951,3235.75,649.4951,3231.75,653.4951" style="stroke:#181818;stroke-width:1.0;"/><line style="stroke:#181818;stroke-width:1.0;" x1="3231.75" x2="3231.75" y1="693.4639" y2="698.4639"/><line style="stroke:#181818;stroke-width:1.0;" x1="3231.75" x2="325.5" y1="698.4639" y2="698.4639"/><line style="stroke:#181818;stroke-width:1.0;" x1="325.5" x2="325.5" y1="698.4639" y2="713.4639"/><polygon fill="#181818" points="321.5,703.4639,325.5,713.4639,329.5,703.4639,325.5,707.4639" style="stroke:#181818;stroke-width:1.0;"/><line style="stroke:#181818;stroke-width:1.0;" x1="325.5" x2="325.5" y1="761.4014" y2="766.4014"/><line style="stroke:#181818;stroke-width:1.0;" x1="325.5" x2="1857.25" y1="766.4014" y2="766.4014"/><line style="stroke:#181818;stroke-width:1.0;" x1="1857.25" x2="1857.25" y1="766.4014" y2="781.4014"/><polygon fill="#181818" points="1853.25,771.4014,1857.25,781.4014,1861.25,771.4014,1857.25,775.4014" style="stroke:#181818;stroke-width:1.0;"/><line style="stroke:#181818;stroke-width:1.0;" x1="325.5" x2="325.5" y1="927.3076" y2="937.9561"/><line style="stroke:#181818;stroke-width:1.0;" x1="325.5" x2="1857.25" y1="937.9561" y2="937.9561"/><line style="stroke:#181818;stroke-width:1.0;" x1="1857.25" x2="1857.25" y1="937.9561" y2="973.6045"/><polygon fill="#181818" points="1853.25,963.6045,1857.25,973.6045,1861.25,963.6045,1857.25,967.6045" style="stroke:#181818;stroke-width:1.0;"/><line style="stroke:#181818;stroke-width:1.0;" x1="1857.25" x2="1857.25" y1="1127.4482" y2="1144.4482"/><line style="stroke:#181818;stroke-width:1.0;" x1="1857.25" x2="3231.75" y1="1144.4482" y2="1144.4482"/><line style="stroke:#181818;stroke-width:1.0;" x1="3231.75" x2="3231.75" y1="1144.4482" y2="1159.4482"/><polygon fill="#181818" points="3227.75,1149.4482,3231.75,1159.4482,3235.75,1149.4482,3231.75,1153.4482" style="stroke:#181818;stroke-width:1.0;"/><line style="stroke:#181818;stroke-width:1.0;" x1="3231.75" x2="3231.75" y1="1207.3857" y2="1212.3857"/><line style="stroke:#181818;stroke-width:1.0;" x1="3231.75" x2="1857.25" y1="1212.3857" y2="1212.3857"/><line style="stroke:#181818;stroke-width:1.0;" x1="1857.25" x2="1857.25" y1="1212.3857" y2="1227.3857"/><polygon fill="#181818" points="1853.25,1217.3857,1857.25,1227.3857,1861.25,1217.3857,1857.25,1221.3857" style="stroke:#181818;stroke-width:1.0;"/><line style="stroke:#181818;stroke-width:1.0;" x1="1857.25" x2="1857.25" y1="1615.1357" y2="1620.1357"/><line style="stroke:#181818;stroke-width:1.0;" x1="1857.25" x2="325.5" y1="1620.1357" y2="1620.1357"/><line style="stroke:#181818;stroke-width:1.0;" x1="325.5" x2="325.5" y1="1620.1357" y2="1635.1357"/><polygon fill="#181818" points="321.5,1625.1357,325.5,1635.1357,329.5,1625.1357,325.5,1629.1357" style="stroke:#181818;stroke-width:1.0;"/><line style="stroke:#181818;stroke-width:1.0;" x1="1857.25" x2="1857.25" y1="815.3701" y2="820.3701"/><line style="stroke:#181818;stroke-width:1.0;" x1="1857.25" x2="325.5" y1="820.3701" y2="820.3701"/><line style="stroke:#181818;stroke-width:1.0;" x1="325.5" x2="325.5" y1="820.3701" y2="835.3701"/><polygon fill="#181818" points="321.5,825.3701,325.5,835.3701,329.5,825.3701,325.5,829.3701" style="stroke:#181818;stroke-width:1.0;"/><text fill="#000000" font-family="sans-serif" font-size="18" lengthAdjust="spacing" textLength="98" x="262" y="66.75">GlobalFit.c</text><text fill="#000000" font-family="sans-serif" font-size="18" lengthAdjust="spacing" textLength="169" x="623" y="66.75">GalacticBinaryIO.c</text><text fill="#000000" font-family="sans-serif" font-size="18" lengthAdjust="spacing" textLength="140" x="899.5" y="66.75">MBHWrapper.c</text><text fill="#000000" font-family="sans-serif" font-size="18" lengthAdjust="spacing" textLength="232" x="1686.125" y="66.75">GalacticBinaryWrapper.c</text><text fill="#000000" font-family="sans-serif" font-size="18" lengthAdjust="spacing" textLength="264" x="2637.75" y="66.75">VerificationBinaryWrapper.c</text><text fill="#000000" font-family="sans-serif" font-size="18" lengthAdjust="spacing" textLength="149" x="3156.25" y="66.75">NoiseWrapper.c</text><!--SRC=[pLRVRzis47xtNt707cfZZeCcRqkpeSxQBDZI1LsRFWeKTPA8KAH6KavTv8_l7IdPSdvw633iIJJlUFVnxlkE3YfeXCzdIoYKg9neu0IEu4Vua5qkVuCtfz2qge0tept-alzaSlV3RQq2tfrhcmlzNeM5l9lu85oO0FnqU0ZlhRl10afd6xYykiWkZ0hJsSc4p9kpGWiPb5mg8zpwuayEaGv_H55uk37srXnuspc97agbSK7sLZYFsIhFjFBt8nB4BqwqBRfjB8_2oJhhmomA4Q2qdId8JDOAGt-rKp1TawC3Mu9M1ZUfchpEXAlytkYl-1W8iuwb7UBSFpukN3htLcihHQ2xRepmwTSBUFiEV72T39r3Jxw2_RAgpEWkubbK3ugnJS7Gjb5XMcfH-JbObwim1raBPUR02URGEcNTRB7Dd3UoaOzblqQdIaK9b3Kl8hW-Vmb0jaAPGCHL5e6apU2Kq6dPs0BZSWHnzIJ4noYonSH468DA1QYH4FNuGg56UPWRZoJvO9N7tJJ9tx3XqRuzfCELiwse8YnbsYvn8LZE78Nf6OQlXSD_IWH5MgJogMyuzDABfjNe-XWEMnGiv2Vn3J9jx0gJndkYChWeB_2gCaBxPDN21w0uBbA39NPzlepLhj3mBcuEnEZI4G3Cg0Ugw8JkSUrrEu3AsQubtOUkpKg7VtTev3hpM3LemYQKAc7QoNpiqGgfJBKT4R_C8DHeY9lyQnQFqSsv-9zb_XhAXZZA7_4rUzrRU-DHCXubuz6kyJWPZvFnk3Sk5ejTjpXga-km9FUqF8ckg6dGJ8tjyMuGKc- -g513fLO4lugzYu5036GIt2BR83IY8iLorrpJKP_cS8jG8FMA_94Bq9-a0mo07G65h6akM9geleTY2bKEgzI2tPOzr4G2-ZjY2zReDKHn9Buur94JGtCKYI0NSMWJvr6Z3BsMxhTrBuPmNhcMzFYTWejidSQBylM2eg8GGPd90qcvulrjetq6XtoYzxHKfgujcB3tvPHy1coSzbEjFE1Ncc-cGg2rq8qbSMXrGsy6-BMHjRD6VKjAQQqoOO0pWa4l6RpZ9d1oCXFw1cw52ZxsHsEPMknKLGSmI9-SzcbyUEuF3up4jW7A1dfy9pDwiaGJdxn1AqpAZI2GU3MmZUfDXPp-OMqBdGbAGy6WNiK2lqhrwbrJ2IxFBiys6qyKxgHt8B0n_eZP_xSAxbd3f5LRR5Mwrx7_ihw3Xb-U_7-HgnzcVbGiLvPguomDexx2yqIM96ZUxnylOyt1RYEIhEDJrWEDZ_fqB9oFA976sMxMSRfn57wNdmcH9arqU3vEcZ7_4ipguPNI2pkqzdp9BQC_7jZo_roZV8siDU8s3NTkxi7FQwH1wuDjlmC0]--></g></svg>