<?xml version="1.0" encoding="us-ascii" standalone="no"?><svg xmlns="http://www.w3.org/2000/svg" xmlns:xlink="http://www.w3.org/1999/xlink" contentStyleType="text/css" height="1628px" preserveAspectRatio="none" style="width:2681px;height:1628px;background:#FFFFFF;" version="1.1" viewBox="0 0 2681 1628" width="2681px" zoomAndPan="magnify"><defs/><g><text fill="#000000" font-family="sans-serif" font-size="14" font-weight="bold" lengthAdjust="spacing" textLength="312" x="1183" y="32.9951">MBH diagram ; 2 &lt;= mpid &lt; 2 + N_MBH</text><rect fill="none" height="20.9531" style="stroke:none;stroke-width:1.0;" width="2648" x="15" y="50.042"/><rect fill="#FFFFFF" height="1566.2271" style="stroke:#FFFFFF;stroke-width:1.0;" width="609" x="15" y="50.042"/><ellipse cx="334" cy="85.9951" fill="#222222" rx="10" ry="10" style="stroke:#222222;stroke-width:1.0;"/><rect fill="#F1F1F1" height="33.9688" rx="12.5" ry="12.5" style="stroke:#181818;stroke-width:0.5;" width="163" x="252.5" y="115.9951"/><text fill="#000000" font-family="sans-serif" font-size="12" lengthAdjust="spacing" textLength="143" x="262.5" y="137.1338">// Forked from MPI_Init()</text><rect fill="#F1F1F1" height="47.9375" rx="12.5" ry="12.5" style="stroke:#181818;stroke-width:0.5;" width="250" x="209" y="387.7451"/><text fill="#000000" font-family="sans-serif" font-size="12" lengthAdjust="spacing" textLength="230" x="219" y="408.8838">// Allocates GlobalFit TDI AE structures</text><text fill="#000000" font-family="sans-serif" font-size="12" lengthAdjust="spacing" textLength="88" x="219" y="422.8525">alloc_gf_data()</text><rect fill="#F1F1F1" height="47.9375" rx="12.5" ry="12.5" style="stroke:#181818;stroke-width:0.5;" width="560" x="54" y="879.3701"/><text fill="#000000" font-family="sans-serif" font-size="12" lengthAdjust="spacing" textLength="540" x="64" y="900.5088">// Remove from TDI AET all found signals from last iteration of UCB VGB generated signals</text><text fill="#000000" font-family="sans-serif" font-size="12" lengthAdjust="spacing" textLength="103" x="64" y="914.4775">create_residual()</text><rect fill="#F1F1F1" height="47.9375" rx="12.5" ry="12.5" style="stroke:#181818;stroke-width:0.5;" width="247" x="210.5" y="1257.1201"/><text fill="#000000" font-family="sans-serif" font-size="12" lengthAdjust="spacing" textLength="227" x="220.5" y="1278.2588">// Receives TDI AE from root process.</text><text fill="#000000" font-family="sans-serif" font-size="12" lengthAdjust="spacing" textLength="146" x="220.5" y="1292.2275">share_gbmcmc_model()</text><rect fill="#F1F1F1" height="47.9375" rx="12.5" ry="12.5" style="stroke:#181818;stroke-width:0.5;" width="572" x="48" y="1325.0576"/><text fill="#000000" font-family="sans-serif" font-size="12" lengthAdjust="spacing" textLength="552" x="58" y="1346.1963">// Sends TDI AE from MBH to root process, then from root to all processes (including MBH).</text><text fill="#000000" font-family="sans-serif" font-size="12" lengthAdjust="spacing" textLength="120" x="58" y="1360.165">share_mbh_model()</text><rect fill="#F1F1F1" height="47.9375" rx="12.5" ry="12.5" style="stroke:#181818;stroke-width:0.5;" width="284" x="192" y="1392.9951"/><text fill="#000000" font-family="sans-serif" font-size="12" lengthAdjust="spacing" textLength="264" x="202" y="1414.1338">// Receives noise model from root process.</text><text fill="#000000" font-family="sans-serif" font-size="12" lengthAdjust="spacing" textLength="127" x="202" y="1428.1025">share_noise_model()</text><rect fill="#F1F1F1" height="47.9375" rx="12.5" ry="12.5" style="stroke:#181818;stroke-width:0.5;" width="247" x="210.5" y="1460.9326"/><text fill="#000000" font-family="sans-serif" font-size="12" lengthAdjust="spacing" textLength="227" x="220.5" y="1482.0713">// Receives TDI AE from root process.</text><text fill="#000000" font-family="sans-serif" font-size="12" lengthAdjust="spacing" textLength="145" x="220.5" y="1496.04">share_vbmcmc_model()</text><polygon fill="#F1F1F1" points="334,835.3701,346,847.3701,334,859.3701,322,847.3701,334,835.3701" style="stroke:#181818;stroke-width:0.5;"/><polygon fill="#F1F1F1" points="263.5,1528.8701,404.5,1528.8701,416.5,1540.8701,404.5,1552.8701,263.5,1552.8701,251.5,1540.8701,263.5,1528.8701" style="stroke:#181818;stroke-width:0.5;"/><text fill="#000000" font-family="sans-serif" font-size="11" lengthAdjust="spacing" textLength="141" x="263.5" y="1544.6782">GBMCMC steps finished?</text><text fill="#000000" font-family="sans-serif" font-size="11" lengthAdjust="spacing" textLength="14" x="416.5" y="1538.2759">no</text><ellipse cx="334" cy="1605.269" fill="none" rx="11" ry="11" style="stroke:#222222;stroke-width:1.0;"/><ellipse cx="334" cy="1605.269" fill="#222222" rx="6" ry="6" style="stroke:#222222;stroke-width:1.0;"/><line style="stroke:#000000;stroke-width:1.5;" x1="15" x2="15" y1="50.042" y2="1616.269"/><rect fill="#FFFFFF" height="1566.2271" style="stroke:#FFFFFF;stroke-width:1.0;" width="201" x="624" y="50.042"/><rect fill="#F1F1F1" height="47.9375" rx="12.5" ry="12.5" style="stroke:#181818;stroke-width:0.5;" width="191" x="630" y="169.9639"/><text fill="#000000" font-family="sans-serif" font-size="12" lengthAdjust="spacing" textLength="171" x="640" y="191.1025">// Reads known-sources file.</text><text fill="#000000" font-family="sans-serif" font-size="12" lengthAdjust="spacing" textLength="89" x="640" y="205.0713">parse_vb_list()</text><rect fill="#F1F1F1" height="47.9375" rx="12.5" ry="12.5" style="stroke:#181818;stroke-width:0.5;" width="119" x="666" y="319.8076"/><text fill="#000000" font-family="sans-serif" font-size="12" lengthAdjust="spacing" textLength="99" x="676" y="340.9463">// Parse any UCB</text><text fill="#000000" font-family="sans-serif" font-size="12" lengthAdjust="spacing" textLength="45" x="676" y="354.915">parse()</text><line style="stroke:#000000;stroke-width:1.5;" x1="624" x2="624" y1="50.042" y2="1616.269"/><rect fill="#FFFFFF" height="1566.2271" style="stroke:#FFFFFF;stroke-width:1.0;" width="701" x="825" y="50.042"/><rect fill="#F1F1F1" height="61.9063" rx="12.5" ry="12.5" style="stroke:#181818;stroke-width:0.5;" width="202" x="1075.5" y="237.9014"/><text fill="#000000" font-family="sans-serif" font-size="12" lengthAdjust="spacing" textLength="168" x="1085.5" y="259.04">// search_sources.dat found</text><text fill="#000000" font-family="sans-serif" font-size="12" lengthAdjust="spacing" textLength="182" x="1085.5" y="273.0088">// get N_MBH = number of line</text><text fill="#000000" font-family="sans-serif" font-size="12" lengthAdjust="spacing" textLength="110" x="1085.5" y="286.9775">parse_mbh_args()</text><rect fill="#F1F1F1" height="47.9375" rx="12.5" ry="12.5" style="stroke:#181818;stroke-width:0.5;" width="313" x="1020" y="591.5576"/><text fill="#000000" font-family="sans-serif" font-size="12" lengthAdjust="spacing" textLength="293" x="1030" y="612.6963">// Allocates MBH structures (data, het, flags, tdi).</text><text fill="#000000" font-family="sans-serif" font-size="12" lengthAdjust="spacing" textLength="102" x="1030" y="626.665">alloc_mbh_data()</text><rect fill="#F1F1F1" height="47.9375" rx="12.5" ry="12.5" style="stroke:#181818;stroke-width:0.5;" width="233" x="1060" y="659.4951"/><text fill="#000000" font-family="sans-serif" font-size="12" lengthAdjust="spacing" textLength="213" x="1070" y="680.6338">// Propagates input TDI to all mpids.</text><text fill="#000000" font-family="sans-serif" font-size="12" lengthAdjust="spacing" textLength="76" x="1070" y="694.6025">share_data()</text><rect fill="#F1F1F1" height="33.9688" rx="12.5" ry="12.5" style="stroke:#181818;stroke-width:0.5;" width="165" x="1094" y="727.4326"/><text fill="#000000" font-family="sans-serif" font-size="12" lengthAdjust="spacing" textLength="145" x="1104" y="748.5713">initialize_mbh_sampler()</text><rect fill="#F1F1F1" height="33.9688" rx="12.5" ry="12.5" style="stroke:#181818;stroke-width:0.5;" width="158" x="1097.5" y="947.3076"/><text fill="#000000" font-family="sans-serif" font-size="12" lengthAdjust="spacing" textLength="138" x="1107.5" y="968.4463">select_mbh_segment()</text><rect fill="#F1F1F1" height="47.9375" rx="12.5" ry="12.5" style="stroke:#181818;stroke-width:0.5;" width="319" x="1017" y="1001.2764"/><text fill="#000000" font-family="sans-serif" font-size="12" lengthAdjust="spacing" textLength="299" x="1027" y="1022.415">// Keep only noise from related frequencies band</text><text fill="#000000" font-family="sans-serif" font-size="12" lengthAdjust="spacing" textLength="118" x="1027" y="1036.3838">select_mbh_noise()</text><rect fill="#F1F1F1" height="33.9688" rx="12.5" ry="12.5" style="stroke:#181818;stroke-width:0.5;" width="691" x="831" y="1069.2139"/><text fill="#000000" font-family="sans-serif" font-size="12" lengthAdjust="spacing" textLength="671" x="841" y="1090.3525">// cycle = round ( the max time of all VGB MBH UCB process time) / ( time of one update_mbh_sampler() time )</text><rect fill="#F1F1F1" height="47.9375" rx="12.5" ry="12.5" style="stroke:#181818;stroke-width:0.5;" width="159" x="1097" y="1167.1826"/><text fill="#000000" font-family="sans-serif" font-size="12" lengthAdjust="spacing" textLength="48" x="1107" y="1188.3213">// MCMC</text><text fill="#000000" font-family="sans-serif" font-size="12" lengthAdjust="spacing" textLength="139" x="1107" y="1202.29">update_mbh_sampler()</text><polygon fill="#F1F1F1" points="1097.5,1123.1826,1255.5,1123.1826,1267.5,1135.1826,1255.5,1147.1826,1097.5,1147.1826,1085.5,1135.1826,1097.5,1123.1826" style="stroke:#181818;stroke-width:0.5;"/><text fill="#000000" font-family="sans-serif" font-size="11" lengthAdjust="spacing" textLength="158" x="1097.5" y="1138.9907">Loop until done 'cycle' time</text><line style="stroke:#000000;stroke-width:1.5;" x1="825" x2="825" y1="50.042" y2="1616.269"/><rect fill="#FFFFFF" height="1566.2271" style="stroke:#FFFFFF;stroke-width:1.0;" width="383" x="1526" y="50.042"/><rect fill="#F1F1F1" height="47.9375" rx="12.5" ry="12.5" style="stroke:#181818;stroke-width:0.5;" width="373" x="1532" y="455.6826"/><text fill="#000000" font-family="sans-serif" font-size="12" lengthAdjust="spacing" textLength="353" x="1542" y="476.8213">// Allocates UCB structures (flags, orbit, chain, data, prior).</text><text fill="#000000" font-family="sans-serif" font-size="12" lengthAdjust="spacing" textLength="128" x="1542" y="490.79">alloc_gbmcmc_data()</text><line style="stroke:#000000;stroke-width:1.5;" x1="1526" x2="1526" y1="50.042" y2="1616.269"/><rect fill="#FFFFFF" height="1566.2271" style="stroke:#FFFFFF;stroke-width:1.0;" width="593" x="1909" y="50.042"/><rect fill="#F1F1F1" height="47.9375" rx="12.5" ry="12.5" style="stroke:#181818;stroke-width:0.5;" width="583" x="1915" y="523.6201"/><text fill="#000000" font-family="sans-serif" font-size="12" lengthAdjust="spacing" textLength="563" x="1925" y="544.7588">// Allocates VG structures (flags, orbit, chain_vec, data_vec,_prior_vec, trial_vec, model_vec).</text><text fill="#000000" font-family="sans-serif" font-size="12" lengthAdjust="spacing" textLength="127" x="1925" y="558.7275">alloc_vbmcmc_data()</text><line style="stroke:#000000;stroke-width:1.5;" x1="1909" x2="1909" y1="50.042" y2="1616.269"/><rect fill="#FFFFFF" height="1566.2271" style="stroke:#FFFFFF;stroke-width:1.0;" width="159" x="2502" y="50.042"/><rect fill="#F1F1F1" height="33.9688" rx="12.5" ry="12.5" style="stroke:#181818;stroke-width:0.5;" width="129" x="2518" y="781.4014"/><text fill="#000000" font-family="sans-serif" font-size="12" lengthAdjust="spacing" textLength="109" x="2528" y="802.54">alloc_noise_data()</text><line style="stroke:#000000;stroke-width:1.5;" x1="2502" x2="2502" y1="50.042" y2="1616.269"/><line style="stroke:#000000;stroke-width:1.5;" x1="2661" x2="2661" y1="50.042" y2="1616.269"/><line style="stroke:#181818;stroke-width:1.0;" x1="334" x2="334" y1="95.9951" y2="115.9951"/><polygon fill="#181818" points="330,105.9951,334,115.9951,338,105.9951,334,109.9951" style="stroke:#181818;stroke-width:1.0;"/><line style="stroke:#181818;stroke-width:1.0;" x1="334" x2="334" y1="1305.0576" y2="1325.0576"/><polygon fill="#181818" points="330,1315.0576,334,1325.0576,338,1315.0576,334,1319.0576" style="stroke:#181818;stroke-width:1.0;"/><line style="stroke:#181818;stroke-width:1.0;" x1="334" x2="334" y1="1372.9951" y2="1392.9951"/><polygon fill="#181818" points="330,1382.9951,334,1392.9951,338,1382.9951,334,1386.9951" style="stroke:#181818;stroke-width:1.0;"/><line style="stroke:#181818;stroke-width:1.0;" x1="334" x2="334" y1="1440.9326" y2="1460.9326"/><polygon fill="#181818" points="330,1450.9326,334,1460.9326,338,1450.9326,334,1454.9326" style="stroke:#181818;stroke-width:1.0;"/><line style="stroke:#181818;stroke-width:1.0;" x1="334" x2="334" y1="859.3701" y2="879.3701"/><polygon fill="#181818" points="330,869.3701,334,879.3701,338,869.3701,334,873.3701" style="stroke:#181818;stroke-width:1.0;"/><line style="stroke:#181818;stroke-width:1.0;" x1="251.5" x2="34" y1="1540.8701" y2="1540.8701"/><polygon fill="#181818" points="30,1203.1201,34,1193.1201,38,1203.1201,34,1199.1201" style="stroke:#181818;stroke-width:1.0;"/><line style="stroke:#181818;stroke-width:1.0;" x1="34" x2="34" y1="847.3701" y2="1540.8701"/><line style="stroke:#181818;stroke-width:1.0;" x1="34" x2="322" y1="847.3701" y2="847.3701"/><polygon fill="#181818" points="312,843.3701,322,847.3701,312,851.3701,316,847.3701" style="stroke:#181818;stroke-width:1.0;"/><line style="stroke:#181818;stroke-width:1.0;" x1="334" x2="334" y1="1508.8701" y2="1528.8701"/><polygon fill="#181818" points="330,1518.8701,334,1528.8701,338,1518.8701,334,1522.8701" style="stroke:#181818;stroke-width:1.0;"/><line style="stroke:#181818;stroke-width:1.0;" x1="334" x2="334" y1="1552.8701" y2="1594.269"/><polygon fill="#181818" points="330,1584.269,334,1594.269,338,1584.269,334,1588.269" style="stroke:#181818;stroke-width:1.0;"/><text fill="#000000" font-family="sans-serif" font-size="11" lengthAdjust="spacing" textLength="21" x="338" y="1574.1748">yes</text><line style="stroke:#181818;stroke-width:1.0;" x1="1176.5" x2="1176.5" y1="639.4951" y2="659.4951"/><polygon fill="#181818" points="1172.5,649.4951,1176.5,659.4951,1180.5,649.4951,1176.5,653.4951" style="stroke:#181818;stroke-width:1.0;"/><line style="stroke:#181818;stroke-width:1.0;" x1="1176.5" x2="1176.5" y1="707.4326" y2="727.4326"/><polygon fill="#181818" points="1172.5,717.4326,1176.5,727.4326,1180.5,717.4326,1176.5,721.4326" style="stroke:#181818;stroke-width:1.0;"/><line style="stroke:#181818;stroke-width:1.0;" x1="1176.5" x2="1176.5" y1="981.2764" y2="1001.2764"/><polygon fill="#181818" points="1172.5,991.2764,1176.5,1001.2764,1180.5,991.2764,1176.5,995.2764" style="stroke:#181818;stroke-width:1.0;"/><line style="stroke:#181818;stroke-width:1.0;" x1="1176.5" x2="1176.5" y1="1049.2139" y2="1069.2139"/><polygon fill="#181818" points="1172.5,1059.2139,1176.5,1069.2139,1180.5,1059.2139,1176.5,1063.2139" style="stroke:#181818;stroke-width:1.0;"/><line style="stroke:#181818;stroke-width:1.0;" x1="1176.5" x2="1176.5" y1="1147.1826" y2="1167.1826"/><polygon fill="#181818" points="1172.5,1157.1826,1176.5,1167.1826,1180.5,1157.1826,1176.5,1161.1826" style="stroke:#181818;stroke-width:1.0;"/><line style="stroke:#181818;stroke-width:1.0;" x1="1176.5" x2="1176.5" y1="1215.1201" y2="1225.1201"/><line style="stroke:#181818;stroke-width:1.0;" x1="1176.5" x2="1279.5" y1="1225.1201" y2="1225.1201"/><polygon fill="#181818" points="1275.5,1189.1514,1279.5,1179.1514,1283.5,1189.1514,1279.5,1185.1514" style="stroke:#181818;stroke-width:1.0;"/><line style="stroke:#181818;stroke-width:1.0;" x1="1279.5" x2="1279.5" y1="1135.1826" y2="1225.1201"/><line style="stroke:#181818;stroke-width:1.0;" x1="1279.5" x2="1267.5" y1="1135.1826" y2="1135.1826"/><polygon fill="#181818" points="1277.5,1131.1826,1267.5,1135.1826,1277.5,1139.1826,1273.5,1135.1826" style="stroke:#181818;stroke-width:1.0;"/><line style="stroke:#181818;stroke-width:1.0;" x1="1085.5" x2="1073.5" y1="1135.1826" y2="1135.1826"/><polygon fill="#181818" points="1069.5,1183.9014,1073.5,1193.9014,1077.5,1183.9014,1073.5,1187.9014" style="stroke:#181818;stroke-width:1.0;"/><line style="stroke:#181818;stroke-width:1.0;" x1="1073.5" x2="1073.5" y1="1135.1826" y2="1242.1201"/><line style="stroke:#181818;stroke-width:1.0;" x1="1073.5" x2="334" y1="1242.1201" y2="1242.1201"/><line style="stroke:#181818;stroke-width:1.0;" x1="334" x2="334" y1="1242.1201" y2="1257.1201"/><polygon fill="#181818" points="330,1247.1201,334,1257.1201,338,1247.1201,334,1251.1201" style="stroke:#181818;stroke-width:1.0;"/><line style="stroke:#181818;stroke-width:1.0;" x1="1176.5" x2="1176.5" y1="1103.1826" y2="1123.1826"/><polygon fill="#181818" points="1172.5,1113.1826,1176.5,1123.1826,1180.5,1113.1826,1176.5,1117.1826" style="stroke:#181818;stroke-width:1.0;"/><line style="stroke:#181818;stroke-width:1.0;" x1="334" x2="334" y1="149.9639" y2="154.9639"/><line style="stroke:#181818;stroke-width:1.0;" x1="334" x2="725.5" y1="154.9639" y2="154.9639"/><line style="stroke:#181818;stroke-width:1.0;" x1="725.5" x2="725.5" y1="154.9639" y2="169.9639"/><polygon fill="#181818" points="721.5,159.9639,725.5,169.9639,729.5,159.9639,725.5,163.9639" style="stroke:#181818;stroke-width:1.0;"/><line style="stroke:#181818;stroke-width:1.0;" x1="725.5" x2="725.5" y1="217.9014" y2="222.9014"/><line style="stroke:#181818;stroke-width:1.0;" x1="725.5" x2="1176.5" y1="222.9014" y2="222.9014"/><line style="stroke:#181818;stroke-width:1.0;" x1="1176.5" x2="1176.5" y1="222.9014" y2="237.9014"/><polygon fill="#181818" points="1172.5,227.9014,1176.5,237.9014,1180.5,227.9014,1176.5,231.9014" style="stroke:#181818;stroke-width:1.0;"/><line style="stroke:#181818;stroke-width:1.0;" x1="1176.5" x2="1176.5" y1="299.8076" y2="304.8076"/><line style="stroke:#181818;stroke-width:1.0;" x1="1176.5" x2="725.5" y1="304.8076" y2="304.8076"/><line style="stroke:#181818;stroke-width:1.0;" x1="725.5" x2="725.5" y1="304.8076" y2="319.8076"/><polygon fill="#181818" points="721.5,309.8076,725.5,319.8076,729.5,309.8076,725.5,313.8076" style="stroke:#181818;stroke-width:1.0;"/><line style="stroke:#181818;stroke-width:1.0;" x1="725.5" x2="725.5" y1="367.7451" y2="372.7451"/><line style="stroke:#181818;stroke-width:1.0;" x1="725.5" x2="334" y1="372.7451" y2="372.7451"/><line style="stroke:#181818;stroke-width:1.0;" x1="334" x2="334" y1="372.7451" y2="387.7451"/><polygon fill="#181818" points="330,377.7451,334,387.7451,338,377.7451,334,381.7451" style="stroke:#181818;stroke-width:1.0;"/><line style="stroke:#181818;stroke-width:1.0;" x1="334" x2="334" y1="435.6826" y2="440.6826"/><line style="stroke:#181818;stroke-width:1.0;" x1="334" x2="1718.5" y1="440.6826" y2="440.6826"/><line style="stroke:#181818;stroke-width:1.0;" x1="1718.5" x2="1718.5" y1="440.6826" y2="455.6826"/><polygon fill="#181818" points="1714.5,445.6826,1718.5,455.6826,1722.5,445.6826,1718.5,449.6826" style="stroke:#181818;stroke-width:1.0;"/><line style="stroke:#181818;stroke-width:1.0;" x1="1718.5" x2="1718.5" y1="503.6201" y2="508.6201"/><line style="stroke:#181818;stroke-width:1.0;" x1="1718.5" x2="2206.5" y1="508.6201" y2="508.6201"/><line style="stroke:#181818;stroke-width:1.0;" x1="2206.5" x2="2206.5" y1="508.6201" y2="523.6201"/><polygon fill="#181818" points="2202.5,513.6201,2206.5,523.6201,2210.5,513.6201,2206.5,517.6201" style="stroke:#181818;stroke-width:1.0;"/><line style="stroke:#181818;stroke-width:1.0;" x1="2206.5" x2="2206.5" y1="571.5576" y2="576.5576"/><line style="stroke:#181818;stroke-width:1.0;" x1="2206.5" x2="1176.5" y1="576.5576" y2="576.5576"/><line style="stroke:#181818;stroke-width:1.0;" x1="1176.5" x2="1176.5" y1="576.5576" y2="591.5576"/><polygon fill="#181818" points="1172.5,581.5576,1176.5,591.5576,1180.5,581.5576,1176.5,585.5576" style="stroke:#181818;stroke-width:1.0;"/><line style="stroke:#181818;stroke-width:1.0;" x1="1176.5" x2="1176.5" y1="761.4014" y2="766.4014"/><line style="stroke:#181818;stroke-width:1.0;" x1="1176.5" x2="2582.5" y1="766.4014" y2="766.4014"/><line style="stroke:#181818;stroke-width:1.0;" x1="2582.5" x2="2582.5" y1="766.4014" y2="781.4014"/><polygon fill="#181818" points="2578.5,771.4014,2582.5,781.4014,2586.5,771.4014,2582.5,775.4014" style="stroke:#181818;stroke-width:1.0;"/><line style="stroke:#181818;stroke-width:1.0;" x1="334" x2="334" y1="927.3076" y2="932.3076"/><line style="stroke:#181818;stroke-width:1.0;" x1="334" x2="1176.5" y1="932.3076" y2="932.3076"/><line style="stroke:#181818;stroke-width:1.0;" x1="1176.5" x2="1176.5" y1="932.3076" y2="947.3076"/><polygon fill="#181818" points="1172.5,937.3076,1176.5,947.3076,1180.5,937.3076,1176.5,941.3076" style="stroke:#181818;stroke-width:1.0;"/><line style="stroke:#181818;stroke-width:1.0;" x1="2582.5" x2="2582.5" y1="815.3701" y2="820.3701"/><line style="stroke:#181818;stroke-width:1.0;" x1="2582.5" x2="334" y1="820.3701" y2="820.3701"/><line style="stroke:#181818;stroke-width:1.0;" x1="334" x2="334" y1="820.3701" y2="835.3701"/><polygon fill="#181818" points="330,825.3701,334,835.3701,338,825.3701,334,829.3701" style="stroke:#181818;stroke-width:1.0;"/><text fill="#000000" font-family="sans-serif" font-size="18" lengthAdjust="spacing" textLength="98" x="270.5" y="66.75">GlobalFit.c</text><text fill="#000000" font-family="sans-serif" font-size="18" lengthAdjust="spacing" textLength="169" x="640" y="66.75">GalacticBinaryIO.c</text><text fill="#000000" font-family="sans-serif" font-size="18" lengthAdjust="spacing" textLength="140" x="1105.5" y="66.75">MBHWrapper.c</text><text fill="#000000" font-family="sans-serif" font-size="18" lengthAdjust="spacing" textLength="232" x="1601.5" y="66.75">GalacticBinaryWrapper.c</text><text fill="#000000" font-family="sans-serif" font-size="18" lengthAdjust="spacing" textLength="264" x="2073.5" y="66.75">VerificationBinaryWrapper.c</text><text fill="#000000" font-family="sans-serif" font-size="18" lengthAdjust="spacing" textLength="149" x="2507" y="66.75">NoiseWrapper.c</text><!--SRC=[ZLLDRzim3BtdLn3OeGcMfi2EQxkXwTOisDeLMzST3KMcRQAov4bokWpzyQCa9t7wVLDCyRt7HrBnv1N2-VGBv2HAAseuX7TmT0nrGpaSyVajN6GS7mpktjnMvF5kfin2g3Fo4tatS5vOFm1uVt00PyRUO0w5DJMSNywpkIO_71qEEBp95Kf8Jt9AMjZL_7k0ICa_KEGERhIvrVlEj5QYWu8KJZZU2EimMouoHUu-8alxRKNJeDrYEHHMLba7Cyc5XyAqEkSmHqlqgIGu1jtM2xHW2b2aSKDLBwfCsDAzMlrbI0EXL_3hT0fhdFlfVUDItebIHWhFjMw2SFLf3YUVmNdRIjzQT7nNX7jPMMHSYtXMrGCpjXH1sXOLXeKIfHk3iGloOv2L83s6G326nfAneycMUL7BMZx6VesM2c82Clf51TUpbmHaIvH9H3nbKKZww2q9bOwroJ4UUnANJqfyR4Isci8Wz4Kb0ofaHPq-drEF9yn6ZoHstvf6b16DTDEc5deJ4k8UkP3jAc5n9vDuFxWa-fS6pecwKMZlYRymv71NVjAXGw2FPx514NRnoObRRrfjbfZMDCtQLLGQLmGSbLeeby9AE0yCP6Dxmvg46RgUJNc9TFYAcuG8Boqhm8nzfBmLgXFsT2TOa4E5qYS3iAnH-qrM4FiLiG6ZrGfYlKcMHHMf2uj_MjIIsFY5YFlDFcy1OyeEd5n9VkwEmSPQX-0hX5hy1KyrXlA23w6yC1IXrCOQVa5SZ8_W86HqDur6Q9iybBlJl7HXpSbbCz_mcp4DjDgJWZmaxaKTUmasNapopa_FJxkVZs4VnXZgFC8ENjDgYRHaTxet9RbdZ5yNDacMnT7iTZpkrevfFvbn5oBOm_FTHne7BtMFePl_BXmsYxHKRKww3FcZFdMeyY7lHdrgVRpmV0bf9vv1UeqFouS-fDLQTtCs3NtYHmERy1-boLMOVnm1SOtQX7xkVrYXuqpdJVCV]--></g></svg>