<?xml version="1.0" encoding="UTF-8" standalone="no"?><svg xmlns="http://www.w3.org/2000/svg" xmlns:xlink="http://www.w3.org/1999/xlink" contentStyleType="text/css" height="321px" preserveAspectRatio="none" style="width:995px;height:321px;background:#FFFFFF;" version="1.1" viewBox="0 0 995 321" width="995px" zoomAndPan="magnify"><defs/><g><text fill="#000000" font-family="sans-serif" font-size="14" font-weight="bold" lengthAdjust="spacing" textLength="697" x="147.75" y="32.9951">Case with MBH (search_sources.dat provided) VGB (ldc_sangria_vgb_list.dat provided)</text><ellipse cx="492.25" cy="57.2969" fill="#222222" rx="10" ry="10" style="stroke:#222222;stroke-width:1.0;"/><rect fill="#F1F1F1" height="33.9688" rx="12.5" ry="12.5" style="stroke:#181818;stroke-width:0.5;" width="58" x="463.25" y="87.2969"/><text fill="#000000" font-family="sans-serif" font-size="12" lengthAdjust="spacing" textLength="38" x="473.25" y="108.4355">main()</text><polygon fill="#F1F1F1" points="467.75,141.2656,516.75,141.2656,528.75,153.2656,516.75,165.2656,467.75,165.2656,455.75,153.2656,467.75,141.2656" style="stroke:#181818;stroke-width:0.5;"/><text fill="#000000" font-family="sans-serif" font-size="11" lengthAdjust="spacing" textLength="49" x="467.75" y="157.0737">MPI_Init()</text><rect fill="#F1F1F1" height="33.9688" rx="12.5" ry="12.5" style="stroke:#181818;stroke-width:0.5;" width="147" x="11" y="200.875"/><text fill="#000000" font-family="sans-serif" font-size="12" lengthAdjust="spacing" textLength="127" x="21" y="222.0137">// See Noise diagram</text><rect fill="#F1F1F1" height="33.9688" rx="12.5" ry="12.5" style="stroke:#181818;stroke-width:0.5;" width="138" x="192.5" y="200.875"/><text fill="#000000" font-family="sans-serif" font-size="12" lengthAdjust="spacing" textLength="118" x="202.5" y="222.0137">// See VGB diagram</text><rect fill="#F1F1F1" height="33.9688" rx="12.5" ry="12.5" style="stroke:#181818;stroke-width:0.5;" width="140" x="359.5" y="200.875"/><text fill="#000000" font-family="sans-serif" font-size="12" lengthAdjust="spacing" textLength="120" x="369.5" y="222.0137">// See MBH diagram</text><rect fill="#F1F1F1" height="33.9688" rx="12.5" ry="12.5" style="stroke:#181818;stroke-width:0.5;" width="138" x="620.5" y="200.875"/><text fill="#000000" font-family="sans-serif" font-size="12" lengthAdjust="spacing" textLength="118" x="630.5" y="222.0137">// See UCB diagram</text><polygon fill="#F1F1F1" points="492.25,244.8438,492.25,244.8438,504.25,256.8438,492.25,268.8438,492.25,268.8438,480.25,256.8438,492.25,244.8438" style="stroke:#181818;stroke-width:0.5;"/><ellipse cx="492.25" cy="299.8438" fill="none" rx="11" ry="11" style="stroke:#222222;stroke-width:1.0;"/><ellipse cx="492.25" cy="299.8438" fill="#222222" rx="6" ry="6" style="stroke:#111111;stroke-width:1.0;"/><line style="stroke:#181818;stroke-width:1.0;" x1="492.25" x2="492.25" y1="67.2969" y2="87.2969"/><polygon fill="#181818" points="488.25,77.2969,492.25,87.2969,496.25,77.2969,492.25,81.2969" style="stroke:#181818;stroke-width:1.0;"/><line style="stroke:#181818;stroke-width:1.0;" x1="455.75" x2="84.5" y1="153.2656" y2="153.2656"/><line style="stroke:#181818;stroke-width:1.0;" x1="84.5" x2="84.5" y1="153.2656" y2="200.875"/><polygon fill="#181818" points="80.5,190.875,84.5,200.875,88.5,190.875,84.5,194.875" style="stroke:#181818;stroke-width:1.0;"/><text fill="#000000" font-family="sans-serif" font-size="11" lengthAdjust="spacing" textLength="90" x="88.5" y="180.8784">noise; mpid = 0</text><line style="stroke:#181818;stroke-width:1.0;" x1="528.75" x2="689.5" y1="153.2656" y2="153.2656"/><line style="stroke:#181818;stroke-width:1.0;" x1="689.5" x2="689.5" y1="153.2656" y2="200.875"/><polygon fill="#181818" points="685.5,190.875,689.5,200.875,693.5,190.875,689.5,194.875" style="stroke:#181818;stroke-width:1.0;"/><text fill="#000000" font-family="sans-serif" font-size="11" lengthAdjust="spacing" textLength="286" x="693.5" y="180.8784">ucb; 2 + N_MBH &lt;= mpid &lt; 2 + N_MBH + N_UCB ;</text><line style="stroke:#181818;stroke-width:1.0;" x1="261.5" x2="261.5" y1="153.2656" y2="200.875"/><polygon fill="#181818" points="257.5,190.875,261.5,200.875,265.5,190.875,261.5,194.875" style="stroke:#181818;stroke-width:1.0;"/><text fill="#000000" font-family="sans-serif" font-size="11" lengthAdjust="spacing" textLength="80" x="265.5" y="175.8784">vgb; mpid = 1</text><line style="stroke:#181818;stroke-width:1.0;" x1="429.5" x2="429.5" y1="153.2656" y2="200.875"/><polygon fill="#181818" points="425.5,190.875,429.5,200.875,433.5,190.875,429.5,194.875" style="stroke:#181818;stroke-width:1.0;"/><text fill="#000000" font-family="sans-serif" font-size="11" lengthAdjust="spacing" textLength="173" x="433.5" y="175.8784">mbh; 2 &lt;= mpid &lt; 2 + N_MBH</text><line style="stroke:#181818;stroke-width:1.0;" x1="84.5" x2="84.5" y1="234.8438" y2="256.8438"/><line style="stroke:#181818;stroke-width:1.0;" x1="84.5" x2="480.25" y1="256.8438" y2="256.8438"/><polygon fill="#181818" points="470.25,252.8438,480.25,256.8438,470.25,260.8438,474.25,256.8438" style="stroke:#181818;stroke-width:1.0;"/><line style="stroke:#181818;stroke-width:1.0;" x1="689.5" x2="689.5" y1="234.8438" y2="256.8438"/><line style="stroke:#181818;stroke-width:1.0;" x1="689.5" x2="504.25" y1="256.8438" y2="256.8438"/><polygon fill="#181818" points="514.25,252.8438,504.25,256.8438,514.25,260.8438,510.25,256.8438" style="stroke:#181818;stroke-width:1.0;"/><line style="stroke:#181818;stroke-width:1.0;" x1="261.5" x2="261.5" y1="234.8438" y2="256.8438"/><polygon fill="#181818" points="257.5,246.8438,261.5,256.8438,265.5,246.8438,261.5,250.8438" style="stroke:#181818;stroke-width:1.0;"/><line style="stroke:#181818;stroke-width:1.0;" x1="429.5" x2="429.5" y1="234.8438" y2="256.8438"/><polygon fill="#181818" points="425.5,246.8438,429.5,256.8438,433.5,246.8438,429.5,250.8438" style="stroke:#181818;stroke-width:1.0;"/><line style="stroke:#181818;stroke-width:1.0;" x1="492.25" x2="492.25" y1="121.2656" y2="141.2656"/><polygon fill="#181818" points="488.25,131.2656,492.25,141.2656,496.25,131.2656,492.25,135.2656" style="stroke:#181818;stroke-width:1.0;"/><line style="stroke:#181818;stroke-width:1.0;" x1="492.25" x2="492.25" y1="268.8438" y2="288.8438"/><polygon fill="#181818" points="488.25,278.8438,492.25,288.8438,496.25,278.8438,492.25,282.8438" style="stroke:#181818;stroke-width:1.0;"/><!--SRC=[RP0nRyCW48LtViKRGPMQjcD85cT8CoIgLBKhEWEoJxAn1IJz-mMbQcEb4nptllUuovm7ZnqbZo_EFOxDAsJo56rlqdIErgT7Hnbpd2xil5Fut3UGWxCcKUWYaxbqhHauvQLEY9GfPh4UYODKkjGbmFQGnxU3EGJEKYbXQx14c3XvZN5cXosUe0ImNgtmxZrEjGV7r4KQYyqFKb9_WUS5K3zu9n_RNkC5c-sLsPJx0qwcZdlBrlgEFTjMt-Z_ywZdnww1NhZLbpyt7znr1NKrq_mD]--></g></svg>