<?xml version="1.0" encoding="UTF-8" standalone="no"?><svg xmlns="http://www.w3.org/2000/svg" xmlns:xlink="http://www.w3.org/1999/xlink" contentStyleType="text/css" height="1198px" preserveAspectRatio="none" style="width:1656px;height:1198px;background:#FFFFFF;" version="1.1" viewBox="0 0 1656 1198" width="1656px" zoomAndPan="magnify"><defs/><g><text fill="#000000" font-family="sans-serif" font-size="14" font-weight="bold" lengthAdjust="spacing" textLength="454" x="599.5" y="32.9951">UCB diagram ; 2 + N_MBH &lt;= mpid &lt; 2 + N_MBH + N_UCB</text><rect fill="none" height="20.9531" style="stroke:none;stroke-width:1.0;" width="1623" x="15" y="50.042"/><rect fill="#F5DEB3" height="1136.4067" style="stroke:#F5DEB3;stroke-width:1.0;" width="565" x="15" y="50.042"/><ellipse cx="312" cy="85.9951" fill="#222222" rx="10" ry="10" style="stroke:#222222;stroke-width:1.0;"/><rect fill="#F1F1F1" height="33.9688" rx="12.5" ry="12.5" style="stroke:#181818;stroke-width:0.5;" width="163" x="230.5" y="115.9951"/><text fill="#000000" font-family="sans-serif" font-size="12" lengthAdjust="spacing" textLength="143" x="240.5" y="137.1338">// Forked from MPI_Init()</text><rect fill="#F1F1F1" height="61.9063" rx="12.5" ry="12.5" style="stroke:#181818;stroke-width:0.5;" width="147" x="238.5" y="169.9639"/><text fill="#000000" font-family="sans-serif" font-size="12" lengthAdjust="spacing" textLength="109" x="248.5" y="191.1025">alloc_noise_data()</text><text fill="#000000" font-family="sans-serif" font-size="12" lengthAdjust="spacing" textLength="127" x="248.5" y="205.0713">alloc_vbmcmc_data()</text><text fill="#000000" font-family="sans-serif" font-size="12" lengthAdjust="spacing" textLength="102" x="248.5" y="219.04">alloc_mbh_data()</text><rect fill="#F1F1F1" height="47.9375" rx="12.5" ry="12.5" style="stroke:#181818;stroke-width:0.5;" width="471" x="76.5" y="295.8701"/><text fill="#000000" font-family="sans-serif" font-size="12" lengthAdjust="spacing" textLength="451" x="86.5" y="317.0088">// Remove from TDI AE all found signals from last iteration of UCB VGB MBH</text><text fill="#000000" font-family="sans-serif" font-size="12" lengthAdjust="spacing" textLength="103" x="86.5" y="330.9775">create_residual()</text><rect fill="#F1F1F1" height="47.9375" rx="12.5" ry="12.5" style="stroke:#181818;stroke-width:0.5;" width="528" x="48" y="1031.1123"/><text fill="#000000" font-family="sans-serif" font-size="12" lengthAdjust="spacing" textLength="508" x="58" y="1052.251">// Sends TDI AE from UCB to root process, then from root to all non-UCB processes.</text><text fill="#000000" font-family="sans-serif" font-size="12" lengthAdjust="spacing" textLength="146" x="58" y="1066.2197">share_gbmcmc_model()</text><polygon fill="#F1F1F1" points="312,251.8701,324,263.8701,312,275.8701,300,263.8701,312,251.8701" style="stroke:#181818;stroke-width:0.5;"/><polygon fill="#F1F1F1" points="241.5,1099.0498,382.5,1099.0498,394.5,1111.0498,382.5,1123.0498,241.5,1123.0498,229.5,1111.0498,241.5,1099.0498" style="stroke:#181818;stroke-width:0.5;"/><text fill="#000000" font-family="sans-serif" font-size="11" lengthAdjust="spacing" textLength="141" x="241.5" y="1114.8579">GBMCMC steps finished?</text><text fill="#000000" font-family="sans-serif" font-size="11" lengthAdjust="spacing" textLength="14" x="394.5" y="1108.4556">no</text><ellipse cx="312" cy="1175.4487" fill="none" rx="11" ry="11" style="stroke:#222222;stroke-width:1.0;"/><ellipse cx="312" cy="1175.4487" fill="#222222" rx="6" ry="6" style="stroke:#111111;stroke-width:1.0;"/><line style="stroke:#000000;stroke-width:1.5;" x1="15" x2="15" y1="50.042" y2="1186.4487"/><rect fill="#F0F8FF" height="1136.4067" style="stroke:#F0F8FF;stroke-width:1.0;" width="727" x="580" y="50.042"/><rect fill="none" height="202.1406" style="stroke:#000000;stroke-width:1.5;" width="448.5" x="670" y="353.8076"/><path d="M886,353.8076 L886,363.1045 L876,373.1045 L670,373.1045 " fill="none" style="stroke:#000000;stroke-width:1.5;"/><text fill="#000000" font-family="sans-serif" font-size="14" lengthAdjust="spacing" textLength="206" x="673" y="367.8027">setup_frequency_segment();</text><polygon fill="#F1F1F1" points="846.5,390.1045,1042.5,390.1045,1054.5,402.1045,1042.5,414.1045,846.5,414.1045,834.5,402.1045,846.5,390.1045" style="stroke:#181818;stroke-width:0.5;"/><text fill="#000000" font-family="sans-serif" font-size="11" lengthAdjust="spacing" textLength="196" x="846.5" y="405.9126">ucb_frequency_spacing.dat found?</text><text fill="#000000" font-family="sans-serif" font-size="11" lengthAdjust="spacing" textLength="32" x="802.5" y="399.5103">found</text><text fill="#000000" font-family="sans-serif" font-size="11" lengthAdjust="spacing" textLength="54" x="1054.5" y="399.5103">not found</text><rect fill="#F1F1F1" height="89.8438" rx="12.5" ry="12.5" style="stroke:#181818;stroke-width:0.5;" width="269" x="690" y="424.1045"/><text fill="#000000" font-family="sans-serif" font-size="12" lengthAdjust="spacing" textLength="149" x="700" y="445.2432">mpidUcb1 fmin_1 fmax_1</text><text fill="#000000" font-family="sans-serif" font-size="12" lengthAdjust="spacing" textLength="152" x="700" y="459.2119">mpidUcb2 fmin_2 fmax_2</text><text fill="#000000" font-family="sans-serif" font-size="12" lengthAdjust="spacing" textLength="152" x="700" y="473.1807">mpidUcb3 fmin_3 fmax_3</text><text fill="#000000" font-family="sans-serif" font-size="12" lengthAdjust="spacing" textLength="9" x="700" y="487.1494">...</text><text fill="#000000" font-family="sans-serif" font-size="12" lengthAdjust="spacing" textLength="245" x="700" y="501.1182">mpidUcbN_UCB fmin_N_UCB fmax_N_UCB</text><rect fill="#F1F1F1" height="33.9688" rx="12.5" ry="12.5" style="stroke:#181818;stroke-width:0.5;" width="26" x="1051.5" y="424.1045"/><text fill="#000000" font-family="sans-serif" font-size="12" lengthAdjust="spacing" textLength="6" x="1061.5" y="445.2432">?</text><polygon fill="#F1F1F1" points="944.5,519.9482,956.5,531.9482,944.5,543.9482,932.5,531.9482,944.5,519.9482" style="stroke:#181818;stroke-width:0.5;"/><rect fill="#F1F1F1" height="33.9688" rx="12.5" ry="12.5" style="stroke:#181818;stroke-width:0.5;" width="717" x="586" y="643.8857"/><text fill="#000000" font-family="sans-serif" font-size="12" lengthAdjust="spacing" textLength="697" x="596" y="665.0244">// cycle = round ( the max time of all VGB MBH UCB process time) / ( time of one update_gbmcmc_sampler() time )</text><rect fill="#F1F1F1" height="33.9688" rx="12.5" ry="12.5" style="stroke:#181818;stroke-width:0.5;" width="246" x="821.5" y="705.2686"/><text fill="#000000" font-family="sans-serif" font-size="12" lengthAdjust="spacing" textLength="226" x="831.5" y="726.4072">exchange_gbmcmc_source_params()</text><polygon fill="#F1F1F1" points="927.5,759.2373,961.5,759.2373,973.5,771.2373,961.5,783.2373,927.5,783.2373,915.5,771.2373,927.5,759.2373" style="stroke:#181818;stroke-width:0.5;"/><text fill="#000000" font-family="sans-serif" font-size="11" lengthAdjust="spacing" textLength="34" x="927.5" y="775.0454">mpid?</text><text fill="#000000" font-family="sans-serif" font-size="11" lengthAdjust="spacing" textLength="30" x="885.5" y="768.6431">even</text><text fill="#000000" font-family="sans-serif" font-size="11" lengthAdjust="spacing" textLength="21" x="973.5" y="768.6431">odd</text><rect fill="#F1F1F1" height="47.9375" rx="12.5" ry="12.5" style="stroke:#181818;stroke-width:0.5;" width="185" x="719" y="841.2373"/><text fill="#000000" font-family="sans-serif" font-size="12" lengthAdjust="spacing" textLength="48" x="729" y="862.376">// MCMC</text><text fill="#000000" font-family="sans-serif" font-size="12" lengthAdjust="spacing" textLength="165" x="729" y="876.3447">update_gbmcmc_sampler()</text><polygon fill="#F1F1F1" points="732.5,793.2373,890.5,793.2373,902.5,805.2373,890.5,817.2373,732.5,817.2373,720.5,805.2373,732.5,793.2373" style="stroke:#181818;stroke-width:0.5;"/><text fill="#000000" font-family="sans-serif" font-size="11" lengthAdjust="spacing" textLength="158" x="732.5" y="809.0454">Loop until done 'cycle' time</text><rect fill="#F1F1F1" height="33.9688" rx="12.5" ry="12.5" style="stroke:#181818;stroke-width:0.5;" width="246" x="688.5" y="947.1436"/><text fill="#000000" font-family="sans-serif" font-size="12" lengthAdjust="spacing" textLength="226" x="698.5" y="968.2822">exchange_gbmcmc_source_params()</text><rect fill="#F1F1F1" height="33.9688" rx="12.5" ry="12.5" style="stroke:#181818;stroke-width:0.5;" width="246" x="954.5" y="793.2373"/><text fill="#000000" font-family="sans-serif" font-size="12" lengthAdjust="spacing" textLength="226" x="964.5" y="814.376">exchange_gbmcmc_source_params()</text><rect fill="#F1F1F1" height="47.9375" rx="12.5" ry="12.5" style="stroke:#181818;stroke-width:0.5;" width="185" x="985" y="909.1748"/><text fill="#000000" font-family="sans-serif" font-size="12" lengthAdjust="spacing" textLength="48" x="995" y="930.3135">// MCMC</text><text fill="#000000" font-family="sans-serif" font-size="12" lengthAdjust="spacing" textLength="165" x="995" y="944.2822">update_gbmcmc_sampler()</text><polygon fill="#F1F1F1" points="998.5,862.2061,1156.5,862.2061,1168.5,874.2061,1156.5,886.2061,998.5,886.2061,986.5,874.2061,998.5,862.2061" style="stroke:#181818;stroke-width:0.5;"/><text fill="#000000" font-family="sans-serif" font-size="11" lengthAdjust="spacing" textLength="158" x="998.5" y="878.0142">Loop until done 'cycle' time</text><polygon fill="#F1F1F1" points="944.5,987.1123,956.5,999.1123,944.5,1011.1123,932.5,999.1123,944.5,987.1123" style="stroke:#181818;stroke-width:0.5;"/><line style="stroke:#000000;stroke-width:1.5;" x1="580" x2="580" y1="50.042" y2="1186.4487"/><rect fill="#F5DEB3" height="1136.4067" style="stroke:#F5DEB3;stroke-width:1.0;" width="329" x="1307" y="50.042"/><rect fill="#F1F1F1" height="47.9375" rx="12.5" ry="12.5" style="stroke:#181818;stroke-width:0.5;" width="319" x="1313" y="575.9482"/><text fill="#000000" font-family="sans-serif" font-size="12" lengthAdjust="spacing" textLength="299" x="1323" y="597.0869">// Keep only noise from related frequencies band</text><text fill="#000000" font-family="sans-serif" font-size="12" lengthAdjust="spacing" textLength="145" x="1323" y="611.0557">select_noise_segment()</text><line style="stroke:#000000;stroke-width:1.5;" x1="1307" x2="1307" y1="50.042" y2="1186.4487"/><line style="stroke:#000000;stroke-width:1.5;" x1="1636" x2="1636" y1="50.042" y2="1186.4487"/><line style="stroke:#181818;stroke-width:1.0;" x1="312" x2="312" y1="95.9951" y2="115.9951"/><polygon fill="#181818" points="308,105.9951,312,115.9951,316,105.9951,312,109.9951" style="stroke:#181818;stroke-width:1.0;"/><line style="stroke:#181818;stroke-width:1.0;" x1="312" x2="312" y1="149.9639" y2="169.9639"/><polygon fill="#181818" points="308,159.9639,312,169.9639,316,159.9639,312,163.9639" style="stroke:#181818;stroke-width:1.0;"/><line style="stroke:#181818;stroke-width:1.0;" x1="312" x2="312" y1="275.8701" y2="295.8701"/><polygon fill="#181818" points="308,285.8701,312,295.8701,316,285.8701,312,289.8701" style="stroke:#181818;stroke-width:1.0;"/><line style="stroke:#181818;stroke-width:1.0;" x1="229.5" x2="34" y1="1111.0498" y2="1111.0498"/><polygon fill="#181818" points="30,685.2686,34,675.2686,38,685.2686,34,681.2686" style="stroke:#181818;stroke-width:1.0;"/><line style="stroke:#181818;stroke-width:1.0;" x1="34" x2="34" y1="263.8701" y2="1111.0498"/><line style="stroke:#181818;stroke-width:1.0;" x1="34" x2="300" y1="263.8701" y2="263.8701"/><polygon fill="#181818" points="290,259.8701,300,263.8701,290,267.8701,294,263.8701" style="stroke:#181818;stroke-width:1.0;"/><line style="stroke:#181818;stroke-width:1.0;" x1="312" x2="312" y1="1079.0498" y2="1099.0498"/><polygon fill="#181818" points="308,1089.0498,312,1099.0498,316,1089.0498,312,1093.0498" style="stroke:#181818;stroke-width:1.0;"/><line style="stroke:#181818;stroke-width:1.0;" x1="312" x2="312" y1="231.8701" y2="251.8701"/><polygon fill="#181818" points="308,241.8701,312,251.8701,316,241.8701,312,245.8701" style="stroke:#181818;stroke-width:1.0;"/><line style="stroke:#181818;stroke-width:1.0;" x1="312" x2="312" y1="1123.0498" y2="1164.4487"/><polygon fill="#181818" points="308,1154.4487,312,1164.4487,316,1154.4487,312,1158.4487" style="stroke:#181818;stroke-width:1.0;"/><text fill="#000000" font-family="sans-serif" font-size="11" lengthAdjust="spacing" textLength="21" x="316" y="1144.3545">yes</text><line style="stroke:#181818;stroke-width:1.0;" x1="834.5" x2="824.5" y1="402.1045" y2="402.1045"/><line style="stroke:#181818;stroke-width:1.0;" x1="824.5" x2="824.5" y1="402.1045" y2="424.1045"/><polygon fill="#181818" points="820.5,414.1045,824.5,424.1045,828.5,414.1045,824.5,418.1045" style="stroke:#181818;stroke-width:1.0;"/><line style="stroke:#181818;stroke-width:1.0;" x1="1054.5" x2="1064.5" y1="402.1045" y2="402.1045"/><line style="stroke:#181818;stroke-width:1.0;" x1="1064.5" x2="1064.5" y1="402.1045" y2="424.1045"/><polygon fill="#181818" points="1060.5,414.1045,1064.5,424.1045,1068.5,414.1045,1064.5,418.1045" style="stroke:#181818;stroke-width:1.0;"/><line style="stroke:#181818;stroke-width:1.0;" x1="824.5" x2="824.5" y1="513.9482" y2="531.9482"/><line style="stroke:#181818;stroke-width:1.0;" x1="824.5" x2="932.5" y1="531.9482" y2="531.9482"/><polygon fill="#181818" points="922.5,527.9482,932.5,531.9482,922.5,535.9482,926.5,531.9482" style="stroke:#181818;stroke-width:1.0;"/><line style="stroke:#181818;stroke-width:1.0;" x1="1064.5" x2="1064.5" y1="458.0732" y2="531.9482"/><line style="stroke:#181818;stroke-width:1.0;" x1="1064.5" x2="956.5" y1="531.9482" y2="531.9482"/><polygon fill="#181818" points="966.5,527.9482,956.5,531.9482,966.5,535.9482,962.5,531.9482" style="stroke:#181818;stroke-width:1.0;"/><line style="stroke:#181818;stroke-width:1.0;" x1="944.5" x2="944.5" y1="677.8545" y2="705.2686"/><polygon fill="#181818" points="940.5,695.2686,944.5,705.2686,948.5,695.2686,944.5,699.2686" style="stroke:#181818;stroke-width:1.0;"/><line style="stroke:#181818;stroke-width:1.0;" x1="811.5" x2="811.5" y1="817.2373" y2="841.2373"/><polygon fill="#181818" points="807.5,831.2373,811.5,841.2373,815.5,831.2373,811.5,835.2373" style="stroke:#181818;stroke-width:1.0;"/><line style="stroke:#181818;stroke-width:1.0;" x1="811.5" x2="811.5" y1="889.1748" y2="900.1436"/><line style="stroke:#181818;stroke-width:1.0;" x1="811.5" x2="916" y1="900.1436" y2="900.1436"/><polygon fill="#181818" points="912,863.2061,916,853.2061,920,863.2061,916,859.2061" style="stroke:#181818;stroke-width:1.0;"/><line style="stroke:#181818;stroke-width:1.0;" x1="916" x2="916" y1="805.2373" y2="900.1436"/><line style="stroke:#181818;stroke-width:1.0;" x1="916" x2="902.5" y1="805.2373" y2="805.2373"/><polygon fill="#181818" points="912.5,801.2373,902.5,805.2373,912.5,809.2373,908.5,805.2373" style="stroke:#181818;stroke-width:1.0;"/><line style="stroke:#181818;stroke-width:1.0;" x1="720.5" x2="707" y1="805.2373" y2="805.2373"/><polygon fill="#181818" points="703,849.2061,707,859.2061,711,849.2061,707,853.2061" style="stroke:#181818;stroke-width:1.0;"/><line style="stroke:#181818;stroke-width:1.0;" x1="707" x2="707" y1="805.2373" y2="912.1436"/><line style="stroke:#181818;stroke-width:1.0;" x1="707" x2="811.5" y1="912.1436" y2="912.1436"/><line style="stroke:#181818;stroke-width:1.0;" x1="811.5" x2="811.5" y1="912.1436" y2="947.1436"/><polygon fill="#181818" points="807.5,937.1436,811.5,947.1436,815.5,937.1436,811.5,941.1436" style="stroke:#181818;stroke-width:1.0;"/><line style="stroke:#181818;stroke-width:1.0;" x1="1077.5" x2="1077.5" y1="886.2061" y2="909.1748"/><polygon fill="#181818" points="1073.5,899.1748,1077.5,909.1748,1081.5,899.1748,1077.5,903.1748" style="stroke:#181818;stroke-width:1.0;"/><line style="stroke:#181818;stroke-width:1.0;" x1="1077.5" x2="1077.5" y1="957.1123" y2="969.1123"/><line style="stroke:#181818;stroke-width:1.0;" x1="1077.5" x2="1182" y1="969.1123" y2="969.1123"/><polygon fill="#181818" points="1178,931.1436,1182,921.1436,1186,931.1436,1182,927.1436" style="stroke:#181818;stroke-width:1.0;"/><line style="stroke:#181818;stroke-width:1.0;" x1="1182" x2="1182" y1="874.2061" y2="969.1123"/><line style="stroke:#181818;stroke-width:1.0;" x1="1182" x2="1168.5" y1="874.2061" y2="874.2061"/><polygon fill="#181818" points="1178.5,870.2061,1168.5,874.2061,1178.5,878.2061,1174.5,874.2061" style="stroke:#181818;stroke-width:1.0;"/><line style="stroke:#181818;stroke-width:1.0;" x1="986.5" x2="973" y1="874.2061" y2="874.2061"/><polygon fill="#181818" points="969,926.1436,973,936.1436,977,926.1436,973,930.1436" style="stroke:#181818;stroke-width:1.0;"/><line style="stroke:#181818;stroke-width:1.0;" x1="973" x2="973" y1="874.2061" y2="999.1123"/><line style="stroke:#181818;stroke-width:1.0;" x1="973" x2="956.5" y1="999.1123" y2="999.1123"/><polygon fill="#181818" points="966.5,995.1123,956.5,999.1123,966.5,1003.1123,962.5,999.1123" style="stroke:#181818;stroke-width:1.0;"/><line style="stroke:#181818;stroke-width:1.0;" x1="1077.5" x2="1077.5" y1="827.2061" y2="862.2061"/><polygon fill="#181818" points="1073.5,852.2061,1077.5,862.2061,1081.5,852.2061,1077.5,856.2061" style="stroke:#181818;stroke-width:1.0;"/><line style="stroke:#181818;stroke-width:1.0;" x1="915.5" x2="811.5" y1="771.2373" y2="771.2373"/><line style="stroke:#181818;stroke-width:1.0;" x1="811.5" x2="811.5" y1="771.2373" y2="793.2373"/><polygon fill="#181818" points="807.5,783.2373,811.5,793.2373,815.5,783.2373,811.5,787.2373" style="stroke:#181818;stroke-width:1.0;"/><line style="stroke:#181818;stroke-width:1.0;" x1="973.5" x2="1077.5" y1="771.2373" y2="771.2373"/><line style="stroke:#181818;stroke-width:1.0;" x1="1077.5" x2="1077.5" y1="771.2373" y2="793.2373"/><polygon fill="#181818" points="1073.5,783.2373,1077.5,793.2373,1081.5,783.2373,1077.5,787.2373" style="stroke:#181818;stroke-width:1.0;"/><line style="stroke:#181818;stroke-width:1.0;" x1="811.5" x2="811.5" y1="981.1123" y2="999.1123"/><line style="stroke:#181818;stroke-width:1.0;" x1="811.5" x2="932.5" y1="999.1123" y2="999.1123"/><polygon fill="#181818" points="922.5,995.1123,932.5,999.1123,922.5,1003.1123,926.5,999.1123" style="stroke:#181818;stroke-width:1.0;"/><line style="stroke:#181818;stroke-width:1.0;" x1="944.5" x2="944.5" y1="739.2373" y2="759.2373"/><polygon fill="#181818" points="940.5,749.2373,944.5,759.2373,948.5,749.2373,944.5,753.2373" style="stroke:#181818;stroke-width:1.0;"/><line style="stroke:#181818;stroke-width:1.0;" x1="312" x2="312" y1="343.8076" y2="354.4561"/><line style="stroke:#181818;stroke-width:1.0;" x1="312" x2="944.5" y1="354.4561" y2="354.4561"/><line style="stroke:#181818;stroke-width:1.0;" x1="944.5" x2="944.5" y1="354.4561" y2="390.1045"/><polygon fill="#181818" points="940.5,380.1045,944.5,390.1045,948.5,380.1045,944.5,384.1045" style="stroke:#181818;stroke-width:1.0;"/><line style="stroke:#181818;stroke-width:1.0;" x1="944.5" x2="944.5" y1="543.9482" y2="560.9482"/><line style="stroke:#181818;stroke-width:1.0;" x1="944.5" x2="1472.5" y1="560.9482" y2="560.9482"/><line style="stroke:#181818;stroke-width:1.0;" x1="1472.5" x2="1472.5" y1="560.9482" y2="575.9482"/><polygon fill="#181818" points="1468.5,565.9482,1472.5,575.9482,1476.5,565.9482,1472.5,569.9482" style="stroke:#181818;stroke-width:1.0;"/><line style="stroke:#181818;stroke-width:1.0;" x1="1472.5" x2="1472.5" y1="623.8857" y2="628.8857"/><line style="stroke:#181818;stroke-width:1.0;" x1="1472.5" x2="944.5" y1="628.8857" y2="628.8857"/><line style="stroke:#181818;stroke-width:1.0;" x1="944.5" x2="944.5" y1="628.8857" y2="643.8857"/><polygon fill="#181818" points="940.5,633.8857,944.5,643.8857,948.5,633.8857,944.5,637.8857" style="stroke:#181818;stroke-width:1.0;"/><line style="stroke:#181818;stroke-width:1.0;" x1="944.5" x2="944.5" y1="1011.1123" y2="1016.1123"/><line style="stroke:#181818;stroke-width:1.0;" x1="944.5" x2="312" y1="1016.1123" y2="1016.1123"/><line style="stroke:#181818;stroke-width:1.0;" x1="312" x2="312" y1="1016.1123" y2="1031.1123"/><polygon fill="#181818" points="308,1021.1123,312,1031.1123,316,1021.1123,312,1025.1123" style="stroke:#181818;stroke-width:1.0;"/><text fill="#000000" font-family="sans-serif" font-size="18" lengthAdjust="spacing" textLength="98" x="248.5" y="66.75">GlobalFit.c</text><text fill="#000000" font-family="sans-serif" font-size="18" lengthAdjust="spacing" textLength="232" x="827.5" y="66.75">GalacticBinaryWrapper.c</text><text fill="#000000" font-family="sans-serif" font-size="18" lengthAdjust="spacing" textLength="149" x="1397" y="66.75">NoiseWrapper.c</text><!--SRC=[lLJ1RXCn4BtdAqRgeHj1KpMzaPQgAJHKa0e1XUFAySxkMdXjOtlRHih7ux6zQL89AITEwvttRC_CUsCll4Huk9b39LXZMGSpcC8Rk2-NyqzmSGcT4HLSxCJe6_YZqURegKNcDmkfLqpU2Z_Xcv7ppFeHmBlJKxZLzZTMK5lTmVBhNNcdX2_6in71J4hDIwM5mx9YdXNZ44t1nrN7E_uwsgtQ78e7M3JXxh18Ltt3JZzYkkh7Xpku_aZReDQzgi29HZ7f4YgPyo0yMkQ5Lg3hMFpFnHn2SV4yRiF9M5fqekgPp1S2R8wkfU0ubprk5amoxWMV2yNi-fTbng2b-edOMDqRSEXxKzOM__Ie-Bfqs7Ie_FOuKKFHyzKkmp0kL3C9PQRChyRWMrHGnBznt1Rg9KaU-EeCwaweaZxikJpBQ0Qd2PmcSBeFdYVmF87d6PnC9lkqg7EY3ij0JyjPfA9q28NIETzjXbSPLfMeXrLgoz3AP9rxqlzLzqZEpuW6j99hY0v9obcKGHVoKsgOG0Shfgguow54xhEXNhVw8EM8Ug34b29Vyp0ubs2ZnGeI2a9xm8iEoLLal-ogw31ZDKVd8Zw6KzgHcLeXzAOYppN9-evrHg8jnecJHmQVUSjKyyBIlULO6XQcrb6joLCatjOu-8WggVBKYf1lyKLh0xtoGa955n_7EevJMeDyeRpbpV8c__uZjwt4yUGatG4f9ileAflba2t_8_d1ggCNS-wzQ-dWxu7cXWSccfAazJgu8Cn0blXjwdtoBCK3JcvGMftiE04TZPjhcTscr-aAvTu3DrI-c5DDu3oQy8u99LoBfB9mD7vK-ydxDRfPU7-r-Gi0]--></g></svg>