<?xml version="1.0" encoding="UTF-8" standalone="no"?><svg xmlns="http://www.w3.org/2000/svg" xmlns:xlink="http://www.w3.org/1999/xlink" contentStyleType="text/css" height="1648px" preserveAspectRatio="none" style="width:2696px;height:1648px;background:#FFFFFF;" version="1.1" viewBox="0 0 2696 1648" width="2696px" zoomAndPan="magnify"><defs/><g><text fill="#000000" font-family="sans-serif" font-size="14" font-weight="bold" lengthAdjust="spacing" textLength="454" x="1119.5" y="32.9951">UCB diagram ; 2 + N_MBH &lt;= mpid &lt; 2 + N_MBH + N_UCB</text><rect fill="none" height="20.9531" style="stroke:none;stroke-width:1.0;" width="2663" x="15" y="50.042"/><rect fill="#FFFFFF" height="1586.1802" style="stroke:#FFFFFF;stroke-width:1.0;" width="506" x="15" y="50.042"/><ellipse cx="281.5" cy="85.9951" fill="#222222" rx="10" ry="10" style="stroke:#222222;stroke-width:1.0;"/><rect fill="#F1F1F1" height="33.9688" rx="12.5" ry="12.5" style="stroke:#181818;stroke-width:0.5;" width="163" x="200" y="115.9951"/><text fill="#000000" font-family="sans-serif" font-size="12" lengthAdjust="spacing" textLength="143" x="210" y="137.1338">// Forked from MPI_Init()</text><rect fill="#F1F1F1" height="47.9375" rx="12.5" ry="12.5" style="stroke:#181818;stroke-width:0.5;" width="250" x="156.5" y="387.7451"/><text fill="#000000" font-family="sans-serif" font-size="12" lengthAdjust="spacing" textLength="230" x="166.5" y="408.8838">// Allocates GlobalFit TDI AE structures</text><text fill="#000000" font-family="sans-serif" font-size="12" lengthAdjust="spacing" textLength="88" x="166.5" y="422.8525">alloc_gf_data()</text><rect fill="#F1F1F1" height="47.9375" rx="12.5" ry="12.5" style="stroke:#181818;stroke-width:0.5;" width="247" x="158" y="879.3701"/><text fill="#000000" font-family="sans-serif" font-size="12" lengthAdjust="spacing" textLength="227" x="168" y="900.5088">// Receives TDI AE from root process.</text><text fill="#000000" font-family="sans-serif" font-size="12" lengthAdjust="spacing" textLength="146" x="168" y="914.4775">share_gbmcmc_model()</text><rect fill="#F1F1F1" height="47.9375" rx="12.5" ry="12.5" style="stroke:#181818;stroke-width:0.5;" width="247" x="158" y="947.3076"/><text fill="#000000" font-family="sans-serif" font-size="12" lengthAdjust="spacing" textLength="227" x="168" y="968.4463">// Receives TDI AE from root process.</text><text fill="#000000" font-family="sans-serif" font-size="12" lengthAdjust="spacing" textLength="120" x="168" y="982.415">share_mbh_model()</text><rect fill="#F1F1F1" height="47.9375" rx="12.5" ry="12.5" style="stroke:#181818;stroke-width:0.5;" width="471" x="46" y="1015.2451"/><text fill="#000000" font-family="sans-serif" font-size="12" lengthAdjust="spacing" textLength="451" x="56" y="1036.3838">// Remove from TDI AE all found signals from last iteration of UCB VGB MBH</text><text fill="#000000" font-family="sans-serif" font-size="12" lengthAdjust="spacing" textLength="103" x="56" y="1050.3525">create_residual()</text><rect fill="#F1F1F1" height="47.9375" rx="12.5" ry="12.5" style="stroke:#181818;stroke-width:0.5;" width="284" x="139.5" y="1412.9482"/><text fill="#000000" font-family="sans-serif" font-size="12" lengthAdjust="spacing" textLength="264" x="149.5" y="1434.0869">// Receives noise model from root process.</text><text fill="#000000" font-family="sans-serif" font-size="12" lengthAdjust="spacing" textLength="127" x="149.5" y="1448.0557">share_noise_model()</text><rect fill="#F1F1F1" height="47.9375" rx="12.5" ry="12.5" style="stroke:#181818;stroke-width:0.5;" width="247" x="158" y="1480.8857"/><text fill="#000000" font-family="sans-serif" font-size="12" lengthAdjust="spacing" textLength="227" x="168" y="1502.0244">// Receives TDI AE from root process.</text><text fill="#000000" font-family="sans-serif" font-size="12" lengthAdjust="spacing" textLength="145" x="168" y="1515.9932">share_vbmcmc_model()</text><polygon fill="#F1F1F1" points="281.5,835.3701,293.5,847.3701,281.5,859.3701,269.5,847.3701,281.5,835.3701" style="stroke:#181818;stroke-width:0.5;"/><polygon fill="#F1F1F1" points="211,1548.8232,352,1548.8232,364,1560.8232,352,1572.8232,211,1572.8232,199,1560.8232,211,1548.8232" style="stroke:#181818;stroke-width:0.5;"/><text fill="#000000" font-family="sans-serif" font-size="11" lengthAdjust="spacing" textLength="141" x="211" y="1564.6313">GBMCMC steps finished?</text><text fill="#000000" font-family="sans-serif" font-size="11" lengthAdjust="spacing" textLength="14" x="364" y="1558.229">no</text><ellipse cx="281.5" cy="1625.2222" fill="none" rx="11" ry="11" style="stroke:#222222;stroke-width:1.0;"/><ellipse cx="281.5" cy="1625.2222" fill="#222222" rx="6" ry="6" style="stroke:#111111;stroke-width:1.0;"/><line style="stroke:#000000;stroke-width:1.5;" x1="15" x2="15" y1="50.042" y2="1636.2222"/><rect fill="#FFFFFF" height="1586.1802" style="stroke:#FFFFFF;stroke-width:1.0;" width="201" x="521" y="50.042"/><rect fill="#F1F1F1" height="47.9375" rx="12.5" ry="12.5" style="stroke:#181818;stroke-width:0.5;" width="191" x="527" y="169.9639"/><text fill="#000000" font-family="sans-serif" font-size="12" lengthAdjust="spacing" textLength="171" x="537" y="191.1025">// Reads known-sources file.</text><text fill="#000000" font-family="sans-serif" font-size="12" lengthAdjust="spacing" textLength="89" x="537" y="205.0713">parse_vb_list()</text><rect fill="#F1F1F1" height="47.9375" rx="12.5" ry="12.5" style="stroke:#181818;stroke-width:0.5;" width="119" x="563" y="319.8076"/><text fill="#000000" font-family="sans-serif" font-size="12" lengthAdjust="spacing" textLength="99" x="573" y="340.9463">// Parse any UCB</text><text fill="#000000" font-family="sans-serif" font-size="12" lengthAdjust="spacing" textLength="45" x="573" y="354.915">parse()</text><line style="stroke:#000000;stroke-width:1.5;" x1="521" x2="521" y1="50.042" y2="1636.2222"/><rect fill="#FFFFFF" height="1586.1802" style="stroke:#FFFFFF;stroke-width:1.0;" width="323" x="722" y="50.042"/><rect fill="#F1F1F1" height="61.9063" rx="12.5" ry="12.5" style="stroke:#181818;stroke-width:0.5;" width="202" x="783.5" y="237.9014"/><text fill="#000000" font-family="sans-serif" font-size="12" lengthAdjust="spacing" textLength="168" x="793.5" y="259.04">// search_sources.dat found</text><text fill="#000000" font-family="sans-serif" font-size="12" lengthAdjust="spacing" textLength="182" x="793.5" y="273.0088">// get N_MBH = number of line</text><text fill="#000000" font-family="sans-serif" font-size="12" lengthAdjust="spacing" textLength="110" x="793.5" y="286.9775">parse_mbh_args()</text><rect fill="#F1F1F1" height="47.9375" rx="12.5" ry="12.5" style="stroke:#181818;stroke-width:0.5;" width="313" x="728" y="591.5576"/><text fill="#000000" font-family="sans-serif" font-size="12" lengthAdjust="spacing" textLength="293" x="738" y="612.6963">// Allocates MBH structures (data, het, flags, tdi).</text><text fill="#000000" font-family="sans-serif" font-size="12" lengthAdjust="spacing" textLength="102" x="738" y="626.665">alloc_mbh_data()</text><line style="stroke:#000000;stroke-width:1.5;" x1="722" x2="722" y1="50.042" y2="1636.2222"/><rect fill="#FFFFFF" height="1586.1802" style="stroke:#FFFFFF;stroke-width:1.0;" width="383" x="1045" y="50.042"/><rect fill="#F1F1F1" height="47.9375" rx="12.5" ry="12.5" style="stroke:#181818;stroke-width:0.5;" width="373" x="1051" y="455.6826"/><text fill="#000000" font-family="sans-serif" font-size="12" lengthAdjust="spacing" textLength="353" x="1061" y="476.8213">// Allocates UCB structures (flags, orbit, chain, data, prior).</text><text fill="#000000" font-family="sans-serif" font-size="12" lengthAdjust="spacing" textLength="128" x="1061" y="490.79">alloc_gbmcmc_data()</text><rect fill="#F1F1F1" height="47.9375" rx="12.5" ry="12.5" style="stroke:#181818;stroke-width:0.5;" width="360" x="1057.5" y="1137.1514"/><text fill="#000000" font-family="sans-serif" font-size="12" lengthAdjust="spacing" textLength="340" x="1067.5" y="1158.29">// This is not the same function as for UCB. For VGB only.</text><text fill="#000000" font-family="sans-serif" font-size="12" lengthAdjust="spacing" textLength="170" x="1067.5" y="1172.2588">setup_frequency_segment()</text><line style="stroke:#000000;stroke-width:1.5;" x1="1045" x2="1045" y1="50.042" y2="1636.2222"/><rect fill="#FFFFFF" height="1586.1802" style="stroke:#FFFFFF;stroke-width:1.0;" width="593" x="1428" y="50.042"/><rect fill="#F1F1F1" height="47.9375" rx="12.5" ry="12.5" style="stroke:#181818;stroke-width:0.5;" width="583" x="1434" y="523.6201"/><text fill="#000000" font-family="sans-serif" font-size="12" lengthAdjust="spacing" textLength="563" x="1444" y="544.7588">// Allocates VG structures (flags, orbit, chain_vec, data_vec,_prior_vec, trial_vec, model_vec).</text><text fill="#000000" font-family="sans-serif" font-size="12" lengthAdjust="spacing" textLength="127" x="1444" y="558.7275">alloc_vbmcmc_data()</text><line style="stroke:#000000;stroke-width:1.5;" x1="1428" x2="1428" y1="50.042" y2="1636.2222"/><rect fill="#FFFFFF" height="1586.1802" style="stroke:#FFFFFF;stroke-width:1.0;" width="381" x="2021" y="50.042"/><rect fill="#F1F1F1" height="33.9688" rx="12.5" ry="12.5" style="stroke:#181818;stroke-width:0.5;" width="129" x="2147" y="659.4951"/><text fill="#000000" font-family="sans-serif" font-size="12" lengthAdjust="spacing" textLength="109" x="2157" y="680.6338">alloc_noise_data()</text><rect fill="#F1F1F1" height="47.9375" rx="12.5" ry="12.5" style="stroke:#181818;stroke-width:0.5;" width="233" x="2095" y="713.4639"/><text fill="#000000" font-family="sans-serif" font-size="12" lengthAdjust="spacing" textLength="213" x="2105" y="734.6025">// Propagates input TDI to all mpids.</text><text fill="#000000" font-family="sans-serif" font-size="12" lengthAdjust="spacing" textLength="76" x="2105" y="748.5713">share_data()</text><rect fill="#F1F1F1" height="33.9688" rx="12.5" ry="12.5" style="stroke:#181818;stroke-width:0.5;" width="190" x="2116.5" y="781.4014"/><text fill="#000000" font-family="sans-serif" font-size="12" lengthAdjust="spacing" textLength="170" x="2126.5" y="802.54">initialize_vbmcmc_sampler()</text><rect fill="#F1F1F1" height="47.9375" rx="12.5" ry="12.5" style="stroke:#181818;stroke-width:0.5;" width="319" x="2052" y="1255.0732"/><text fill="#000000" font-family="sans-serif" font-size="12" lengthAdjust="spacing" textLength="299" x="2062" y="1276.2119">// Keep only noise from related frequencies band</text><text fill="#000000" font-family="sans-serif" font-size="12" lengthAdjust="spacing" textLength="145" x="2062" y="1290.1807">select_noise_segment()</text><polygon fill="#F1F1F1" points="2117,1211.0732,2306,1211.0732,2318,1223.0732,2306,1235.0732,2117,1235.0732,2105,1223.0732,2117,1211.0732" style="stroke:#181818;stroke-width:0.5;"/><text fill="#000000" font-family="sans-serif" font-size="11" lengthAdjust="spacing" textLength="189" x="2117" y="1226.8813">Loop over number of known VGB</text><line style="stroke:#000000;stroke-width:1.5;" x1="2021" x2="2021" y1="50.042" y2="1636.2222"/><rect fill="#FFFFFF" height="1586.1802" style="stroke:#FFFFFF;stroke-width:1.0;" width="274" x="2402" y="50.042"/><rect fill="#F1F1F1" height="33.9688" rx="12.5" ry="12.5" style="stroke:#181818;stroke-width:0.5;" width="190" x="2445" y="1083.1826"/><text fill="#000000" font-family="sans-serif" font-size="12" lengthAdjust="spacing" textLength="170" x="2455" y="1104.3213">select_vbmcmc_segments()</text><rect fill="#F1F1F1" height="47.9375" rx="12.5" ry="12.5" style="stroke:#181818;stroke-width:0.5;" width="184" x="2448" y="1345.0107"/><text fill="#000000" font-family="sans-serif" font-size="12" lengthAdjust="spacing" textLength="48" x="2458" y="1366.1494">// MCMC</text><text fill="#000000" font-family="sans-serif" font-size="12" lengthAdjust="spacing" textLength="164" x="2458" y="1380.1182">update_vbmcmc_sampler()</text><line style="stroke:#000000;stroke-width:1.5;" x1="2402" x2="2402" y1="50.042" y2="1636.2222"/><line style="stroke:#000000;stroke-width:1.5;" x1="2676" x2="2676" y1="50.042" y2="1636.2222"/><line style="stroke:#181818;stroke-width:1.0;" x1="281.5" x2="281.5" y1="95.9951" y2="115.9951"/><polygon fill="#181818" points="277.5,105.9951,281.5,115.9951,285.5,105.9951,281.5,109.9951" style="stroke:#181818;stroke-width:1.0;"/><line style="stroke:#181818;stroke-width:1.0;" x1="281.5" x2="281.5" y1="927.3076" y2="947.3076"/><polygon fill="#181818" points="277.5,937.3076,281.5,947.3076,285.5,937.3076,281.5,941.3076" style="stroke:#181818;stroke-width:1.0;"/><line style="stroke:#181818;stroke-width:1.0;" x1="281.5" x2="281.5" y1="995.2451" y2="1015.2451"/><polygon fill="#181818" points="277.5,1005.2451,281.5,1015.2451,285.5,1005.2451,281.5,1009.2451" style="stroke:#181818;stroke-width:1.0;"/><line style="stroke:#181818;stroke-width:1.0;" x1="281.5" x2="281.5" y1="1460.8857" y2="1480.8857"/><polygon fill="#181818" points="277.5,1470.8857,281.5,1480.8857,285.5,1470.8857,281.5,1474.8857" style="stroke:#181818;stroke-width:1.0;"/><line style="stroke:#181818;stroke-width:1.0;" x1="281.5" x2="281.5" y1="859.3701" y2="879.3701"/><polygon fill="#181818" points="277.5,869.3701,281.5,879.3701,285.5,869.3701,281.5,873.3701" style="stroke:#181818;stroke-width:1.0;"/><line style="stroke:#181818;stroke-width:1.0;" x1="199" x2="34" y1="1560.8232" y2="1560.8232"/><polygon fill="#181818" points="30,1205.0889,34,1195.0889,38,1205.0889,34,1201.0889" style="stroke:#181818;stroke-width:1.0;"/><line style="stroke:#181818;stroke-width:1.0;" x1="34" x2="34" y1="847.3701" y2="1560.8232"/><line style="stroke:#181818;stroke-width:1.0;" x1="34" x2="269.5" y1="847.3701" y2="847.3701"/><polygon fill="#181818" points="259.5,843.3701,269.5,847.3701,259.5,851.3701,263.5,847.3701" style="stroke:#181818;stroke-width:1.0;"/><line style="stroke:#181818;stroke-width:1.0;" x1="281.5" x2="281.5" y1="1528.8232" y2="1548.8232"/><polygon fill="#181818" points="277.5,1538.8232,281.5,1548.8232,285.5,1538.8232,281.5,1542.8232" style="stroke:#181818;stroke-width:1.0;"/><line style="stroke:#181818;stroke-width:1.0;" x1="281.5" x2="281.5" y1="1572.8232" y2="1614.2222"/><polygon fill="#181818" points="277.5,1604.2222,281.5,1614.2222,285.5,1604.2222,281.5,1608.2222" style="stroke:#181818;stroke-width:1.0;"/><text fill="#000000" font-family="sans-serif" font-size="11" lengthAdjust="spacing" textLength="21" x="285.5" y="1594.1279">yes</text><line style="stroke:#181818;stroke-width:1.0;" x1="2211.5" x2="2211.5" y1="693.4639" y2="713.4639"/><polygon fill="#181818" points="2207.5,703.4639,2211.5,713.4639,2215.5,703.4639,2211.5,707.4639" style="stroke:#181818;stroke-width:1.0;"/><line style="stroke:#181818;stroke-width:1.0;" x1="2211.5" x2="2211.5" y1="761.4014" y2="781.4014"/><polygon fill="#181818" points="2207.5,771.4014,2211.5,781.4014,2215.5,771.4014,2211.5,775.4014" style="stroke:#181818;stroke-width:1.0;"/><line style="stroke:#181818;stroke-width:1.0;" x1="2211.5" x2="2211.5" y1="1235.0732" y2="1255.0732"/><polygon fill="#181818" points="2207.5,1245.0732,2211.5,1255.0732,2215.5,1245.0732,2211.5,1249.0732" style="stroke:#181818;stroke-width:1.0;"/><line style="stroke:#181818;stroke-width:1.0;" x1="2211.5" x2="2211.5" y1="1303.0107" y2="1313.0107"/><line style="stroke:#181818;stroke-width:1.0;" x1="2211.5" x2="2383" y1="1313.0107" y2="1313.0107"/><polygon fill="#181818" points="2379,1277.042,2383,1267.042,2387,1277.042,2383,1273.042" style="stroke:#181818;stroke-width:1.0;"/><line style="stroke:#181818;stroke-width:1.0;" x1="2383" x2="2383" y1="1223.0732" y2="1313.0107"/><line style="stroke:#181818;stroke-width:1.0;" x1="2383" x2="2318" y1="1223.0732" y2="1223.0732"/><polygon fill="#181818" points="2328,1219.0732,2318,1223.0732,2328,1227.0732,2324,1223.0732" style="stroke:#181818;stroke-width:1.0;"/><line style="stroke:#181818;stroke-width:1.0;" x1="2105" x2="2040" y1="1223.0732" y2="1223.0732"/><polygon fill="#181818" points="2036,1271.792,2040,1281.792,2044,1271.792,2040,1275.792" style="stroke:#181818;stroke-width:1.0;"/><line style="stroke:#181818;stroke-width:1.0;" x1="2040" x2="2040" y1="1223.0732" y2="1330.0107"/><line style="stroke:#181818;stroke-width:1.0;" x1="2040" x2="2540" y1="1330.0107" y2="1330.0107"/><line style="stroke:#181818;stroke-width:1.0;" x1="2540" x2="2540" y1="1330.0107" y2="1345.0107"/><polygon fill="#181818" points="2536,1335.0107,2540,1345.0107,2544,1335.0107,2540,1339.0107" style="stroke:#181818;stroke-width:1.0;"/><line style="stroke:#181818;stroke-width:1.0;" x1="281.5" x2="281.5" y1="149.9639" y2="154.9639"/><line style="stroke:#181818;stroke-width:1.0;" x1="281.5" x2="622.5" y1="154.9639" y2="154.9639"/><line style="stroke:#181818;stroke-width:1.0;" x1="622.5" x2="622.5" y1="154.9639" y2="169.9639"/><polygon fill="#181818" points="618.5,159.9639,622.5,169.9639,626.5,159.9639,622.5,163.9639" style="stroke:#181818;stroke-width:1.0;"/><line style="stroke:#181818;stroke-width:1.0;" x1="622.5" x2="622.5" y1="217.9014" y2="222.9014"/><line style="stroke:#181818;stroke-width:1.0;" x1="622.5" x2="884.5" y1="222.9014" y2="222.9014"/><line style="stroke:#181818;stroke-width:1.0;" x1="884.5" x2="884.5" y1="222.9014" y2="237.9014"/><polygon fill="#181818" points="880.5,227.9014,884.5,237.9014,888.5,227.9014,884.5,231.9014" style="stroke:#181818;stroke-width:1.0;"/><line style="stroke:#181818;stroke-width:1.0;" x1="884.5" x2="884.5" y1="299.8076" y2="304.8076"/><line style="stroke:#181818;stroke-width:1.0;" x1="884.5" x2="622.5" y1="304.8076" y2="304.8076"/><line style="stroke:#181818;stroke-width:1.0;" x1="622.5" x2="622.5" y1="304.8076" y2="319.8076"/><polygon fill="#181818" points="618.5,309.8076,622.5,319.8076,626.5,309.8076,622.5,313.8076" style="stroke:#181818;stroke-width:1.0;"/><line style="stroke:#181818;stroke-width:1.0;" x1="622.5" x2="622.5" y1="367.7451" y2="372.7451"/><line style="stroke:#181818;stroke-width:1.0;" x1="622.5" x2="281.5" y1="372.7451" y2="372.7451"/><line style="stroke:#181818;stroke-width:1.0;" x1="281.5" x2="281.5" y1="372.7451" y2="387.7451"/><polygon fill="#181818" points="277.5,377.7451,281.5,387.7451,285.5,377.7451,281.5,381.7451" style="stroke:#181818;stroke-width:1.0;"/><line style="stroke:#181818;stroke-width:1.0;" x1="281.5" x2="281.5" y1="435.6826" y2="440.6826"/><line style="stroke:#181818;stroke-width:1.0;" x1="281.5" x2="1237.5" y1="440.6826" y2="440.6826"/><line style="stroke:#181818;stroke-width:1.0;" x1="1237.5" x2="1237.5" y1="440.6826" y2="455.6826"/><polygon fill="#181818" points="1233.5,445.6826,1237.5,455.6826,1241.5,445.6826,1237.5,449.6826" style="stroke:#181818;stroke-width:1.0;"/><line style="stroke:#181818;stroke-width:1.0;" x1="1237.5" x2="1237.5" y1="503.6201" y2="508.6201"/><line style="stroke:#181818;stroke-width:1.0;" x1="1237.5" x2="1725.5" y1="508.6201" y2="508.6201"/><line style="stroke:#181818;stroke-width:1.0;" x1="1725.5" x2="1725.5" y1="508.6201" y2="523.6201"/><polygon fill="#181818" points="1721.5,513.6201,1725.5,523.6201,1729.5,513.6201,1725.5,517.6201" style="stroke:#181818;stroke-width:1.0;"/><line style="stroke:#181818;stroke-width:1.0;" x1="1725.5" x2="1725.5" y1="571.5576" y2="576.5576"/><line style="stroke:#181818;stroke-width:1.0;" x1="1725.5" x2="884.5" y1="576.5576" y2="576.5576"/><line style="stroke:#181818;stroke-width:1.0;" x1="884.5" x2="884.5" y1="576.5576" y2="591.5576"/><polygon fill="#181818" points="880.5,581.5576,884.5,591.5576,888.5,581.5576,884.5,585.5576" style="stroke:#181818;stroke-width:1.0;"/><line style="stroke:#181818;stroke-width:1.0;" x1="884.5" x2="884.5" y1="639.4951" y2="644.4951"/><line style="stroke:#181818;stroke-width:1.0;" x1="884.5" x2="2211.5" y1="644.4951" y2="644.4951"/><line style="stroke:#181818;stroke-width:1.0;" x1="2211.5" x2="2211.5" y1="644.4951" y2="659.4951"/><polygon fill="#181818" points="2207.5,649.4951,2211.5,659.4951,2215.5,649.4951,2211.5,653.4951" style="stroke:#181818;stroke-width:1.0;"/><line style="stroke:#181818;stroke-width:1.0;" x1="281.5" x2="281.5" y1="1063.1826" y2="1068.1826"/><line style="stroke:#181818;stroke-width:1.0;" x1="281.5" x2="2540" y1="1068.1826" y2="1068.1826"/><line style="stroke:#181818;stroke-width:1.0;" x1="2540" x2="2540" y1="1068.1826" y2="1083.1826"/><polygon fill="#181818" points="2536,1073.1826,2540,1083.1826,2544,1073.1826,2540,1077.1826" style="stroke:#181818;stroke-width:1.0;"/><line style="stroke:#181818;stroke-width:1.0;" x1="2540" x2="2540" y1="1117.1514" y2="1122.1514"/><line style="stroke:#181818;stroke-width:1.0;" x1="2540" x2="1237.5" y1="1122.1514" y2="1122.1514"/><line style="stroke:#181818;stroke-width:1.0;" x1="1237.5" x2="1237.5" y1="1122.1514" y2="1137.1514"/><polygon fill="#181818" points="1233.5,1127.1514,1237.5,1137.1514,1241.5,1127.1514,1237.5,1131.1514" style="stroke:#181818;stroke-width:1.0;"/><line style="stroke:#181818;stroke-width:1.0;" x1="1237.5" x2="1237.5" y1="1185.0889" y2="1193.5732"/><line style="stroke:#181818;stroke-width:1.0;" x1="1237.5" x2="2211.5" y1="1193.5732" y2="1193.5732"/><line style="stroke:#181818;stroke-width:1.0;" x1="2211.5" x2="2211.5" y1="1193.5732" y2="1211.0732"/><polygon fill="#181818" points="2207.5,1201.0732,2211.5,1211.0732,2215.5,1201.0732,2211.5,1205.0732" style="stroke:#181818;stroke-width:1.0;"/><line style="stroke:#181818;stroke-width:1.0;" x1="2540" x2="2540" y1="1392.9482" y2="1397.9482"/><line style="stroke:#181818;stroke-width:1.0;" x1="2540" x2="281.5" y1="1397.9482" y2="1397.9482"/><line style="stroke:#181818;stroke-width:1.0;" x1="281.5" x2="281.5" y1="1397.9482" y2="1412.9482"/><polygon fill="#181818" points="277.5,1402.9482,281.5,1412.9482,285.5,1402.9482,281.5,1406.9482" style="stroke:#181818;stroke-width:1.0;"/><line style="stroke:#181818;stroke-width:1.0;" x1="2211.5" x2="2211.5" y1="815.3701" y2="820.3701"/><line style="stroke:#181818;stroke-width:1.0;" x1="2211.5" x2="281.5" y1="820.3701" y2="820.3701"/><line style="stroke:#181818;stroke-width:1.0;" x1="281.5" x2="281.5" y1="820.3701" y2="835.3701"/><polygon fill="#181818" points="277.5,825.3701,281.5,835.3701,285.5,825.3701,281.5,829.3701" style="stroke:#181818;stroke-width:1.0;"/><text fill="#000000" font-family="sans-serif" font-size="18" lengthAdjust="spacing" textLength="98" x="219" y="66.75">GlobalFit.c</text><text fill="#000000" font-family="sans-serif" font-size="18" lengthAdjust="spacing" textLength="169" x="537" y="66.75">GalacticBinaryIO.c</text><text fill="#000000" font-family="sans-serif" font-size="18" lengthAdjust="spacing" textLength="140" x="813.5" y="66.75">MBHWrapper.c</text><text fill="#000000" font-family="sans-serif" font-size="18" lengthAdjust="spacing" textLength="232" x="1120.5" y="66.75">GalacticBinaryWrapper.c</text><text fill="#000000" font-family="sans-serif" font-size="18" lengthAdjust="spacing" textLength="266" x="1591.5" y="66.75">VerificationBinaryWrapper.h</text><text fill="#000000" font-family="sans-serif" font-size="18" lengthAdjust="spacing" textLength="149" x="2137" y="66.75">NoiseWrapper.c</text><text fill="#000000" font-family="sans-serif" font-size="18" lengthAdjust="spacing" textLength="264" x="2407" y="66.75">VerificationBinaryWrapper.c</text><!--SRC=[hLLHRzem47xdLvoq5z0ebVQujfjAjpAqqLLJnnuZurmIguxjsGuLKt_ypdQ0KA1hfJqHShxxlllkEySBBn5-NeqX5woqh8OpU0TluIQRZR_0-GNKHkHmtdaNVkbyh_Vuvg4I7XydKY-Ol1P-n1zxpZFhUm3lJq_XMjjxpA6mkeRPxJIRAk7xWxCUXJUvJ3Bk1HyBnUng-ZsKICa_aEKExfL-K2TEDvQZWq98757SCEimMouoATpJYaJnbsN6eDtMSiWihxAsp2Xd7WhTg9p252tHjwrTW6hg1LhG1KYXS0DLBwgCsTAzcFrjI0EcLb7QTPsdwLtXKjwbb9epJxrkWd3tQGgNdy5vst3VM7HqbeLpMLbar0jxbjMU65k8G6rR5Vg5PAKRWhOBuOV0AoRK40B048mLsWv6M-H5pMj-27sELXI208HMkmogVGRpoRy8P4laYKHyoYAHzD9RmMHwh7MEyR53SNcKuY6BR3a58tH99G4g94OjFv-B3axmnW6G6oqSxiAayoe4kXdHBrORLaPyeKoJXkvrW8WRw0AUgvZTpHIqKII2-8FhTXshZKJR7h1ea8LrF6gwzR9n54i2RxqMLzPgxMdmcbOcmgy9jBEFchSu_xDyq7EtTYfHwoMcpBPAq2QkCJXHAYPTYahcF10L6oqOLZduV3uPXyd6UjoIA9ZHT4NUiFqUZbjutPD3YTnlDCUoHkNTlXZ7Dp5rTLS96hW3HLBu2e6cHpqsYaVgZ3hIDj0VXRiqzg2LNBLgeMzCLbZytQ3YgpMBFHBxHWIW2Dtw_MzQ6o1PRUVUYpTkW1h4auddLqGJeI6wjnqWIf8ntE-9Wg01BrYyLHE_g56oUuTSYA7A8uNNwavKPbUpg_YdCNcOua7VlzIFgPlejkTDcReuPCjNE7kvlpXfGTVpc8n3TtJxe0aVEoLSXVd7GN18N-ama9CFAtHdz9NLvYy0]--></g></svg>