<?xml version="1.0" encoding="UTF-8" standalone="no"?><svg xmlns="http://www.w3.org/2000/svg" xmlns:xlink="http://www.w3.org/1999/xlink" contentStyleType="text/css" height="1440px" preserveAspectRatio="none" style="width:2291px;height:1440px;background:#FFFFFF;" version="1.1" viewBox="0 0 2291 1440" width="2291px" zoomAndPan="magnify"><defs/><g><text fill="#000000" font-family="sans-serif" font-size="14" font-weight="bold" lengthAdjust="spacing" textLength="312" x="988" y="32.9951">MBH diagram ; 2 &lt;= mpid &lt; 2 + N_MBH</text><rect fill="none" height="20.9531" style="stroke:none;stroke-width:1.0;" width="2258" x="15" y="50.042"/><rect fill="#FFFFFF" height="1378.3208" style="stroke:#FFFFFF;stroke-width:1.0;" width="513" x="15" y="50.042"/><ellipse cx="285" cy="85.9951" fill="#222222" rx="10" ry="10" style="stroke:#222222;stroke-width:1.0;"/><rect fill="#F1F1F1" height="33.9688" rx="12.5" ry="12.5" style="stroke:#181818;stroke-width:0.5;" width="163" x="203.5" y="115.9951"/><text fill="#000000" font-family="sans-serif" font-size="12" lengthAdjust="spacing" textLength="143" x="213.5" y="137.1338">// Forked from MPI_Init()</text><rect fill="#F1F1F1" height="47.9375" rx="12.5" ry="12.5" style="stroke:#181818;stroke-width:0.5;" width="250" x="160" y="387.7451"/><text fill="#000000" font-family="sans-serif" font-size="12" lengthAdjust="spacing" textLength="230" x="170" y="408.8838">// Allocates GlobalFit TDI AE structures</text><text fill="#000000" font-family="sans-serif" font-size="12" lengthAdjust="spacing" textLength="88" x="170" y="422.8525">alloc_gf_data()</text><rect fill="#F1F1F1" height="47.9375" rx="12.5" ry="12.5" style="stroke:#181818;stroke-width:0.5;" width="247" x="161.5" y="879.3701"/><text fill="#000000" font-family="sans-serif" font-size="12" lengthAdjust="spacing" textLength="227" x="171.5" y="900.5088">// Receives TDI AE from root process.</text><text fill="#000000" font-family="sans-serif" font-size="12" lengthAdjust="spacing" textLength="146" x="171.5" y="914.4775">share_gbmcmc_model()</text><rect fill="#F1F1F1" height="47.9375" rx="12.5" ry="12.5" style="stroke:#181818;stroke-width:0.5;" width="247" x="161.5" y="947.3076"/><text fill="#000000" font-family="sans-serif" font-size="12" lengthAdjust="spacing" textLength="227" x="171.5" y="968.4463">// Receives TDI AE from root process.</text><text fill="#000000" font-family="sans-serif" font-size="12" lengthAdjust="spacing" textLength="120" x="171.5" y="982.415">share_mbh_model()</text><rect fill="#F1F1F1" height="47.9375" rx="12.5" ry="12.5" style="stroke:#181818;stroke-width:0.5;" width="478" x="46" y="1015.2451"/><text fill="#000000" font-family="sans-serif" font-size="12" lengthAdjust="spacing" textLength="458" x="56" y="1036.3838">// Remove from TDI AET all found signals from last iteration of UCB VGB MBH</text><text fill="#000000" font-family="sans-serif" font-size="12" lengthAdjust="spacing" textLength="103" x="56" y="1050.3525">create_residual()</text><rect fill="#F1F1F1" height="47.9375" rx="12.5" ry="12.5" style="stroke:#181818;stroke-width:0.5;" width="254" x="158" y="1205.0889"/><text fill="#000000" font-family="sans-serif" font-size="12" lengthAdjust="spacing" textLength="234" x="168" y="1226.2275">// Sends noise model to all processes.</text><text fill="#000000" font-family="sans-serif" font-size="12" lengthAdjust="spacing" textLength="127" x="168" y="1240.1963">share_noise_model()</text><rect fill="#F1F1F1" height="47.9375" rx="12.5" ry="12.5" style="stroke:#181818;stroke-width:0.5;" width="247" x="161.5" y="1273.0264"/><text fill="#000000" font-family="sans-serif" font-size="12" lengthAdjust="spacing" textLength="227" x="171.5" y="1294.165">// Receives TDI AE from root process.</text><text fill="#000000" font-family="sans-serif" font-size="12" lengthAdjust="spacing" textLength="145" x="171.5" y="1308.1338">share_vbmcmc_model()</text><polygon fill="#F1F1F1" points="285,835.3701,297,847.3701,285,859.3701,273,847.3701,285,835.3701" style="stroke:#181818;stroke-width:0.5;"/><polygon fill="#F1F1F1" points="214.5,1340.9639,355.5,1340.9639,367.5,1352.9639,355.5,1364.9639,214.5,1364.9639,202.5,1352.9639,214.5,1340.9639" style="stroke:#181818;stroke-width:0.5;"/><text fill="#000000" font-family="sans-serif" font-size="11" lengthAdjust="spacing" textLength="141" x="214.5" y="1356.772">GBMCMC steps finished?</text><text fill="#000000" font-family="sans-serif" font-size="11" lengthAdjust="spacing" textLength="14" x="367.5" y="1350.3696">no</text><ellipse cx="285" cy="1417.3628" fill="none" rx="11" ry="11" style="stroke:#222222;stroke-width:1.0;"/><ellipse cx="285" cy="1417.3628" fill="#222222" rx="6" ry="6" style="stroke:#111111;stroke-width:1.0;"/><line style="stroke:#000000;stroke-width:1.5;" x1="15" x2="15" y1="50.042" y2="1428.3628"/><rect fill="#FFFFFF" height="1378.3208" style="stroke:#FFFFFF;stroke-width:1.0;" width="201" x="528" y="50.042"/><rect fill="#F1F1F1" height="47.9375" rx="12.5" ry="12.5" style="stroke:#181818;stroke-width:0.5;" width="191" x="534" y="169.9639"/><text fill="#000000" font-family="sans-serif" font-size="12" lengthAdjust="spacing" textLength="171" x="544" y="191.1025">// Reads known-sources file.</text><text fill="#000000" font-family="sans-serif" font-size="12" lengthAdjust="spacing" textLength="89" x="544" y="205.0713">parse_vb_list()</text><rect fill="#F1F1F1" height="47.9375" rx="12.5" ry="12.5" style="stroke:#181818;stroke-width:0.5;" width="119" x="570" y="319.8076"/><text fill="#000000" font-family="sans-serif" font-size="12" lengthAdjust="spacing" textLength="99" x="580" y="340.9463">// Parse any UCB</text><text fill="#000000" font-family="sans-serif" font-size="12" lengthAdjust="spacing" textLength="45" x="580" y="354.915">parse()</text><line style="stroke:#000000;stroke-width:1.5;" x1="528" x2="528" y1="50.042" y2="1428.3628"/><rect fill="#FFFFFF" height="1378.3208" style="stroke:#FFFFFF;stroke-width:1.0;" width="323" x="729" y="50.042"/><rect fill="#F1F1F1" height="61.9063" rx="12.5" ry="12.5" style="stroke:#181818;stroke-width:0.5;" width="202" x="790.5" y="237.9014"/><text fill="#000000" font-family="sans-serif" font-size="12" lengthAdjust="spacing" textLength="168" x="800.5" y="259.04">// search_sources.dat found</text><text fill="#000000" font-family="sans-serif" font-size="12" lengthAdjust="spacing" textLength="182" x="800.5" y="273.0088">// get N_MBH = number of line</text><text fill="#000000" font-family="sans-serif" font-size="12" lengthAdjust="spacing" textLength="110" x="800.5" y="286.9775">parse_mbh_args()</text><rect fill="#F1F1F1" height="47.9375" rx="12.5" ry="12.5" style="stroke:#181818;stroke-width:0.5;" width="313" x="735" y="591.5576"/><text fill="#000000" font-family="sans-serif" font-size="12" lengthAdjust="spacing" textLength="293" x="745" y="612.6963">// Allocates MBH structures (data, het, flags, tdi).</text><text fill="#000000" font-family="sans-serif" font-size="12" lengthAdjust="spacing" textLength="102" x="745" y="626.665">alloc_mbh_data()</text><line style="stroke:#000000;stroke-width:1.5;" x1="729" x2="729" y1="50.042" y2="1428.3628"/><rect fill="#FFFFFF" height="1378.3208" style="stroke:#FFFFFF;stroke-width:1.0;" width="383" x="1052" y="50.042"/><rect fill="#F1F1F1" height="47.9375" rx="12.5" ry="12.5" style="stroke:#181818;stroke-width:0.5;" width="373" x="1058" y="455.6826"/><text fill="#000000" font-family="sans-serif" font-size="12" lengthAdjust="spacing" textLength="353" x="1068" y="476.8213">// Allocates UCB structures (flags, orbit, chain, data, prior).</text><text fill="#000000" font-family="sans-serif" font-size="12" lengthAdjust="spacing" textLength="128" x="1068" y="490.79">alloc_gbmcmc_data()</text><line style="stroke:#000000;stroke-width:1.5;" x1="1052" x2="1052" y1="50.042" y2="1428.3628"/><rect fill="#FFFFFF" height="1378.3208" style="stroke:#FFFFFF;stroke-width:1.0;" width="593" x="1435" y="50.042"/><rect fill="#F1F1F1" height="47.9375" rx="12.5" ry="12.5" style="stroke:#181818;stroke-width:0.5;" width="583" x="1441" y="523.6201"/><text fill="#000000" font-family="sans-serif" font-size="12" lengthAdjust="spacing" textLength="563" x="1451" y="544.7588">// Allocates VG structures (flags, orbit, chain_vec, data_vec,_prior_vec, trial_vec, model_vec).</text><text fill="#000000" font-family="sans-serif" font-size="12" lengthAdjust="spacing" textLength="127" x="1451" y="558.7275">alloc_vbmcmc_data()</text><line style="stroke:#000000;stroke-width:1.5;" x1="1435" x2="1435" y1="50.042" y2="1428.3628"/><rect fill="#FFFFFF" height="1378.3208" style="stroke:#FFFFFF;stroke-width:1.0;" width="243" x="2028" y="50.042"/><rect fill="#F1F1F1" height="33.9688" rx="12.5" ry="12.5" style="stroke:#181818;stroke-width:0.5;" width="129" x="2086" y="659.4951"/><text fill="#000000" font-family="sans-serif" font-size="12" lengthAdjust="spacing" textLength="109" x="2096" y="680.6338">alloc_noise_data()</text><rect fill="#F1F1F1" height="47.9375" rx="12.5" ry="12.5" style="stroke:#181818;stroke-width:0.5;" width="233" x="2034" y="713.4639"/><text fill="#000000" font-family="sans-serif" font-size="12" lengthAdjust="spacing" textLength="213" x="2044" y="734.6025">// Propagates input TDI to all mpids.</text><text fill="#000000" font-family="sans-serif" font-size="12" lengthAdjust="spacing" textLength="76" x="2044" y="748.5713">share_data()</text><rect fill="#F1F1F1" height="33.9688" rx="12.5" ry="12.5" style="stroke:#181818;stroke-width:0.5;" width="172" x="2064.5" y="781.4014"/><text fill="#000000" font-family="sans-serif" font-size="12" lengthAdjust="spacing" textLength="152" x="2074.5" y="802.54">initialize_noise_sampler()</text><rect fill="#F1F1F1" height="33.9688" rx="12.5" ry="12.5" style="stroke:#181818;stroke-width:0.5;" width="193" x="2054" y="1083.1826"/><text fill="#000000" font-family="sans-serif" font-size="12" lengthAdjust="spacing" textLength="173" x="2064" y="1104.3213">select_frequency_segment()</text><rect fill="#F1F1F1" height="47.9375" rx="12.5" ry="12.5" style="stroke:#181818;stroke-width:0.5;" width="166" x="2067.5" y="1137.1514"/><text fill="#000000" font-family="sans-serif" font-size="12" lengthAdjust="spacing" textLength="48" x="2077.5" y="1158.29">// MCMC</text><text fill="#000000" font-family="sans-serif" font-size="12" lengthAdjust="spacing" textLength="146" x="2077.5" y="1172.2588">update_noise_sampler()</text><line style="stroke:#000000;stroke-width:1.5;" x1="2028" x2="2028" y1="50.042" y2="1428.3628"/><line style="stroke:#000000;stroke-width:1.5;" x1="2271" x2="2271" y1="50.042" y2="1428.3628"/><line style="stroke:#181818;stroke-width:1.0;" x1="285" x2="285" y1="95.9951" y2="115.9951"/><polygon fill="#181818" points="281,105.9951,285,115.9951,289,105.9951,285,109.9951" style="stroke:#181818;stroke-width:1.0;"/><line style="stroke:#181818;stroke-width:1.0;" x1="285" x2="285" y1="927.3076" y2="947.3076"/><polygon fill="#181818" points="281,937.3076,285,947.3076,289,937.3076,285,941.3076" style="stroke:#181818;stroke-width:1.0;"/><line style="stroke:#181818;stroke-width:1.0;" x1="285" x2="285" y1="995.2451" y2="1015.2451"/><polygon fill="#181818" points="281,1005.2451,285,1015.2451,289,1005.2451,285,1009.2451" style="stroke:#181818;stroke-width:1.0;"/><line style="stroke:#181818;stroke-width:1.0;" x1="285" x2="285" y1="1253.0264" y2="1273.0264"/><polygon fill="#181818" points="281,1263.0264,285,1273.0264,289,1263.0264,285,1267.0264" style="stroke:#181818;stroke-width:1.0;"/><line style="stroke:#181818;stroke-width:1.0;" x1="285" x2="285" y1="859.3701" y2="879.3701"/><polygon fill="#181818" points="281,869.3701,285,879.3701,289,869.3701,285,873.3701" style="stroke:#181818;stroke-width:1.0;"/><line style="stroke:#181818;stroke-width:1.0;" x1="202.5" x2="34" y1="1352.9639" y2="1352.9639"/><polygon fill="#181818" points="30,1110.167,34,1100.167,38,1110.167,34,1106.167" style="stroke:#181818;stroke-width:1.0;"/><line style="stroke:#181818;stroke-width:1.0;" x1="34" x2="34" y1="847.3701" y2="1352.9639"/><line style="stroke:#181818;stroke-width:1.0;" x1="34" x2="273" y1="847.3701" y2="847.3701"/><polygon fill="#181818" points="263,843.3701,273,847.3701,263,851.3701,267,847.3701" style="stroke:#181818;stroke-width:1.0;"/><line style="stroke:#181818;stroke-width:1.0;" x1="285" x2="285" y1="1320.9639" y2="1340.9639"/><polygon fill="#181818" points="281,1330.9639,285,1340.9639,289,1330.9639,285,1334.9639" style="stroke:#181818;stroke-width:1.0;"/><line style="stroke:#181818;stroke-width:1.0;" x1="285" x2="285" y1="1364.9639" y2="1406.3628"/><polygon fill="#181818" points="281,1396.3628,285,1406.3628,289,1396.3628,285,1400.3628" style="stroke:#181818;stroke-width:1.0;"/><text fill="#000000" font-family="sans-serif" font-size="11" lengthAdjust="spacing" textLength="21" x="289" y="1386.2686">yes</text><line style="stroke:#181818;stroke-width:1.0;" x1="2150.5" x2="2150.5" y1="693.4639" y2="713.4639"/><polygon fill="#181818" points="2146.5,703.4639,2150.5,713.4639,2154.5,703.4639,2150.5,707.4639" style="stroke:#181818;stroke-width:1.0;"/><line style="stroke:#181818;stroke-width:1.0;" x1="2150.5" x2="2150.5" y1="761.4014" y2="781.4014"/><polygon fill="#181818" points="2146.5,771.4014,2150.5,781.4014,2154.5,771.4014,2150.5,775.4014" style="stroke:#181818;stroke-width:1.0;"/><line style="stroke:#181818;stroke-width:1.0;" x1="2150.5" x2="2150.5" y1="1117.1514" y2="1137.1514"/><polygon fill="#181818" points="2146.5,1127.1514,2150.5,1137.1514,2154.5,1127.1514,2150.5,1131.1514" style="stroke:#181818;stroke-width:1.0;"/><line style="stroke:#181818;stroke-width:1.0;" x1="285" x2="285" y1="149.9639" y2="154.9639"/><line style="stroke:#181818;stroke-width:1.0;" x1="285" x2="629.5" y1="154.9639" y2="154.9639"/><line style="stroke:#181818;stroke-width:1.0;" x1="629.5" x2="629.5" y1="154.9639" y2="169.9639"/><polygon fill="#181818" points="625.5,159.9639,629.5,169.9639,633.5,159.9639,629.5,163.9639" style="stroke:#181818;stroke-width:1.0;"/><line style="stroke:#181818;stroke-width:1.0;" x1="629.5" x2="629.5" y1="217.9014" y2="222.9014"/><line style="stroke:#181818;stroke-width:1.0;" x1="629.5" x2="891.5" y1="222.9014" y2="222.9014"/><line style="stroke:#181818;stroke-width:1.0;" x1="891.5" x2="891.5" y1="222.9014" y2="237.9014"/><polygon fill="#181818" points="887.5,227.9014,891.5,237.9014,895.5,227.9014,891.5,231.9014" style="stroke:#181818;stroke-width:1.0;"/><line style="stroke:#181818;stroke-width:1.0;" x1="891.5" x2="891.5" y1="299.8076" y2="304.8076"/><line style="stroke:#181818;stroke-width:1.0;" x1="891.5" x2="629.5" y1="304.8076" y2="304.8076"/><line style="stroke:#181818;stroke-width:1.0;" x1="629.5" x2="629.5" y1="304.8076" y2="319.8076"/><polygon fill="#181818" points="625.5,309.8076,629.5,319.8076,633.5,309.8076,629.5,313.8076" style="stroke:#181818;stroke-width:1.0;"/><line style="stroke:#181818;stroke-width:1.0;" x1="629.5" x2="629.5" y1="367.7451" y2="372.7451"/><line style="stroke:#181818;stroke-width:1.0;" x1="629.5" x2="285" y1="372.7451" y2="372.7451"/><line style="stroke:#181818;stroke-width:1.0;" x1="285" x2="285" y1="372.7451" y2="387.7451"/><polygon fill="#181818" points="281,377.7451,285,387.7451,289,377.7451,285,381.7451" style="stroke:#181818;stroke-width:1.0;"/><line style="stroke:#181818;stroke-width:1.0;" x1="285" x2="285" y1="435.6826" y2="440.6826"/><line style="stroke:#181818;stroke-width:1.0;" x1="285" x2="1244.5" y1="440.6826" y2="440.6826"/><line style="stroke:#181818;stroke-width:1.0;" x1="1244.5" x2="1244.5" y1="440.6826" y2="455.6826"/><polygon fill="#181818" points="1240.5,445.6826,1244.5,455.6826,1248.5,445.6826,1244.5,449.6826" style="stroke:#181818;stroke-width:1.0;"/><line style="stroke:#181818;stroke-width:1.0;" x1="1244.5" x2="1244.5" y1="503.6201" y2="508.6201"/><line style="stroke:#181818;stroke-width:1.0;" x1="1244.5" x2="1732.5" y1="508.6201" y2="508.6201"/><line style="stroke:#181818;stroke-width:1.0;" x1="1732.5" x2="1732.5" y1="508.6201" y2="523.6201"/><polygon fill="#181818" points="1728.5,513.6201,1732.5,523.6201,1736.5,513.6201,1732.5,517.6201" style="stroke:#181818;stroke-width:1.0;"/><line style="stroke:#181818;stroke-width:1.0;" x1="1732.5" x2="1732.5" y1="571.5576" y2="576.5576"/><line style="stroke:#181818;stroke-width:1.0;" x1="1732.5" x2="891.5" y1="576.5576" y2="576.5576"/><line style="stroke:#181818;stroke-width:1.0;" x1="891.5" x2="891.5" y1="576.5576" y2="591.5576"/><polygon fill="#181818" points="887.5,581.5576,891.5,591.5576,895.5,581.5576,891.5,585.5576" style="stroke:#181818;stroke-width:1.0;"/><line style="stroke:#181818;stroke-width:1.0;" x1="891.5" x2="891.5" y1="639.4951" y2="644.4951"/><line style="stroke:#181818;stroke-width:1.0;" x1="891.5" x2="2150.5" y1="644.4951" y2="644.4951"/><line style="stroke:#181818;stroke-width:1.0;" x1="2150.5" x2="2150.5" y1="644.4951" y2="659.4951"/><polygon fill="#181818" points="2146.5,649.4951,2150.5,659.4951,2154.5,649.4951,2150.5,653.4951" style="stroke:#181818;stroke-width:1.0;"/><line style="stroke:#181818;stroke-width:1.0;" x1="285" x2="285" y1="1063.1826" y2="1068.1826"/><line style="stroke:#181818;stroke-width:1.0;" x1="285" x2="2150.5" y1="1068.1826" y2="1068.1826"/><line style="stroke:#181818;stroke-width:1.0;" x1="2150.5" x2="2150.5" y1="1068.1826" y2="1083.1826"/><polygon fill="#181818" points="2146.5,1073.1826,2150.5,1083.1826,2154.5,1073.1826,2150.5,1077.1826" style="stroke:#181818;stroke-width:1.0;"/><line style="stroke:#181818;stroke-width:1.0;" x1="2150.5" x2="2150.5" y1="1185.0889" y2="1190.0889"/><line style="stroke:#181818;stroke-width:1.0;" x1="2150.5" x2="285" y1="1190.0889" y2="1190.0889"/><line style="stroke:#181818;stroke-width:1.0;" x1="285" x2="285" y1="1190.0889" y2="1205.0889"/><polygon fill="#181818" points="281,1195.0889,285,1205.0889,289,1195.0889,285,1199.0889" style="stroke:#181818;stroke-width:1.0;"/><line style="stroke:#181818;stroke-width:1.0;" x1="2150.5" x2="2150.5" y1="815.3701" y2="820.3701"/><line style="stroke:#181818;stroke-width:1.0;" x1="2150.5" x2="285" y1="820.3701" y2="820.3701"/><line style="stroke:#181818;stroke-width:1.0;" x1="285" x2="285" y1="820.3701" y2="835.3701"/><polygon fill="#181818" points="281,825.3701,285,835.3701,289,825.3701,285,829.3701" style="stroke:#181818;stroke-width:1.0;"/><text fill="#000000" font-family="sans-serif" font-size="18" lengthAdjust="spacing" textLength="98" x="222.5" y="66.75">GlobalFit.c</text><text fill="#000000" font-family="sans-serif" font-size="18" lengthAdjust="spacing" textLength="169" x="544" y="66.75">GalacticBinaryIO.c</text><text fill="#000000" font-family="sans-serif" font-size="18" lengthAdjust="spacing" textLength="140" x="820.5" y="66.75">MBHWrapper.c</text><text fill="#000000" font-family="sans-serif" font-size="18" lengthAdjust="spacing" textLength="232" x="1127.5" y="66.75">GalacticBinaryWrapper.c</text><text fill="#000000" font-family="sans-serif" font-size="18" lengthAdjust="spacing" textLength="266" x="1598.5" y="66.75">VerificationBinaryWrapper.h</text><text fill="#000000" font-family="sans-serif" font-size="18" lengthAdjust="spacing" textLength="149" x="2075" y="66.75">NoiseWrapper.c</text><!--SRC=[hLN1RXCn4BtdAqRYqeWqbJZI0ceA3JcaL53AqNAyixkZUkt5zgOAwiSpjZTDqgGK96vEnlFUyvitIQ2W4UQJpr2Gh9niu1JUmDaxQ5egu8pFh-5AS7qmU7XrNrF0Xwcs2walAOpLmy07wS80uEt92LnQTuS5bCusCB-UYPcXS3Gy7N3viLTggGAf2HdfLhCl4I8tVqLPUBWpzjuSUzivXHvAqZZcUYkTHx5S24t-AI9B- -5aswBRO7cKJjMYXnaNCa1fErDmcQiLXlmaU0UcQnRem9QWoU0ZLREeXNIL_slrrx4Df5d1zui9h76UjcyRb_lEjRPA1dxhOn5kFixW_1Fuu3eLEeUUxyfuJrIbuBV8FwhQCsD34QLjKE6erBBo8x1kGM44gfPaHX09Hj0wicuutZ0l6jMeG-otwAWa9Y1hTXNK-mfkfoy944jKMKGwYIGaVnaSIPsFZIqm7RSaBf-LU2WY6qqn2DkYiW4rig9UNoXeYoTcum39bIMFkpJvlec5xOwK5sTRMIL-CcsNXnvif4YRvoEVhwNRxIJUA3Q1Vc4FwsNJQdHztM6BCcxZivbRxvf2MZ9t7xMqiSxQm7Etl369VStVZpvPtlFyJ_XevovsXcZi4dDdHhb9tgGr1a-LaThdifO-06jnAO9nbMFERwUJEDa4g1oxWeAdIqKdzn-nFpeMuL6Z2g9q-BD3erR2OzMW2JiovnVpY_IXQuj8SMWeBvZr3Gt_xgN67Ejr37glSCUjJ738ht-mVBa_qPmSO9tyRt0qdSI7yLPW6t-43VaQYmz385uFOuTy__Zz2Zrt-c3Rtm00]--></g></svg>