<?xml version="1.0" encoding="us-ascii" standalone="no"?><svg xmlns="http://www.w3.org/2000/svg" xmlns:xlink="http://www.w3.org/1999/xlink" contentStyleType="text/css" height="1648px" preserveAspectRatio="none" style="width:2506px;height:1648px;background:#FFFFFF;" version="1.1" viewBox="0 0 2506 1648" width="2506px" zoomAndPan="magnify"><defs/><g><text fill="#000000" font-family="sans-serif" font-size="14" font-weight="bold" lengthAdjust="spacing" textLength="454" x="1024.5" y="32.9951">UCB diagram ; 2 + N_MBH &lt;= mpid &lt; 2 + N_MBH + N_UCB</text><rect fill="none" height="20.9531" style="stroke:none;stroke-width:1.0;" width="2473" x="15" y="50.042"/><rect fill="#FFFFFF" height="1586.1802" style="stroke:#FFFFFF;stroke-width:1.0;" width="590" x="15" y="50.042"/><ellipse cx="323.5" cy="85.9951" fill="#222222" rx="10" ry="10" style="stroke:#222222;stroke-width:1.0;"/><rect fill="#F1F1F1" height="33.9688" rx="12.5" ry="12.5" style="stroke:#181818;stroke-width:0.5;" width="163" x="242" y="115.9951"/><text fill="#000000" font-family="sans-serif" font-size="12" lengthAdjust="spacing" textLength="143" x="252" y="137.1338">// Forked from MPI_Init()</text><rect fill="#F1F1F1" height="47.9375" rx="12.5" ry="12.5" style="stroke:#181818;stroke-width:0.5;" width="250" x="198.5" y="387.7451"/><text fill="#000000" font-family="sans-serif" font-size="12" lengthAdjust="spacing" textLength="230" x="208.5" y="408.8838">// Allocates GlobalFit TDI AE structures</text><text fill="#000000" font-family="sans-serif" font-size="12" lengthAdjust="spacing" textLength="88" x="208.5" y="422.8525">alloc_gf_data()</text><rect fill="#F1F1F1" height="47.9375" rx="12.5" ry="12.5" style="stroke:#181818;stroke-width:0.5;" width="233" x="207" y="713.4639"/><text fill="#000000" font-family="sans-serif" font-size="12" lengthAdjust="spacing" textLength="213" x="217" y="734.6025">// Propagates input TDI to all mpids.</text><text fill="#000000" font-family="sans-serif" font-size="12" lengthAdjust="spacing" textLength="76" x="217" y="748.5713">share_data()</text><rect fill="#F1F1F1" height="47.9375" rx="12.5" ry="12.5" style="stroke:#181818;stroke-width:0.5;" width="247" x="200" y="879.3701"/><text fill="#000000" font-family="sans-serif" font-size="12" lengthAdjust="spacing" textLength="227" x="210" y="900.5088">// Receives TDI AE from root process.</text><text fill="#000000" font-family="sans-serif" font-size="12" lengthAdjust="spacing" textLength="146" x="210" y="914.4775">share_gbmcmc_model()</text><rect fill="#F1F1F1" height="47.9375" rx="12.5" ry="12.5" style="stroke:#181818;stroke-width:0.5;" width="247" x="200" y="947.3076"/><text fill="#000000" font-family="sans-serif" font-size="12" lengthAdjust="spacing" textLength="227" x="210" y="968.4463">// Receives TDI AE from root process.</text><text fill="#000000" font-family="sans-serif" font-size="12" lengthAdjust="spacing" textLength="120" x="210" y="982.415">share_mbh_model()</text><rect fill="#F1F1F1" height="47.9375" rx="12.5" ry="12.5" style="stroke:#181818;stroke-width:0.5;" width="555" x="46" y="1015.2451"/><text fill="#000000" font-family="sans-serif" font-size="12" lengthAdjust="spacing" textLength="535" x="56" y="1036.3838">// Remove from TDI AE all found signals from last iteration of UCB MBH generated signals</text><text fill="#000000" font-family="sans-serif" font-size="12" lengthAdjust="spacing" textLength="103" x="56" y="1050.3525">create_residual()</text><rect fill="#F1F1F1" height="47.9375" rx="12.5" ry="12.5" style="stroke:#181818;stroke-width:0.5;" width="284" x="181.5" y="1412.9482"/><text fill="#000000" font-family="sans-serif" font-size="12" lengthAdjust="spacing" textLength="264" x="191.5" y="1434.0869">// Receives noise model from root process.</text><text fill="#000000" font-family="sans-serif" font-size="12" lengthAdjust="spacing" textLength="127" x="191.5" y="1448.0557">share_noise_model()</text><rect fill="#F1F1F1" height="47.9375" rx="12.5" ry="12.5" style="stroke:#181818;stroke-width:0.5;" width="247" x="200" y="1480.8857"/><text fill="#000000" font-family="sans-serif" font-size="12" lengthAdjust="spacing" textLength="227" x="210" y="1502.0244">// Receives TDI AE from root process.</text><text fill="#000000" font-family="sans-serif" font-size="12" lengthAdjust="spacing" textLength="145" x="210" y="1515.9932">share_vbmcmc_model()</text><polygon fill="#F1F1F1" points="323.5,835.3701,335.5,847.3701,323.5,859.3701,311.5,847.3701,323.5,835.3701" style="stroke:#181818;stroke-width:0.5;"/><polygon fill="#F1F1F1" points="253,1548.8232,394,1548.8232,406,1560.8232,394,1572.8232,253,1572.8232,241,1560.8232,253,1548.8232" style="stroke:#181818;stroke-width:0.5;"/><text fill="#000000" font-family="sans-serif" font-size="11" lengthAdjust="spacing" textLength="141" x="253" y="1564.6313">GBMCMC steps finished?</text><text fill="#000000" font-family="sans-serif" font-size="11" lengthAdjust="spacing" textLength="14" x="406" y="1558.229">no</text><ellipse cx="323.5" cy="1625.2222" fill="none" rx="11" ry="11" style="stroke:#222222;stroke-width:1.0;"/><ellipse cx="323.5" cy="1625.2222" fill="#222222" rx="6" ry="6" style="stroke:#222222;stroke-width:1.0;"/><line style="stroke:#000000;stroke-width:1.5;" x1="15" x2="15" y1="50.042" y2="1636.2222"/><rect fill="#FFFFFF" height="1586.1802" style="stroke:#FFFFFF;stroke-width:1.0;" width="201" x="605" y="50.042"/><rect fill="#F1F1F1" height="47.9375" rx="12.5" ry="12.5" style="stroke:#181818;stroke-width:0.5;" width="191" x="611" y="169.9639"/><text fill="#000000" font-family="sans-serif" font-size="12" lengthAdjust="spacing" textLength="171" x="621" y="191.1025">// Reads known-sources file.</text><text fill="#000000" font-family="sans-serif" font-size="12" lengthAdjust="spacing" textLength="89" x="621" y="205.0713">parse_vb_list()</text><rect fill="#F1F1F1" height="47.9375" rx="12.5" ry="12.5" style="stroke:#181818;stroke-width:0.5;" width="119" x="647" y="319.8076"/><text fill="#000000" font-family="sans-serif" font-size="12" lengthAdjust="spacing" textLength="99" x="657" y="340.9463">// Parse any UCB</text><text fill="#000000" font-family="sans-serif" font-size="12" lengthAdjust="spacing" textLength="45" x="657" y="354.915">parse()</text><line style="stroke:#000000;stroke-width:1.5;" x1="605" x2="605" y1="50.042" y2="1636.2222"/><rect fill="#FFFFFF" height="1586.1802" style="stroke:#FFFFFF;stroke-width:1.0;" width="323" x="806" y="50.042"/><rect fill="#F1F1F1" height="61.9063" rx="12.5" ry="12.5" style="stroke:#181818;stroke-width:0.5;" width="202" x="867.5" y="237.9014"/><text fill="#000000" font-family="sans-serif" font-size="12" lengthAdjust="spacing" textLength="168" x="877.5" y="259.04">// search_sources.dat found</text><text fill="#000000" font-family="sans-serif" font-size="12" lengthAdjust="spacing" textLength="182" x="877.5" y="273.0088">// get N_MBH = number of line</text><text fill="#000000" font-family="sans-serif" font-size="12" lengthAdjust="spacing" textLength="110" x="877.5" y="286.9775">parse_mbh_args()</text><rect fill="#F1F1F1" height="47.9375" rx="12.5" ry="12.5" style="stroke:#181818;stroke-width:0.5;" width="313" x="812" y="591.5576"/><text fill="#000000" font-family="sans-serif" font-size="12" lengthAdjust="spacing" textLength="293" x="822" y="612.6963">// Allocates MBH structures (data, het, flags, tdi).</text><text fill="#000000" font-family="sans-serif" font-size="12" lengthAdjust="spacing" textLength="102" x="822" y="626.665">alloc_mbh_data()</text><line style="stroke:#000000;stroke-width:1.5;" x1="806" x2="806" y1="50.042" y2="1636.2222"/><rect fill="#FFFFFF" height="1586.1802" style="stroke:#FFFFFF;stroke-width:1.0;" width="383" x="1129" y="50.042"/><rect fill="#F1F1F1" height="47.9375" rx="12.5" ry="12.5" style="stroke:#181818;stroke-width:0.5;" width="373" x="1135" y="455.6826"/><text fill="#000000" font-family="sans-serif" font-size="12" lengthAdjust="spacing" textLength="353" x="1145" y="476.8213">// Allocates UCB structures (flags, orbit, chain, data, prior).</text><text fill="#000000" font-family="sans-serif" font-size="12" lengthAdjust="spacing" textLength="128" x="1145" y="490.79">alloc_gbmcmc_data()</text><rect fill="#F1F1F1" height="47.9375" rx="12.5" ry="12.5" style="stroke:#181818;stroke-width:0.5;" width="360" x="1141.5" y="1137.1514"/><text fill="#000000" font-family="sans-serif" font-size="12" lengthAdjust="spacing" textLength="340" x="1151.5" y="1158.29">// This is not the same function as for UCB. For VGB only.</text><text fill="#000000" font-family="sans-serif" font-size="12" lengthAdjust="spacing" textLength="170" x="1151.5" y="1172.2588">setup_frequency_segment()</text><line style="stroke:#000000;stroke-width:1.5;" x1="1129" x2="1129" y1="50.042" y2="1636.2222"/><rect fill="#FFFFFF" height="1586.1802" style="stroke:#FFFFFF;stroke-width:1.0;" width="593" x="1512" y="50.042"/><rect fill="#F1F1F1" height="47.9375" rx="12.5" ry="12.5" style="stroke:#181818;stroke-width:0.5;" width="583" x="1518" y="523.6201"/><text fill="#000000" font-family="sans-serif" font-size="12" lengthAdjust="spacing" textLength="563" x="1528" y="544.7588">// Allocates VG structures (flags, orbit, chain_vec, data_vec,_prior_vec, trial_vec, model_vec).</text><text fill="#000000" font-family="sans-serif" font-size="12" lengthAdjust="spacing" textLength="127" x="1528" y="558.7275">alloc_vbmcmc_data()</text><rect fill="#F1F1F1" height="33.9688" rx="12.5" ry="12.5" style="stroke:#181818;stroke-width:0.5;" width="190" x="1714.5" y="781.4014"/><text fill="#000000" font-family="sans-serif" font-size="12" lengthAdjust="spacing" textLength="170" x="1724.5" y="802.54">initialize_vbmcmc_sampler()</text><rect fill="#F1F1F1" height="33.9688" rx="12.5" ry="12.5" style="stroke:#181818;stroke-width:0.5;" width="190" x="1714.5" y="1083.1826"/><text fill="#000000" font-family="sans-serif" font-size="12" lengthAdjust="spacing" textLength="170" x="1724.5" y="1104.3213">select_vbmcmc_segments()</text><rect fill="#F1F1F1" height="47.9375" rx="12.5" ry="12.5" style="stroke:#181818;stroke-width:0.5;" width="184" x="1717.5" y="1345.0107"/><text fill="#000000" font-family="sans-serif" font-size="12" lengthAdjust="spacing" textLength="48" x="1727.5" y="1366.1494">// MCMC</text><text fill="#000000" font-family="sans-serif" font-size="12" lengthAdjust="spacing" textLength="164" x="1727.5" y="1380.1182">update_vbmcmc_sampler()</text><line style="stroke:#000000;stroke-width:1.5;" x1="1512" x2="1512" y1="50.042" y2="1636.2222"/><rect fill="#FFFFFF" height="1586.1802" style="stroke:#FFFFFF;stroke-width:1.0;" width="381" x="2105" y="50.042"/><rect fill="#F1F1F1" height="33.9688" rx="12.5" ry="12.5" style="stroke:#181818;stroke-width:0.5;" width="129" x="2231" y="659.4951"/><text fill="#000000" font-family="sans-serif" font-size="12" lengthAdjust="spacing" textLength="109" x="2241" y="680.6338">alloc_noise_data()</text><rect fill="#F1F1F1" height="47.9375" rx="12.5" ry="12.5" style="stroke:#181818;stroke-width:0.5;" width="319" x="2136" y="1255.0732"/><text fill="#000000" font-family="sans-serif" font-size="12" lengthAdjust="spacing" textLength="299" x="2146" y="1276.2119">// Keep only noise from related frequencies band</text><text fill="#000000" font-family="sans-serif" font-size="12" lengthAdjust="spacing" textLength="145" x="2146" y="1290.1807">select_noise_segment()</text><polygon fill="#F1F1F1" points="2201,1211.0732,2390,1211.0732,2402,1223.0732,2390,1235.0732,2201,1235.0732,2189,1223.0732,2201,1211.0732" style="stroke:#181818;stroke-width:0.5;"/><text fill="#000000" font-family="sans-serif" font-size="11" lengthAdjust="spacing" textLength="189" x="2201" y="1226.8813">Loop over number of known VGB</text><line style="stroke:#000000;stroke-width:1.5;" x1="2105" x2="2105" y1="50.042" y2="1636.2222"/><line style="stroke:#000000;stroke-width:1.5;" x1="2486" x2="2486" y1="50.042" y2="1636.2222"/><line style="stroke:#181818;stroke-width:1.0;" x1="323.5" x2="323.5" y1="95.9951" y2="115.9951"/><polygon fill="#181818" points="319.5,105.9951,323.5,115.9951,327.5,105.9951,323.5,109.9951" style="stroke:#181818;stroke-width:1.0;"/><line style="stroke:#181818;stroke-width:1.0;" x1="323.5" x2="323.5" y1="927.3076" y2="947.3076"/><polygon fill="#181818" points="319.5,937.3076,323.5,947.3076,327.5,937.3076,323.5,941.3076" style="stroke:#181818;stroke-width:1.0;"/><line style="stroke:#181818;stroke-width:1.0;" x1="323.5" x2="323.5" y1="995.2451" y2="1015.2451"/><polygon fill="#181818" points="319.5,1005.2451,323.5,1015.2451,327.5,1005.2451,323.5,1009.2451" style="stroke:#181818;stroke-width:1.0;"/><line style="stroke:#181818;stroke-width:1.0;" x1="323.5" x2="323.5" y1="1460.8857" y2="1480.8857"/><polygon fill="#181818" points="319.5,1470.8857,323.5,1480.8857,327.5,1470.8857,323.5,1474.8857" style="stroke:#181818;stroke-width:1.0;"/><line style="stroke:#181818;stroke-width:1.0;" x1="323.5" x2="323.5" y1="859.3701" y2="879.3701"/><polygon fill="#181818" points="319.5,869.3701,323.5,879.3701,327.5,869.3701,323.5,873.3701" style="stroke:#181818;stroke-width:1.0;"/><line style="stroke:#181818;stroke-width:1.0;" x1="241" x2="34" y1="1560.8232" y2="1560.8232"/><polygon fill="#181818" points="30,1205.0889,34,1195.0889,38,1205.0889,34,1201.0889" style="stroke:#181818;stroke-width:1.0;"/><line style="stroke:#181818;stroke-width:1.0;" x1="34" x2="34" y1="847.3701" y2="1560.8232"/><line style="stroke:#181818;stroke-width:1.0;" x1="34" x2="311.5" y1="847.3701" y2="847.3701"/><polygon fill="#181818" points="301.5,843.3701,311.5,847.3701,301.5,851.3701,305.5,847.3701" style="stroke:#181818;stroke-width:1.0;"/><line style="stroke:#181818;stroke-width:1.0;" x1="323.5" x2="323.5" y1="1528.8232" y2="1548.8232"/><polygon fill="#181818" points="319.5,1538.8232,323.5,1548.8232,327.5,1538.8232,323.5,1542.8232" style="stroke:#181818;stroke-width:1.0;"/><line style="stroke:#181818;stroke-width:1.0;" x1="323.5" x2="323.5" y1="1572.8232" y2="1614.2222"/><polygon fill="#181818" points="319.5,1604.2222,323.5,1614.2222,327.5,1604.2222,323.5,1608.2222" style="stroke:#181818;stroke-width:1.0;"/><text fill="#000000" font-family="sans-serif" font-size="11" lengthAdjust="spacing" textLength="21" x="327.5" y="1594.1279">yes</text><line style="stroke:#181818;stroke-width:1.0;" x1="2295.5" x2="2295.5" y1="1235.0732" y2="1255.0732"/><polygon fill="#181818" points="2291.5,1245.0732,2295.5,1255.0732,2299.5,1245.0732,2295.5,1249.0732" style="stroke:#181818;stroke-width:1.0;"/><line style="stroke:#181818;stroke-width:1.0;" x1="2295.5" x2="2295.5" y1="1303.0107" y2="1313.0107"/><line style="stroke:#181818;stroke-width:1.0;" x1="2295.5" x2="2467" y1="1313.0107" y2="1313.0107"/><polygon fill="#181818" points="2463,1277.042,2467,1267.042,2471,1277.042,2467,1273.042" style="stroke:#181818;stroke-width:1.0;"/><line style="stroke:#181818;stroke-width:1.0;" x1="2467" x2="2467" y1="1223.0732" y2="1313.0107"/><line style="stroke:#181818;stroke-width:1.0;" x1="2467" x2="2402" y1="1223.0732" y2="1223.0732"/><polygon fill="#181818" points="2412,1219.0732,2402,1223.0732,2412,1227.0732,2408,1223.0732" style="stroke:#181818;stroke-width:1.0;"/><line style="stroke:#181818;stroke-width:1.0;" x1="2189" x2="2124" y1="1223.0732" y2="1223.0732"/><polygon fill="#181818" points="2120,1271.792,2124,1281.792,2128,1271.792,2124,1275.792" style="stroke:#181818;stroke-width:1.0;"/><line style="stroke:#181818;stroke-width:1.0;" x1="2124" x2="2124" y1="1223.0732" y2="1330.0107"/><line style="stroke:#181818;stroke-width:1.0;" x1="2124" x2="1809.5" y1="1330.0107" y2="1330.0107"/><line style="stroke:#181818;stroke-width:1.0;" x1="1809.5" x2="1809.5" y1="1330.0107" y2="1345.0107"/><polygon fill="#181818" points="1805.5,1335.0107,1809.5,1345.0107,1813.5,1335.0107,1809.5,1339.0107" style="stroke:#181818;stroke-width:1.0;"/><line style="stroke:#181818;stroke-width:1.0;" x1="323.5" x2="323.5" y1="149.9639" y2="154.9639"/><line style="stroke:#181818;stroke-width:1.0;" x1="323.5" x2="706.5" y1="154.9639" y2="154.9639"/><line style="stroke:#181818;stroke-width:1.0;" x1="706.5" x2="706.5" y1="154.9639" y2="169.9639"/><polygon fill="#181818" points="702.5,159.9639,706.5,169.9639,710.5,159.9639,706.5,163.9639" style="stroke:#181818;stroke-width:1.0;"/><line style="stroke:#181818;stroke-width:1.0;" x1="706.5" x2="706.5" y1="217.9014" y2="222.9014"/><line style="stroke:#181818;stroke-width:1.0;" x1="706.5" x2="968.5" y1="222.9014" y2="222.9014"/><line style="stroke:#181818;stroke-width:1.0;" x1="968.5" x2="968.5" y1="222.9014" y2="237.9014"/><polygon fill="#181818" points="964.5,227.9014,968.5,237.9014,972.5,227.9014,968.5,231.9014" style="stroke:#181818;stroke-width:1.0;"/><line style="stroke:#181818;stroke-width:1.0;" x1="968.5" x2="968.5" y1="299.8076" y2="304.8076"/><line style="stroke:#181818;stroke-width:1.0;" x1="968.5" x2="706.5" y1="304.8076" y2="304.8076"/><line style="stroke:#181818;stroke-width:1.0;" x1="706.5" x2="706.5" y1="304.8076" y2="319.8076"/><polygon fill="#181818" points="702.5,309.8076,706.5,319.8076,710.5,309.8076,706.5,313.8076" style="stroke:#181818;stroke-width:1.0;"/><line style="stroke:#181818;stroke-width:1.0;" x1="706.5" x2="706.5" y1="367.7451" y2="372.7451"/><line style="stroke:#181818;stroke-width:1.0;" x1="706.5" x2="323.5" y1="372.7451" y2="372.7451"/><line style="stroke:#181818;stroke-width:1.0;" x1="323.5" x2="323.5" y1="372.7451" y2="387.7451"/><polygon fill="#181818" points="319.5,377.7451,323.5,387.7451,327.5,377.7451,323.5,381.7451" style="stroke:#181818;stroke-width:1.0;"/><line style="stroke:#181818;stroke-width:1.0;" x1="323.5" x2="323.5" y1="435.6826" y2="440.6826"/><line style="stroke:#181818;stroke-width:1.0;" x1="323.5" x2="1321.5" y1="440.6826" y2="440.6826"/><line style="stroke:#181818;stroke-width:1.0;" x1="1321.5" x2="1321.5" y1="440.6826" y2="455.6826"/><polygon fill="#181818" points="1317.5,445.6826,1321.5,455.6826,1325.5,445.6826,1321.5,449.6826" style="stroke:#181818;stroke-width:1.0;"/><line style="stroke:#181818;stroke-width:1.0;" x1="1321.5" x2="1321.5" y1="503.6201" y2="508.6201"/><line style="stroke:#181818;stroke-width:1.0;" x1="1321.5" x2="1809.5" y1="508.6201" y2="508.6201"/><line style="stroke:#181818;stroke-width:1.0;" x1="1809.5" x2="1809.5" y1="508.6201" y2="523.6201"/><polygon fill="#181818" points="1805.5,513.6201,1809.5,523.6201,1813.5,513.6201,1809.5,517.6201" style="stroke:#181818;stroke-width:1.0;"/><line style="stroke:#181818;stroke-width:1.0;" x1="1809.5" x2="1809.5" y1="571.5576" y2="576.5576"/><line style="stroke:#181818;stroke-width:1.0;" x1="1809.5" x2="968.5" y1="576.5576" y2="576.5576"/><line style="stroke:#181818;stroke-width:1.0;" x1="968.5" x2="968.5" y1="576.5576" y2="591.5576"/><polygon fill="#181818" points="964.5,581.5576,968.5,591.5576,972.5,581.5576,968.5,585.5576" style="stroke:#181818;stroke-width:1.0;"/><line style="stroke:#181818;stroke-width:1.0;" x1="968.5" x2="968.5" y1="639.4951" y2="644.4951"/><line style="stroke:#181818;stroke-width:1.0;" x1="968.5" x2="2295.5" y1="644.4951" y2="644.4951"/><line style="stroke:#181818;stroke-width:1.0;" x1="2295.5" x2="2295.5" y1="644.4951" y2="659.4951"/><polygon fill="#181818" points="2291.5,649.4951,2295.5,659.4951,2299.5,649.4951,2295.5,653.4951" style="stroke:#181818;stroke-width:1.0;"/><line style="stroke:#181818;stroke-width:1.0;" x1="2295.5" x2="2295.5" y1="693.4639" y2="698.4639"/><line style="stroke:#181818;stroke-width:1.0;" x1="2295.5" x2="323.5" y1="698.4639" y2="698.4639"/><line style="stroke:#181818;stroke-width:1.0;" x1="323.5" x2="323.5" y1="698.4639" y2="713.4639"/><polygon fill="#181818" points="319.5,703.4639,323.5,713.4639,327.5,703.4639,323.5,707.4639" style="stroke:#181818;stroke-width:1.0;"/><line style="stroke:#181818;stroke-width:1.0;" x1="323.5" x2="323.5" y1="761.4014" y2="766.4014"/><line style="stroke:#181818;stroke-width:1.0;" x1="323.5" x2="1809.5" y1="766.4014" y2="766.4014"/><line style="stroke:#181818;stroke-width:1.0;" x1="1809.5" x2="1809.5" y1="766.4014" y2="781.4014"/><polygon fill="#181818" points="1805.5,771.4014,1809.5,781.4014,1813.5,771.4014,1809.5,775.4014" style="stroke:#181818;stroke-width:1.0;"/><line style="stroke:#181818;stroke-width:1.0;" x1="323.5" x2="323.5" y1="1063.1826" y2="1068.1826"/><line style="stroke:#181818;stroke-width:1.0;" x1="323.5" x2="1809.5" y1="1068.1826" y2="1068.1826"/><line style="stroke:#181818;stroke-width:1.0;" x1="1809.5" x2="1809.5" y1="1068.1826" y2="1083.1826"/><polygon fill="#181818" points="1805.5,1073.1826,1809.5,1083.1826,1813.5,1073.1826,1809.5,1077.1826" style="stroke:#181818;stroke-width:1.0;"/><line style="stroke:#181818;stroke-width:1.0;" x1="1809.5" x2="1809.5" y1="1117.1514" y2="1122.1514"/><line style="stroke:#181818;stroke-width:1.0;" x1="1809.5" x2="1321.5" y1="1122.1514" y2="1122.1514"/><line style="stroke:#181818;stroke-width:1.0;" x1="1321.5" x2="1321.5" y1="1122.1514" y2="1137.1514"/><polygon fill="#181818" points="1317.5,1127.1514,1321.5,1137.1514,1325.5,1127.1514,1321.5,1131.1514" style="stroke:#181818;stroke-width:1.0;"/><line style="stroke:#181818;stroke-width:1.0;" x1="1321.5" x2="1321.5" y1="1185.0889" y2="1193.5732"/><line style="stroke:#181818;stroke-width:1.0;" x1="1321.5" x2="2295.5" y1="1193.5732" y2="1193.5732"/><line style="stroke:#181818;stroke-width:1.0;" x1="2295.5" x2="2295.5" y1="1193.5732" y2="1211.0732"/><polygon fill="#181818" points="2291.5,1201.0732,2295.5,1211.0732,2299.5,1201.0732,2295.5,1205.0732" style="stroke:#181818;stroke-width:1.0;"/><line style="stroke:#181818;stroke-width:1.0;" x1="1809.5" x2="1809.5" y1="1392.9482" y2="1397.9482"/><line style="stroke:#181818;stroke-width:1.0;" x1="1809.5" x2="323.5" y1="1397.9482" y2="1397.9482"/><line style="stroke:#181818;stroke-width:1.0;" x1="323.5" x2="323.5" y1="1397.9482" y2="1412.9482"/><polygon fill="#181818" points="319.5,1402.9482,323.5,1412.9482,327.5,1402.9482,323.5,1406.9482" style="stroke:#181818;stroke-width:1.0;"/><line style="stroke:#181818;stroke-width:1.0;" x1="1809.5" x2="1809.5" y1="815.3701" y2="820.3701"/><line style="stroke:#181818;stroke-width:1.0;" x1="1809.5" x2="323.5" y1="820.3701" y2="820.3701"/><line style="stroke:#181818;stroke-width:1.0;" x1="323.5" x2="323.5" y1="820.3701" y2="835.3701"/><polygon fill="#181818" points="319.5,825.3701,323.5,835.3701,327.5,825.3701,323.5,829.3701" style="stroke:#181818;stroke-width:1.0;"/><text fill="#000000" font-family="sans-serif" font-size="18" lengthAdjust="spacing" textLength="98" x="261" y="66.75">GlobalFit.c</text><text fill="#000000" font-family="sans-serif" font-size="18" lengthAdjust="spacing" textLength="169" x="621" y="66.75">GalacticBinaryIO.c</text><text fill="#000000" font-family="sans-serif" font-size="18" lengthAdjust="spacing" textLength="140" x="897.5" y="66.75">MBHWrapper.c</text><text fill="#000000" font-family="sans-serif" font-size="18" lengthAdjust="spacing" textLength="232" x="1204.5" y="66.75">GalacticBinaryWrapper.c</text><text fill="#000000" font-family="sans-serif" font-size="18" lengthAdjust="spacing" textLength="264" x="1676.5" y="66.75">VerificationBinaryWrapper.c</text><text fill="#000000" font-family="sans-serif" font-size="18" lengthAdjust="spacing" textLength="149" x="2221" y="66.75">NoiseWrapper.c</text><!--SRC=[hLLDRzim3BtdLn3O9S7I5DXnRJSqtTe5MxfWwBgZ8SkqBLIMD4bEaQ4_VfJa96wJVWqxnJ4byl7nFTeBBn5-dasX4Aooh84ZU0TluJARJx_0yGaqHXHmt7iNVkdyO73tvhOM7kykfCwPF1T-mky6pZFh1m3l3m_XNDiRBA2qke7vOfRDbF33qT60mfkxJ3Bk1PyAnUngzZsaI9T_82iSt2XzgmwSRYr71wMGEA6uOTPXjimpATp3Z0JnbsN6eDtcSiWihxCkpQHW7ahTgeB25AtGTwsTW6gR72te4gHGk2dLv7N6RELUZ7uHhW5JgqZjEi_3wttYqhrJAJLdddhT1E7gqmnEFuFpjkM-jUZeB0ldighCg1Vs9AeTChOb0hHjLXYMabLk3Dhcme-1rqoeCOG2Op1MQ3kQR2ld3M_ulkhNQ4Kfg83Gwba4rnVF0SYMo1E8-9H58EcbjuB9zDZe0kDZ3-BoKOZx9BB558JG1vK8g94GTVXy8NfrWZRs5BdKmk7zCkcy2e6zSzkLmy9gmwe8IoZJ9Yru7If7Oxe0mzNCuh-CGf0VYKBn1zTaETOOYRRBOz4W2sP-5EFQgXp5aZ1sIes6jrfxaeqcmqMKQvoTSkB4kZh_CtsOnltSAKMZbvXkTba2XN49W1ELOjAbg6JE0q6naRMm289BWYOgLE4jRYx4xDmIHPYHKaJHijsEdfa1mNCeaVlD1B1gK7ctIytZhauzNjM2LE904J6-Hg1PKiUjuh4HHlrf6vgPXBrCpfk2LdBLSOU-DLbfyNUBYg_MA7P0x8eQW2Bq1Hb-qze0aMnxEpHkxr1g54ycd5yHJImDqGdTE556QjSG18qxPt539toHesIT7hWGGrL42A_bdQ3Cp-PdyKzhYZ35lIvugJfJDr5xJqiqTR5FfA_G-NBNHickwtbSJ4DtjCdGX0-d4gx6ukCeA6IeT1Z8mOSLkYFwOclp5m00]--></g></svg>